<svg id="icons" height="512" viewBox="0 0 500 500" width="512" xmlns="http://www.w3.org/2000/svg" xmlns:xlink="http://www.w3.org/1999/xlink"><linearGradient id="linear-gradient" gradientUnits="userSpaceOnUse" x1="103.272" x2="318.3" y1="80.123" y2="366.374"><stop offset="0" stop-color="#fffffc"/><stop offset="1" stop-color="#ffbaaf"/></linearGradient><linearGradient id="linear-gradient-2" gradientUnits="userSpaceOnUse" x1="164.933" x2="279.092" y1="102.476" y2="425.405"><stop offset="0" stop-color="#e8a0a7"/><stop offset="1" stop-color="#e06f79"/></linearGradient><linearGradient id="linear-gradient-3" x1="142.369" x2="256.528" xlink:href="#linear-gradient-2" y1="110.759" y2="433.688"/><linearGradient id="linear-gradient-4" gradientUnits="userSpaceOnUse" x1="338.336" x2="338.336" y1="82.069" y2="376.188"><stop offset="0" stop-color="#dd6c54"/><stop offset="1" stop-color="#d84b39"/></linearGradient><linearGradient id="linear-gradient-5" gradientUnits="userSpaceOnUse" x1="348.64" x2="348.64" y1="226.987" y2="376.825"><stop offset="0" stop-color="#ffd3d1"/><stop offset="1" stop-color="#f59f9b"/></linearGradient><linearGradient id="linear-gradient-6" gradientUnits="userSpaceOnUse" x1="344.573" x2="344.573" y1="220.667" y2="432.175"><stop offset="0" stop-color="#fff"/><stop offset="1" stop-color="#ced9ff"/></linearGradient><linearGradient id="linear-gradient-7" gradientUnits="userSpaceOnUse" x1="349.782" x2="349.782" y1="446.679" y2="233.037"><stop offset="0" stop-color="#979eff"/><stop offset="1" stop-color="#c4d1ff"/></linearGradient><linearGradient id="linear-gradient-8" x1="324.464" x2="324.464" xlink:href="#linear-gradient-7" y1="446.679" y2="233.037"/><linearGradient id="linear-gradient-9" x1="365.632" x2="365.632" xlink:href="#linear-gradient-7" y1="446.679" y2="233.037"/><linearGradient id="linear-gradient-10" x1="382.303" x2="382.303" xlink:href="#linear-gradient-5" y1="240.998" y2="328.369"/><linearGradient id="linear-gradient-11" x1="325.411" x2="325.411" xlink:href="#linear-gradient-5" y1="240.356" y2="394.405"/><linearGradient id="linear-gradient-12" gradientUnits="userSpaceOnUse" x1="257.681" x2="358.371" y1="106.8" y2="289.489"><stop offset="0" stop-color="#ffe67a"/><stop offset="1" stop-color="#ffb256"/></linearGradient><linearGradient id="linear-gradient-13" x1="339.759" x2="339.759" xlink:href="#linear-gradient-5" y1="149.919" y2="94.383"/><linearGradient id="linear-gradient-14" x1="355.723" x2="456.413" xlink:href="#linear-gradient-12" y1="52.763" y2="235.453"/><linearGradient id="linear-gradient-15" x1="306.246" x2="306.246" xlink:href="#linear-gradient-7" y1="446.679" y2="233.037"/><path d="m403.589 120.785s15.169-93.3-71.953-88.227a26.724 26.724 0 0 1 -15.283-3.809c-15.237-9.133-54.4-25.646-96.951 11.83a35.573 35.573 0 0 1 -23.47 8.837c-23.119.047-70.612 8.349-97.546 70.791a57.494 57.494 0 0 1 -19.737 24.342c-21.016 14.727-57.213 50.051-40.468 111.283a31.111 31.111 0 0 1 -.212 17.338 99.741 99.741 0 0 1 -11.422 24.479c-11.835 18.41-18.41 48 19.067 84.159 0 0-6.575 59.174 50.627 63.119s118.159 3.692 195.085 36.566c0 0 88.236-226.581 112.263-360.708z" fill="url(#linear-gradient)"/><path d="m359.25 98.824s-77.223-55.053-78.013 26.1c-.178 18.238.975 34.914-9.681 49.2l-12.4 65.548s-7.445 13.03-29.844 8.713a4.039 4.039 0 0 0 -4.575 5.408c3.091 8 10.97 19.982 30.433 19.982 0 0 55.594 98.4-10.7 111.718a3.278 3.278 0 0 0 -1.286 5.846 55.906 55.906 0 0 0 15.359 8.131 19.624 19.624 0 0 1 12.868 13.081 124.338 124.338 0 0 1 4.961 29.4 8.835 8.835 0 0 1 -12.6 8.27 370.43 370.43 0 0 0 -113.524-32.5c-59.674-6.9-104.635-35.909-104.635-35.909s-6.575 59.174 50.627 63.118c55.271 2.933 127.929 6.442 195.085 36.567 0 0 82.534-211.941 109.691-347.2z" fill="url(#linear-gradient-2)"/><path d="m308.446 78.706c-63.046-20.591-102.922 15.23-102.922 15.23-80.727 7.818-104.489 91.515-104.489 91.515-55.5 48.269-36.88 111.18-36.88 111.18-28.694 66.633 8.945 103.784 8.945 103.784 16.357 16.42 19.861 44.127 19.871 44.21 11.084.981 22.164 1.419 33.451 2.148-3.122-12.8-8.259-23.551-16.056-31.059-49.876-48.03-22.138-96.082-22.138-96.082-14.778-71.632 27.334-98.748 27.334-98.748 28.625-81.433 93.6-87.881 93.6-87.881 29.715-21.265 57.694-22.338 72.949-20.722l25.489-31.457z" fill="url(#linear-gradient-3)"/><path d="m304.192 143.949 66-21s46.877 40.5 56.628 111.006c7.1 12.642 20.614 63.856-19.651 87.206-3.606 2.192-8.447 5.82-11.23 10.743-6 10.625 4.851 23.533 15.979 15.988a2.064 2.064 0 0 1 3.143 2.208c-2.3 9.668-10.559 26.565-39.994 13.236l-82.879 2.625s-32.875 26.3-50.092-4.537a2.065 2.065 0 0 1 2.167-3.027c7.179 1.261 21.349 1.178 24.674-17.937 2.471-14.21-2.714-26.581-10.37-36.5 0 0-25.865-33.3 11.8-70.962z" fill="url(#linear-gradient-4)"/><path d="m334.843 183.234q-.148 3.252-.4 6.557a6.232 6.232 0 0 1 -10.1 4.434c-2.033-1.627-4.257-3.405-6.5-5.192l-12.006 33.682 10.305 26.965 75.29 13.34-3.032-46.771-33.462-15.971c-.105-8.629-.141-15.378.1-24.074-5.76-2.77-17.038 1.114-20.195 7.03z" fill="url(#linear-gradient-5)"/><path d="m317.48 220.633 2.877 18.3-8.645 13.417-3.266-3.094 7.07-28.73a.99.99 0 0 1 1.964.107z" fill="#e07a86"/><path d="m391.437 263.02-3.037-46.771-33.462-15.971c-.792 6.794-.8 12.911 5.314 17.3 7.338 4.535 17.41 7.049 17.211 17.631l-.51 23.616z" fill="#e07a86"/><path d="m334.863 183.235s12.2 4.068 20.171-7.031c.116-5.452.264-8.405.659-16.233l-20.83 5.324a153.572 153.572 0 0 1 0 17.94z" fill="#e07a86"/><path d="m307.315 247.477s4.228-16.889 20.287-19.094c17.178-2.36 25.805 5.457 30.729 15.513 0 0 10.92-12.35 25.657-4.773 16.059 8.256 12.5 18.517 7.449 27.148-2.69 4.6-11.444 5.054-17.783 12.369-6.511 7.513-6.678 26.3-6.678 26.3-2.469 43.437 32.107 47.856 47.466 143.376 0 0-6.139 7.287-19.588 15.158q-4.9.549-9.691 5.087c-12.849 6.032-30.2 11.554-52.605 13.483l-52.624-79.716c-6.936-21.034-10.945-42.22 14.465-72.456 0 0 18.038-3.629 18.882-16.971 1.147-18.101-14.025-48.988-5.966-65.424z" fill="url(#linear-gradient-6)"/><path d="m383.988 239.123a21.978 21.978 0 0 0 -6.567-2.209l-1.131 26.686a7.112 7.112 0 0 1 -9.889 6.278 32.4 32.4 0 0 1 -2.953-1.484 39.789 39.789 0 0 0 -21.579-5.305c-13.858.7-31.446-6.1-29.924-23.311-14.248 19.354-11.195 46.759-6.856 63.2l18.785 9.92a56.206 56.206 0 0 1 -10.209-28.295 87.75 87.75 0 0 1 53.314 20.334 20.449 20.449 0 0 1 2.992-8.292c8.586-12.553 12.333-16.461 12.333-16.461 15.401-1.284 25.309-29.531 1.684-41.061z" fill="url(#linear-gradient-7)"/><path d="m339.759 356.774s3.779 1.289 1.973 10.317l10.318 8.253 2.473-20.634-47.748-37.994a174.018 174.018 0 0 0 -12.375 13.159c7.378 5.156 29.883 20.508 45.359 26.899z" fill="url(#linear-gradient-8)"/><path d="m339.067 362.556a1.657 1.657 0 0 0 -2.189 2.469 187.811 187.811 0 0 1 48.267 103.5 101.642 101.642 0 0 0 9.707-5.051c-5.805-56.522-37.261-87.398-55.785-100.918z" fill="url(#linear-gradient-9)"/><path d="m358.674 193.234c-3.763-.993-3.388 3.447-3.844 6.346a12.8 12.8 0 0 0 5.7 11.981l14.077 7.6a12.663 12.663 0 0 1 6.647 11.219l-.344 57.581a16.846 16.846 0 0 0 10.109 15.207c7.913 3.595 19.923-5.808 18.735-14.91l-12.774-69.058a16.9 16.9 0 0 0 -10.014-14.082z" fill="url(#linear-gradient-10)"/><path d="m316.044 219.043s-8.125 35.16-8.89 63.138a29.642 29.642 0 0 0 7.346 20.419c9.342 10.61 26.577 29.1 43.945 42.078a21.726 21.726 0 0 1 8.728 16.259 132.874 132.874 0 0 1 -1.1 23.259 2.646 2.646 0 0 1 -3.807 2.041 34.336 34.336 0 0 1 -13.587-12.265c-2.909-4.181-2.013-10.308-1.65-15.082a7.745 7.745 0 0 0 -3.654-7.127c-10.466-6.481-39-25.064-54.537-44.144a23.652 23.652 0 0 1 -5.1-18.142c1.321-9.695 3.239-26.292 3.9-44.881l21.094-35.089z" fill="url(#linear-gradient-11)"/><path d="m317.848 189.033c-3.876-3.091-7.8-6.208-10.861-8.616l-16.707 5.034-2.79 31.034c.494 9.466.469 19.026.146 28.113 23.682-20.667 28.694-42.989 30.212-55.565z" fill="#e07a86"/><path d="m315.622 138.16s11.728 78.161-57.722 111.357c0 0-24.592 7.946-27.649-19.475a1.769 1.769 0 0 1 2.893-1.563c2.583 2.284 7.13 3.968 14.993 1.565 10.155-3.1 12.95-21.583 10.778-33.978-2.129-12.148 4.292-24.583 14.159-34.924a57.369 57.369 0 0 0 15.54-39.24c.146-18.45 6.26-44.456 24.8-53.472 8.425-4.1 14.3-3.374 21.455.068v62.647z" fill="url(#linear-gradient-12)"/><path d="m326.9 103.642a35.548 35.548 0 0 0 -11.812 26.738l1.2 17.336s-.456 20.491 25.727 25.044c0 0 14.139-2.641 21.367-19.99 4.91-29.822-7.325-54.699-36.482-49.128z" fill="url(#linear-gradient-13)"/><path d="m326.9 103.642a35.548 35.548 0 0 0 -11.811 26.738l.267 3.859a49.211 49.211 0 0 1 12.922-19.045s2.3 2.973 13.595 12.685c8.845 7.6 16.344 14.724 21.85 22.592 3.918-28.786-8.423-52.256-36.823-46.829z" fill="#e07a86"/><path d="m427.519 249.014c4.089 14.553 16.27 30.629 32.876 29.52 0 0 15.973.118 21.324-14.49a1.755 1.755 0 0 0 -2.258-2.243c-6.031 2.186-17.815 3.293-13.923-23.838 3.959-27.6-11.893-43.109-11.893-43.109 19.3 5.576 23.753-7.26 24.734-14.845a1.753 1.753 0 0 0 -2.732-1.669c-7.588 4.9-24.413-.01-22.894-21.542 1.76-25.521-20.516-43.394-40.438-45.87a39.763 39.763 0 0 1 -30.878-23.961c-10.631-25.139-32.796-31.467-48.437-23.924-7.35 3.546-8.627 11.909-9.061 18.488a30 30 0 0 0 5.786 19.569 88.356 88.356 0 0 0 16.3 16.75c21.395 17.176 41.326 45.489 50.543 63.625-.006 0 22.092 34.831 30.951 67.539z" fill="url(#linear-gradient-14)"/><path d="m332.558 482.038c-3.216-20.1-13.191-46.237-39.184-66.158a67.358 67.358 0 0 1 -13.439-13.553c2.565 7.779 5.529 15.537 7.555 23.724 8.369 33.823 3.836 55.442 3.836 55.442a218.038 218.038 0 0 0 41.232.545z" fill="url(#linear-gradient-15)"/><g fill="#2b2a3a"><path d="m55.384 429.908c15.242 18.915 39.165 18.992 62.616 20.124 47.045 2.8 91.267 5.407 148.031 25.807a3.75 3.75 0 1 0 2.553-7.052c-8.481-3.07-16.73-5.738-24.787-8.08-4.905-2.669-55.655-29.765-121.093-45.451-3.533-.847-6.993-1.817-10.38-2.868-25.823-23.7-34.782-58.785-22.789-86.744 38.9 33.716 124.025 68.264 165.642 100.413 4.008 2.777 8.349-3.157 4.35-6.111-41.707-32.286-130.162-68.4-167.886-102.4-7.333-35.235-.324-70.7 22.78-91.011 12.766 23.439 32.388 50.539 62.456 80.1a3.75 3.75 0 1 0 5.258-5.349c-30.6-30.074-50.082-57.426-62.449-80.774 20.442-52.534 50.239-74.084 86.459-83.209 3.434 17.033 9.086 36.574 17.786 58.918a3.75 3.75 0 1 0 6.988-2.721c-8.793-22.584-14.318-42.106-17.583-58.836 23.623-16.207 45.8-19.358 60.538-19.124a3.75 3.75 0 0 0 .061-7.5c-15.208-.255-37.874 2.892-62.035 18.567a192.033 192.033 0 0 1 -2.6-30.907c6.641-5.18 38.965-27.646 86.924-16.513-19.284 29.216-1.941 54.205-25.858 79.369-11.892 12.463-17.269 26.015-15.14 38.161 2.094 11.958-1.022 27.556-8.181 29.744-6.149 2.118-12.184.855-13.428-3.932a3.751 3.751 0 0 0 -7.418.737c-.658 18.722 8.441 31.529 24.657 31.061-13.087 28.5 3.34 50.148 4.758 51.93 8.378 10.866 11.621 22.158 9.637 33.563-2.449 16.338-15.5 16.8-23.883 14a3.775 3.775 0 0 0 -4.725 5.041c7.132 16.142 19.487 23.424 34.468 20.756 1.128 16.9 8.758 31.279 12.744 47.338 8.03 32.455 3.847 53.568 3.8 53.772a3.774 3.774 0 0 0 3.284 4.5c6.951.721 13.557 1.1 19.859 1.223 43.368 2.147 89.519-15.633 106.512-35.715a3.749 3.749 0 0 0 .831-3.035c-5.748-34.334-14.058-57.936-22.2-75.749 18.1-.531 23.728-19.812 23.752-27.624a3.749 3.749 0 0 0 -2.481-3.644c-2.319-.924-4.1.882-5.371 2.579-3.443 3.688-7.7 2.771-10.292.867-2.678-1.963-4.9-5.858-2.344-10.377 2.39-4.229 6.71-7.437 9.913-9.383 18.4-11.1 28.605-29.021 29.589-50.249 13.31 13.341 42.246 11.523 47.746-13.1a3.75 3.75 0 0 0 -5.628-3.952c-1.224.747-6.364 3.159-9.142 1.33-9.166-8.787 6.4-32.683-9.581-58.42a18.827 18.827 0 0 0 12.295-3.954c8.776-7.053 8-20.745 7.961-21.325a3.75 3.75 0 0 0 -7.177-1.262c-1.039 2.374-4.809 3.508-8.594 2.575-2.636-.649-11.155-3.934-10.1-18.943 1.887-27.077-21.178-47.022-43.631-49.844a36.2 36.2 0 0 1 -27.97-21.711c-5.54-13.1-14.732-22.632-25.881-26.836-10.438-3.816-22.725-3.237-31.425 3.505a23.947 23.947 0 0 0 -11.786 1.21c3.66-24.226 15.237-26.913 16.183-27.089 49.341-2.812 64.1 27.477 67.789 53.4a3.75 3.75 0 1 0 7.434-1.064c-2.479-17.406-8.716-31.367-18.536-41.493-13.2-13.607-32.464-19.776-57.243-18.332a22.89 22.89 0 0 1 -13.138-3.282c-15.649-9.38-56.851-26.967-101.356 12.232a31.835 31.835 0 0 1 -21 7.9 103.532 103.532 0 0 0 -49.13 12.455c-22.308 12.166-39.753 32.555-51.851 60.6a53.675 53.675 0 0 1 -18.446 22.758c-35.276 23.409-56.249 68.607-41.93 115.366 3.413 12.464-3.1 25.133-11.177 38.777-12.523 19.479-19.383 50.417 18.345 87.644-.399 6.691-.583 29.601 13.646 46.643zm5.79-4.766c-9.8-11.708-11.757-27.18-12-35.991a223.671 223.671 0 0 0 20.133 12.7c11.693 11.036 17.339 29.594 19.047 38.306-11.514-2.165-20.635-7.195-27.18-15.015zm47.183-6.129c5.638 5.675 10.025 13.627 13.072 23.707-8.342-.5-16.825-.963-25.218-1.56-1.053-5.829-4.077-19.1-11.283-31.326a203.043 203.043 0 0 0 23.429 9.179zm100.422 33.218c-28.141-5.483-54.121-7.5-79.412-9.037a76.041 76.041 0 0 0 -8.8-20.745 538.628 538.628 0 0 1 88.212 29.782zm-111.506-45.245a217.651 217.651 0 0 1 -23.236-11.164c-18.955-22.189-21.723-60.858-8.657-92.233a246.709 246.709 0 0 0 18.142 17.061c-10.617 25.119-10.722 55.342 13.751 86.336zm-4.2-165.4c-7.443 13.488-14.819 35.88-10.333 68.259-5.965-5.4-10.984-10.449-15.2-15.062-8.476-31.728 2.634-77.228 31.71-102.637a208.172 208.172 0 0 0 11.6 27.585 74.665 74.665 0 0 0 -17.781 21.851zm78.11-98.4c-17.4 10.35-40.695 30.468-56.045 68.253a191.511 191.511 0 0 1 -10.167-26.008c11.761-38.531 49.565-83.031 96.729-87.272a203.451 203.451 0 0 0 3.076 31.75 107.509 107.509 0 0 0 -33.597 13.274zm119.948 281.964c-9.378-35.721-28.128-55.773 11.2-98.579 14.527 12.668 31 23.385 39.064 28.381a3.987 3.987 0 0 1 1.887 3.678l-.434 6.2c-.008.107 0 .213-.011.319-4.182-3.6-5.928-6.242-9.468-2.823a3.754 3.754 0 0 0 .779 5.243c.373.278 36.918 28.2 46.9 98.733a150.906 150.906 0 0 1 -44.368 11.52 116.852 116.852 0 0 0 -.493-22.34c-.7-4.878-7.971-3.967-7.441.934.017.132 1.533 12.46.315 22.1q-6.5.456-13.608.481c3.961-33.746-7.941-67.631-8.472-69.115a3.75 3.75 0 0 0 -7.063 2.521c.125.351 12.012 34.229 8 66.474-3.972-.132-8.07-.371-12.306-.741.951-7.956 1.973-26.897-4.481-52.986zm-3.677-135.173a446.7 446.7 0 0 0 4.16-60.394 103.848 103.848 0 0 0 22.4-38.809c5.529 3.993 10.806 11.071 18.18 7.739a10 10 0 0 0 5.99-8.44c.36-4.785.561-9.517.608-14.133a11.948 11.948 0 0 0 3.907.506 28.505 28.505 0 0 0 8.687-3.607c-.339 10.055-.321 17.213-.224 25.752a16.621 16.621 0 0 0 7.585 16.27l14.076 7.6c4.123 2.184 5.006 6.36 4.662 10.677a23.745 23.745 0 0 0 -14.2 2.491 21.385 21.385 0 0 0 -7.88-15.945c-4-2.8-8.285 3.041-4.443 6.043a13.452 13.452 0 0 1 4.382 7.253c-8.063-9.084-25.163-11.692-37.3-5.33.959-4.744 1.627-7.663 1.65-7.762 1.044-4.774-6.118-6.506-7.306-1.688-.336 1.45-8.218 35.843-8.986 63.872a33.317 33.317 0 0 0 8.288 23.014c8.972 10.189 26.684 29.273 44.51 42.6a17.918 17.918 0 0 1 7.228 13.449 126.944 126.944 0 0 1 -.886 21 30.088 30.088 0 0 1 -10.675-10.129c-4.607-7.775 3.613-16.715-6.524-23.432-11.109-6.879-38.572-24.87-53.6-43.316a20.01 20.01 0 0 1 -4.289-15.281zm31.379-159.724a31.952 31.952 0 0 1 10.4-23.664 96.1 96.1 0 0 0 14.44 14.186 160.232 160.232 0 0 1 19.384 18.816c-3.413 23.234-17.978 28.47-21.146 29.339-21.808-4.909-21.77-17.431-22.083-26.43.409.031 2.1.338 2.478.312 4.579-.034 5.083-6.78.516-7.464l-3.671-.516zm66.167 100.147a16.383 16.383 0 0 0 -8.615-14.542l-13.947-7.53a8.974 8.974 0 0 1 -3.9-7.078c.284-1.23.035-2.653.344-3.865l26.633 11.182a13.1 13.1 0 0 1 7.733 10.987c.016.094 12.751 69.1 12.8 69.273 1.045 5.443-8.223 13.464-13.477 10.923a13.1 13.1 0 0 1 -7.909-11.829zm-53.71-56.851c.01 5.18-.178 10.528-.587 15.958a2.459 2.459 0 0 1 -4.017 1.788c-3.234-2.589-6.938-5.547-10.433-8.326a127.3 127.3 0 0 0 3.142-17.907 31.48 31.48 0 0 0 11.898 8.49zm56.842 289.342c-4.9-32.419-15.075-55.933-24.944-72.1 2.568 1.457 5.646.33 6.118-2.559a143.415 143.415 0 0 0 1.612-27.484 25.392 25.392 0 0 0 -10.228-19.071c-17.28-12.92-34.59-31.577-43.368-41.548-7.061-7.619-6.906-17.542-5.906-27.332a34.259 34.259 0 0 0 11.543 6.486c-1.412 2.479-2.338 4.293-2.43 4.473-2.152 4.412 4.358 7.767 6.688 3.4.051-.1 5.166-10.124 9.725-15.179a3.75 3.75 0 0 0 -.272-5.3c-4.389-3.382-7.251 2.875-9.621 5.957-7.69-1.8-12.835-7.245-14.7-9.523.972-8.557 2.285-16.933 3.534-24a18.783 18.783 0 0 1 12.232-7.011c12.964-1.779 21.49 2.493 26.852 13.447a3.85 3.85 0 0 0 1.482 1.587 3.75 3.75 0 0 0 3.482.15c2.066-.893 6.337-8.205 17.514-6.55l-.221 37.015c-7.921 3.612-14.078.527-21.168-4.317a52.441 52.441 0 0 1 5.8-5.362c3.814-3.1-.7-8.884-4.637-5.895-16.348 12.859-24.05 34.147-24.369 35.047a3.75 3.75 0 0 0 7.065 2.515 89.335 89.335 0 0 1 11.172-20.337 14.171 14.171 0 0 1 3.424 1.861c5.613 4.094 11.45 5.942 17.659 5.435-1.776 2.4-3.671 5.135-5.409 8.016-9.839 18.62-.383 37.905 9.688 55.7 10.664 19.35 25.222 45.763 33.985 96.7-2.634 2.663-9.892 9.294-22.299 15.782zm-31.768-397.202c9.209 3.472 16.887 11.547 21.619 22.739a43.747 43.747 0 0 0 34.424 26.3c18.843 2.57 38.2 19.283 36.606 41.806-1.149 20.2 11.232 29.606 24.912 26.656-2.267 8.378-8.879 10.971-18.543 8.238-2.736-2.239-13.406-10.885-21.817-16.547-8.789-5.916-11.948-21.942-11.979-22.1a3.75 3.75 0 0 0 -7.368 1.4c.148.783 3.762 19.252 15.16 26.926 8.7 5.855 20.36 15.394 21.74 16.528 1.392 1.434 14.208 15.4 10.708 39.8-2.435 17.906.432 29.984 14.515 29.013-5.67 8.441-15.377 8.273-16.317 8.358-13.688 1.2-25.552-13.9-28.885-26.767-.859-3.172-1.883-6.514-3.044-9.935-1.65-4.63-8.613-2.293-7.1 2.411 1.112 3.273 2.089 6.463 2.906 9.483a50.3 50.3 0 0 0 7.242 15.61c1.469 22.194-7.045 40.919-25.914 52.352-3.966 2.409-9.363 6.465-12.548 12.1-7.285 13.044 5.717 26.1 17.67 22.665-2.538 7.575-9.107 12.634-17.985 11.7-7.5-16.065-20.182-32.961-21.768-48.051-1.435-11.575 1.4-17 7.022-24.431 2.578 12.683 16.8 20.885 27.943 11.9 5.629-4.165 8.661-10.324 7.911-16.074.082-.118-12.818-68.959-12.776-69.109a20.58 20.58 0 0 0 -12.278-17.009l-29.82-12.514c0-6.588.13-13.347.537-22.645 4.053-4.391 7.862-10.668 10.1-19.576a219.05 219.05 0 0 1 23.979 36.258c.415.728.842 1.33 2.728 4.5a3.75 3.75 0 0 0 6.449-3.83c-1.367-2.3-2.281-3.767-2.571-4.229-9.733-19.094-29.949-47.425-51.458-64.694-8.493-7.28-15.886-13.775-19.5-23.659-1.549-4.627-8.585-2.451-7.138 2.3a34.419 34.419 0 0 0 3.118 6.895 39.17 39.17 0 0 0 -13.5 30.176c2.2 29.9 4.092 68.969-35.071 103.037-2.776 2.053-1.056 6.816 2.347 6.674 2.256-.021 3.781-2.2 5.463-3.451a451.209 451.209 0 0 1 -4.058 52.065c-2.163 13.878 7.3 23.665 16.758 32.566-18.249 19.639-24.8 35.923-25.7 50.464-10.2 2.2-18.085-.907-23.92-9.474 12.762 1.244 23.41-7 25.47-21.419 2.36-13.565-1.373-26.835-11.094-39.438-.915-1-17.368-21.5-1.251-49.263 3.138-2.5.325-7.762-3.544-6.451-6.526 1.975-19.265 1.788-22.075-12.174 23.847 7.045 31.3-17.851 27.936-38.357-1.706-9.738 2.974-20.992 13.179-31.687a60.873 60.873 0 0 0 16.577-41.8c.133-20.418 7.958-48.986 30.153-52.457-1.286 2.538-1.59 5.963 1.714 7a3.752 3.752 0 0 0 4.656-2.538c2.76-11.103 18.501-11.705 27.48-8.241zm-41.939-33.724a31.094 31.094 0 0 0 5.911 2.742c-5.283 5.134-10.832 14.748-12.574 32.65a37.829 37.829 0 0 0 -6.41 5.366c-45.875-11.951-78.435 4.555-91.729 13.449.742-21.614 10.867-41.863 15.933-45.881 39.353-31.868 75.059-16.602 88.869-8.326zm-118.485 21.201a39.613 39.613 0 0 0 14.225-2.666c-4 8.9-7.745 21.934-8.383 40.093-44.544 3.98-84.272 41.639-100.111 82.23-6.648-28.341-.251-51.247.192-51.2 25.672-59.446 69.957-68.408 94.077-68.457zm-115.14 94.454a60.41 60.41 0 0 0 10.544-9.42c-1.066 11.148.977 31.377 5.447 46.014-35.3 33.621-41.052 65.415-38.767 99.237-13.231-17.287-16.111-28.186-16.224-28.608-15.954-58.335 17.588-92.217 39-107.223zm-51.1 152.057a100.078 100.078 0 0 0 12.173-26.6 153 153 0 0 0 17.871 24.381c-15.757 41.809-11.51 64.658-.29 89.571-34.499-22.109-48.685-60.191-29.754-87.352z"/><path d="m337.393 143.156c-.126.107 5.848-.758 5.961-.741a3.75 3.75 0 1 0 -.964-7.437l-5.475.709c-4.595.642-4.127 7.432.478 7.469z"/><path d="m194.83 318.411a3.749 3.749 0 0 0 .295 5.3l1.531 1.364a3.751 3.751 0 0 0 5.294-.318c2.109-2.656.458-4.905-1.825-6.636a3.751 3.751 0 0 0 -5.295.29z"/><path d="m407.42 205.059c5.38-.092 5.379-8.094 0-8.185-5.379.092-5.378 8.094 0 8.185z"/></g></svg>