<svg id="Filloutline_expand" enable-background="new 0 0 479.046 504" height="512" viewBox="0 0 479.046 504" width="512" xmlns="http://www.w3.org/2000/svg"><g><g><path d="m235.804 336.44-30.62 25.18c-11.539.166-14.27 5.925-6.6 16.75 21.726 28.144 69.007 33.473 75.72 17.42 19.91 5.19 24.314-1.067 15.72-16.92-17.93-20.39-37.18-33.76-54.22-42.43z" fill="#655f68"/><path d="m166.704 361.62-30.44-25.95c-25.76 11.69-58.03 32.39-82.62 68.38v.01c-5.365 15.471 8.624 21.349 25.13 25.98l10.026 23.114 26.164 5.346c29.894 9.708 52.888-6.013 62.09-72.55 6.098-12.89 1.867-21.99-10.35-24.33z" fill="#655f68"/><path d="m329.094 147.6c-16.67-18.01-12.87-59.76-26.28-79.48-13.4-19.7-38.81-23.35-38.81-23.35 14.26-1.94 23.92-10.11 31.08-21.64-32.08 6.79-77.2-19.13-107.46-19.13-30.2 0-41.68 24.99-41.68 24.99s-21.17-10.55-42.17.93c-21.01 11.48-32.38 52.86-55.92 67.14 10.17 2.24 19.59.75 28.45-3.51-.57.6-18.62 19.78-22.27 42.16-3.7 22.74 8.02 49.81 2.45 71.05 6.06-1.7 10.92-4.97 14.93-9.38l.01-.01 226.17-6.1c9.44-15.34 11.93-32.38 5.63-51.59 7.67 6.43 16.36 8.78 25.87 7.92z" fill="#ad6a6a"/><path d="m297.594 191.27c4.66 7.24 5.81 17.48 2.25 27.23-4.68 12.82-15.96 20.7-26.75 19.4h-.01c-18.052-18.787-18.405-39.216 11.1-55.98 1.21.23 2.35.54 3.53 1.02 4.12 1.65 7.47 4.59 9.88 8.33z" fill="#fec4b9"/><path d="m98.804 237.9c-10.8 1.3-22.08-6.58-26.76-19.4-2.65-7.25-2.69-14.76-.63-21.12l.01-.01c2.15-6.61 6.58-11.96 12.75-14.43 1.18-.48 2.32-.79 3.53-1.02 26.527 14.138 26.634 34.972 11.1 55.98z" fill="#fec4b9"/><path d="m251.794 271.52c-17.719-4.601-34.067 1.789-41.85 26.39v.01c-12.449 3.558-13.514 8.13 0 14l22.4 14.11c4.75-5.97 7.46-13.21 7.42-22.19 5.59 6.39 13.64 9.72 23.56 10.71-8.11-11.88-11.96-26.21-11.53-43.03z" fill="#a35757"/><path d="m161.944 297.92v-.01c-1.425-28.745-20.182-32.55-41.85-26.39.43 16.82-3.42 31.15-11.53 43.03 9.92-.99 17.97-4.32 23.56-10.71-.04 8.98 2.67 16.22 7.42 22.19l22.4-14.11c13.784-4.91 15.399-9.605 0-14z" fill="#a35757"/><path d="m428.534 316.75-14.36 15.46-19.883-6.18-15.636-12.967-7.841-21.143 14.36-15.45 32.189 7.038z" fill="#c3ddda"/><path d="m58.264 500h-48.79c5.49-6.52 12.41-13.2 20.66-17.74 1.991-1.067 3.141-.286 3.77 1.64 20.066-2.405 26.664 3.951 24.36 16.1z" fill="#e0ac69"/><path d="m366.144 443.1c.9 19.61.08 38.61-2.72 56.9h-28.18c-21.471-7.427-33.497-33.85-16.85-51.23 3.7-20.938 34.163-25.252 47.75-5.67z" fill="#fec4b9"/><path d="m270.874 164.63c-3.96-12.42-1.52-27.73-11.2-42.42 1.1 7.53.53 15.13-1.73 21.86-5.31-15.64-28.03-22.56-46.12-33.6-12.11-7.4-21.06-18.28-25.88-27.89 8.31 19.7 7.03 37.04-3.46 52.13 0 0 1.69-16.06-3.4-25.47-4.88-9.01-12.59-11.14-18.04-18.81-5.44-7.67-5.46-24.6-5.46-24.6s-3.11 20.78-10.41 32.37c-7.69 12.2-21.21 18.82-22.62 32.22-8.2-5.69-12.83-14.89-14.47-27.03-2.58 33.6-9.16 60.14-20.38 78.53 2.09 21.42 5.97 41.13 11.1 55.98 2.17 6.29 4.57 11.71 7.15 16.02 3.31 5.51 8.13 11.63 14.14 17.6 10.78 10.72 25.38 20.97 41.85 26.39v.01 14c-6.467 17.689-5.526 34.346 4.76 49.7 2.18 7.59 6.41 16.69 10.35 24.33l21.53-7.58c2.66-5.66 5.11-11.56 6.6-16.75 11.107-12.234 13.65-28.365 4.76-49.7v-14-.01c16.47-5.42 31.07-15.67 41.85-26.39 6.01-5.97 10.83-12.09 14.14-17.6 2.58-4.31 4.98-9.73 7.15-16.02 5.13-14.85 9.01-34.56 11.1-55.98 0 0-9.34-4.87-13.31-17.29z" fill="#ffd7d2"/><path d="m207.474 198.3c1.64 5.81-1.76 11.87-7.57 13.52-4.61 1.31-9.31 1.97-13.96 1.97-4.66 0-9.35-.66-13.96-1.97-5.82-1.65-9.21-7.72-7.56-13.54 1.32-4.7 5.66-7.98 10.55-7.98 1.01 0 2.02.14 3 .42 2.64.75 5.32 1.12 7.97 1.12 2.64 0 5.33-.38 7.98-1.13.97-.27 1.97-.41 2.98-.41 4.9 0 9.24 3.29 10.57 8z" fill="#f48ca7"/><path d="m232.344 326.03c1.48 2.88 2.6 6.54 3.46 10.41 2.57 11.63 2.7 25.18 2.7 25.18-11.59-2.71-22.7-2.71-33.32 0 4.76-16.55 4.76-49.7 4.76-49.7s14.75 1.83 21.53 12.59c.3.48.59.99.87 1.52z" fill="#6fceae"/><path d="m139.544 326.03c.28-.53.57-1.04.87-1.52 6.78-10.76 21.53-12.59 21.53-12.59s0 33.15 4.76 49.7c-10.62-2.71-21.73-2.71-33.32 0 0 0 .14-14.16 2.88-25.95.83-3.59 1.9-6.95 3.28-9.64z" fill="#6fceae"/><path d="m318.394 448.77c3.407-5.478 1.818-8.399-4.03-9.14l-40.06-43.84c-.58-.31-41.77-21.89-75.72-17.42-6.46.85-12.65 2.64-18.26 5.7-1.12.61-2.21 1.24-3.27 1.88-32.1 19.32-33.7 48.3-53.52 66.56-2.48 2.29-5.36 4.26-8.57 5.99 12.197 19.27 30.231 32.652 52.76 41.5 34.099-14.483 67.557-15.09 100.29 0h67.23c0-10.5-10.79-37.1-16.85-51.23z" fill="#e0ac69"/><path d="m397.5 321.906-.716-5.849-8.59-7.984-6.247-.172.386-5.275-11.52-10.707-80.79 86.95-15.72 16.92-31.91 34.34 14.45 13.43 14.46 13.43 14.45 13.43 28.61-30.79c0-.01 0-.01 0-.01 15.617-6.084 26.703-16.165 30.43-32.74l55.3-59.52 14.08-15.15-11.529-10.707z" fill="#604533"/><path d="m252.004 463.27c-2.47-2.3-5.12-4.3-7.89-6.01-19.94-12.28-46.43-9.21-62.98 8.61-8.97 9.66-13.41 21.91-13.41 34.13h31.22l6.383-2.097 4.538 2.097h16.01l5.628-1.365 5.293 1.365h31.219c0-10.32-3.17-20.61-9.45-29.31-1.891-2.64-4.081-5.12-6.561-7.42z" fill="#604533"/><path d="m167.724 500h-109.46l-24.36-16.1s-11.297-27.733 1.723-44.303c13.02-16.56 43.147-9.557 43.147-9.557l14.01 11.02 22.18 17.44z" fill="#ffd7d2"/><path d="m63.214 409.94 15.56 20.1s-19.65 0-32.67 16.56c-13.02 16.57-12.2 37.3-12.2 37.3l-3.77-1.64-16.36-7.09c-5.39-2.33-9.06-7.42-9.55-13.26-.77-8.97.08-22.79 8.99-36.13 9.2-13.75 23.89-19.35 33.81-21.62 2.22-.5 4.47-.53 6.62-.1 3.73.72 7.16 2.76 9.57 5.88z" fill="#6fceae"/><path d="m464.154 285.43c-2.49 4.24-5.66 8.86-9.53 13.03s-8.26 7.68-12.31 10.46c-7.45 5.13-13.78 7.83-13.78 7.83l-21.68-20.14-21.68-20.14s2.23-6.52 6.8-14.33c2.48-4.24 5.65-8.87 9.52-13.04 3.88-4.17 8.26-7.67 12.31-10.45 7.45-5.13 13.78-7.83 13.78-7.83l43.36 40.28s-2.23 6.52-6.79 14.33z" fill="#a35757"/><path d="m209.944 297.92v14s0 .74-.02 2.06c-27.67 11.46-47.98-3.79-47.98-3.79v-12.27c7.66 2.52 15.72 4 24 4s16.34-1.48 24-4z" fill="#fec4b9"/><path d="m94.943 413.795-2.159 27.265-14.01-11.02c3.404-5.064 4.837-12.533 5.432-17.35.333-2.701 2.634-4.72 5.355-4.72 3.149 0 5.63 2.685 5.382 5.825z" fill="#5d5560"/><path d="m369.844 321.95c2.16.21 4.27 1.11 5.97 2.7l9.87 9.23 14.41 13.48.6.56c2.08 1.95 3.54 4.47 4.19 7.25 1.88 7.99 5.59 24.96 5 31.67-.79 8.9-24.62 45.7-43.74 56.26-18.89 10.43-47.75 5.67-47.75 5.67-2.3-5.34-3.92-8.9-4.03-9.14 0-.01 0-.01 0-.01l30.43-32.74-14.41-13.48-10.07-9.42c-1.62-1.52-2.64-3.44-3.03-5.47-.6-3.09.24-6.41 2.55-8.88 2-2.14 4.7-3.22 7.42-3.22 2.49 0 4.98.91 6.94 2.74-4.1-3.83-4.31-10.26-.48-14.35 2-2.14 4.7-3.22 7.42-3.22 2.48 0 4.97.91 6.93 2.74-2.14-2-3.22-4.71-3.22-7.42 0-2.49.91-4.98 2.74-6.94 3.83-4.09 10.26-4.31 14.36-.48-2.14-2-3.22-4.7-3.22-7.41 0-2.49.91-4.98 2.74-6.94 2.24-2.39 5.36-3.46 8.38-3.18z" fill="#ffd7d2"/></g><g fill="#3a322b"><path d="m218.981 143.977c.104-.017 10.551-1.726 17.776 3.365.7.493 1.504.73 2.3.73 1.257 0 2.495-.591 3.273-1.696 1.272-1.806.84-4.302-.966-5.574-9.981-7.031-23.203-4.802-23.762-4.705-2.172.383-3.618 2.45-3.241 4.622s2.447 3.632 4.62 3.258z"/><path d="m132.851 148.072c.796 0 1.6-.237 2.3-.73 7.2-5.073 17.595-3.395 17.774-3.365 2.18.377 4.242-1.074 4.625-3.247.384-2.176-1.069-4.25-3.245-4.634-.558-.097-13.78-2.327-23.762 4.705-1.806 1.272-2.238 3.768-.966 5.574.779 1.106 2.016 1.697 3.274 1.697z"/><path d="m170.891 215.667c4.965 1.408 10.028 2.121 15.052 2.121 5.019 0 10.081-.713 15.048-2.12 7.94-2.251 12.573-10.534 10.33-18.453-1.803-6.427-7.729-10.917-14.413-10.917-1.381 0-2.752.19-4.07.565-4.592 1.299-9.21 1.296-13.763.008-1.335-.382-2.716-.576-4.104-.576-6.666 0-12.588 4.481-14.399 10.895-2.248 7.94 2.382 16.229 10.319 18.477zm-2.622-16.3c.844-2.986 3.599-5.071 6.701-5.071.644 0 1.283.09 1.913.27 5.992 1.696 12.116 1.697 18.136-.005.612-.174 1.247-.262 1.889-.262 3.112 0 5.872 2.087 6.713 5.087 1.044 3.686-1.114 7.538-4.811 8.586-8.518 2.411-17.231 2.411-25.737-.001-3.696-1.047-5.851-4.906-4.804-8.604z"/><path d="m145.944 161.917c-8.583 0-15.566 6.983-15.566 15.566 0 2.209 1.791 4 4 4s4-1.791 4-4c0-4.172 3.395-7.566 7.566-7.566s7.566 3.394 7.566 7.566c0 2.209 1.791 4 4 4s4-1.791 4-4c0-8.583-6.983-15.566-15.566-15.566z"/><path d="m214.377 181.484c2.209 0 4-1.791 4-4 0-4.172 3.395-7.566 7.566-7.566s7.566 3.394 7.566 7.566c0 2.209 1.791 4 4 4s4-1.791 4-4c0-8.583-6.983-15.566-15.566-15.566s-15.566 6.983-15.566 15.566c0 2.209 1.791 4 4 4z"/><path d="m477.769 292.623-8.587-7.979c3.61-6.673 5.417-11.87 5.546-12.246.512-1.494.096-3.15-1.062-4.227l-43.355-40.284c-1.157-1.075-2.838-1.37-4.293-.749-.365.156-5.416 2.34-11.806 6.43l-8.587-7.979c-1.619-1.504-4.149-1.41-5.653.208-1.503 1.618-1.41 4.149.208 5.653l7.343 6.823c-3.035 2.347-6.114 5.052-8.954 8.109-2.84 3.056-5.313 6.325-7.43 9.523l-7.342-6.821c-1.619-1.504-4.149-1.411-5.653.208-1.503 1.618-1.41 4.149.208 5.653l8.587 7.979c-2.859 5.285-4.589 9.646-5.248 11.416l-91.615 98.601c-14.905-16.208-31.981-29.372-50.824-39.204-.635-2.557-1.395-5.004-2.301-7.204 3.054-4.382 5.095-9.247 6.094-14.549 5.339 3.562 11.993 5.758 19.881 6.55 1.549.146 3.045-.602 3.839-1.938.794-1.337.741-3.013-.136-4.298-7.355-10.778-10.994-23.966-10.849-39.208 5.853-5.98 10.487-11.953 13.584-17.116 2.312-3.854 4.488-8.554 6.499-13.96 11.65-.235 22.967-9.073 27.738-22.138 3.648-9.992 2.83-20.502-1.398-28.56 7.671-13.42 10.149-27.799 7.381-42.892 6.034 2.749 12.682 3.809 19.867 3.16 1.518-.137 2.826-1.125 3.373-2.548s.238-3.033-.797-4.152c-8.19-8.854-11.149-25.009-14.011-40.633-2.573-14.054-5.235-28.586-11.893-38.376-7.748-11.395-19.051-17.765-27.917-21.229 7.939-3.902 14.639-10.329 20.276-19.405.845-1.361.797-3.096-.124-4.408-.92-1.312-2.53-1.949-4.103-1.616-17.379 3.679-39.44-2.989-60.771-9.437-16.638-5.029-32.354-9.78-45.861-9.78-25.771 0-38.896 16.592-43.44 23.932-7.309-2.667-24.751-7.125-42.327 2.479-11.281 6.163-19.468 19.368-28.136 33.349-8.271 13.342-16.824 27.139-27.944 33.882-1.398.848-2.14 2.462-1.872 4.076.269 1.613 1.491 2.901 3.089 3.252 6.017 1.319 12 1.468 17.901.452-5.737 8.17-12.628 20.282-14.806 33.643-1.854 11.378-.081 23.573 1.633 35.366 1.863 12.817 3.622 24.923.896 35.316-.364 1.387.043 2.863 1.065 3.868.758.746 1.77 1.147 2.804 1.147.361 0 .725-.049 1.082-.149 2.981-.838 5.785-2.063 8.411-3.632.007 4.238.745 8.614 2.309 12.896 4.771 13.067 16.086 21.904 27.738 22.139 2.011 5.406 4.186 10.105 6.499 13.959 3.098 5.163 7.731 11.136 13.584 17.116.145 15.242-3.494 28.431-10.848 39.209-.877 1.285-.93 2.961-.135 4.298.794 1.336 2.297 2.083 3.838 1.938 7.888-.792 14.542-2.988 19.881-6.55 1 5.302 3.04 10.167 6.094 14.549-.799 1.938-1.484 4.068-2.069 6.296-23.645 10.99-56.121 31.352-81.13 66.973-1.856-.109-3.741.037-5.604.463-11.131 2.545-26.454 8.652-36.243 23.296-9.497 14.207-10.493 28.879-9.657 38.686.623 7.315 5.2 13.675 11.944 16.597l9.489 4.111c-5.232 3.804-10.342 8.633-15.253 14.471-1.001 1.19-1.222 2.854-.564 4.264.656 1.41 2.07 2.312 3.626 2.312h353.946c1.975 0 3.654-1.441 3.954-3.394 2.654-17.306 3.599-35.901 2.849-55.291 19.473-12.374 42.75-48.088 43.639-58.127.599-6.756-2.435-21.639-5.084-32.935-.59-2.514-1.699-4.846-3.24-6.884l25.366-27.3c1.718-.787 5.939-2.832 11-6.071l8.588 7.979c.771.716 1.747 1.069 2.722 1.069 1.073 0 2.144-.429 2.932-1.277 1.503-1.618 1.41-4.149-.208-5.653l-7.342-6.821c3.035-2.347 6.114-5.053 8.954-8.109s5.312-6.325 7.429-9.523l7.342 6.822c.771.716 1.747 1.069 2.722 1.069 1.073 0 2.144-.429 2.932-1.277 1.501-1.623 1.408-4.154-.21-5.658zm-92.386-10.504 37.495 34.838-8.917 9.597-37.495-34.839zm5.944 51.567 8.598-9.254 8.591 7.982-8.625 9.283zm-36.579-.923c-3.697.067-7.363 1.56-10.083 4.467-2.721 2.909-3.967 6.67-3.786 10.365-3.699.065-7.369 1.559-10.089 4.467-2.719 2.907-3.965 6.666-3.786 10.359-.075.001-.149-.006-.224-.004-3.778.126-7.282 1.716-9.864 4.478-2.583 2.761-3.937 6.362-3.811 10.142.001.031.006.061.008.092l-56.473 60.779-8.591-7.983 122.972-132.349 8.591 7.982-11.516 12.394c-3.516.194-6.966 1.677-9.556 4.446-2.583 2.761-3.937 6.363-3.811 10.142.003.075.016.148.019.223zm-23.92 163.237h-58.98c-.665-8.871-3.503-17.432-8.204-24.895l7.863-8.463 11.521 10.705c.741.688 1.714 1.069 2.723 1.069.049 0 .098-.001.146-.003 1.061-.039 2.062-.497 2.784-1.274l24.495-26.362c5.901 13.476 15.552 37.145 17.652 49.223zm-253.34-61.886 78.683 61.886h-96.706l-21.536-14.238c.201-5.333 1.657-20.391 11.322-32.688 9.776-12.436 23.933-14.59 28.237-14.96zm66.313-107.476c3.54-5.624 9.908-8.414 14.203-9.718.172 8.579.836 26.351 3.388 39.545-7.71-1.214-15.685-1.15-23.833.231.49-8.924 2.107-23.489 6.242-30.058zm22.143-14.554c.003-.056.004-.111.004-.167v-8.657c6.422 1.683 13.112 2.656 19.996 2.656 6.885 0 13.575-.973 19.997-2.656v8.657c0 .048.001.096.003.144-.009 2.382-.211 33.183-4.601 48.45-1.137 3.958-2.982 8.736-5.483 14.214-6.005.997-11.794 2.806-17.13 5.67-3.865-7.818-6.677-14.639-8.185-19.885-4.376-15.218-4.59-45.873-4.601-48.426zm68.386 44.611c-8.149-1.38-16.123-1.445-23.833-.231 2.551-13.194 3.215-30.965 3.387-39.544 4.297 1.305 10.664 4.094 14.204 9.717 4.134 6.57 5.751 21.135 6.242 30.058zm-52.088 30.888c27.376-14.958 71.085 2.812 85.454 9.444l-28.23 30.383c-1.503 1.618-1.41 4.149.208 5.653l11.521 10.705-7.846 8.444c-8.348-4.469-17.76-6.68-27.465-6.32-14.453.53-27.834 6.658-37.679 17.253-7.551 8.127-12.354 18.24-13.917 29.062l-42.346-33.307c1.563-1.094 3.002-2.245 4.304-3.445 8.45-7.79 13.594-17.09 19.04-26.936 8.084-14.613 16.443-29.725 36.956-40.936zm72.484 72.752c-1.446-1.343-2.956-2.59-4.514-3.755l6.844-7.365 8.591 7.982-6.848 7.37c-1.277-1.477-2.632-2.893-4.073-4.232zm-70.659 8.256c14.032-15.103 35.897-18.67 53.607-10.27l-35.01 37.679h-30.759c.879-10.213 5.116-19.825 12.162-27.409zm60.656-6.103c1.575 1.129 3.102 2.356 4.558 3.709 1.443 1.341 2.78 2.777 4.028 4.279l-23.717 25.524h-16.008zm13.252 14.719c3.258 5.742 5.268 12.158 5.852 18.793h-23.313zm27.568-12.443-8.59-7.982 53.63-57.72 8.564 8.011zm-14.451-13.428-8.591-7.982 53.774-57.874c.405.496.832.977 1.308 1.422l7.157 6.695zm114.381-140.332 8.591 7.982-8.58 9.234-6.937-6.489c-.555-.519-1.148-.968-1.758-1.381zm-100.865 67.821-11.186 12.039c-9.296-4.527-39.905-18.195-68.42-17.061 1.349-3.19 2.464-6.138 3.331-8.815 9.307-2.012 19.138-1.841 29.261.523.301.07.605.104.909.104.9 0 1.785-.305 2.502-.879.957-.768 1.51-1.933 1.498-3.16-.006-.607-.111-8.631-1.357-17.704 15.994 9.118 30.572 20.844 43.462 34.953zm-41.833-77.615c-1.099-1.257-2.862-1.699-4.427-1.107-1.562.591-2.592 2.091-2.584 3.761.027 5.634-1.136 10.603-3.52 15.063-5.723-6.395-13.747-9.171-18.304-10.291v-7.87c12.973-4.738 24.581-12.243 34.046-20.37.715 10.505 3.204 20.08 7.456 28.609-5.304-1.577-9.485-4.157-12.667-7.795zm53.31-84.078c-3.217 8.812-10.085 15.129-17.436 16.586 3.921-12.905 7.019-28.768 8.987-46.396 9.08 4.715 12.884 17.667 8.449 29.81zm-234.4-16.873c1.01-9.948-.539-20.604-2.047-30.98-1.627-11.193-3.31-22.768-1.653-32.929 3.455-21.204 21.045-39.858 21.221-40.042 1.336-1.397 1.481-3.551.344-5.116-1.137-1.564-3.229-2.091-4.972-1.252-5.433 2.618-10.837 3.995-16.339 4.147 8.63-8.094 15.544-19.245 22.281-30.113 8.096-13.058 15.742-25.392 25.171-30.544 18.839-10.292 38.284-.954 38.47-.862.969.481 2.09.551 3.113.192 1.021-.36 1.853-1.118 2.305-2.102.103-.226 10.729-22.658 38.044-22.658 12.325 0 27.491 4.584 43.548 9.438 18.767 5.673 38.055 11.507 55.276 10.767-6.325 7.293-13.779 11.351-22.978 12.602-1.975.269-3.447 1.95-3.458 3.943s1.45 3.689 3.422 3.979c.237.035 23.867 3.691 36.075 21.644 5.708 8.395 8.103 21.473 10.639 35.319 2.476 13.52 5.021 27.411 11.048 37.818-5.693-.734-10.779-3.017-15.405-6.894-1.368-1.146-3.332-1.248-4.813-.246-1.479 1.002-2.114 2.863-1.557 4.56 5.104 15.542 4.283 29.763-2.5 43.308-2.219-2.128-4.803-3.846-7.721-5.016-1.146-.459-2.297-.806-3.558-1.084-1.677-1.029-7.975-5.409-10.953-14.728-1.304-4.08-1.876-8.666-2.482-13.522-1.149-9.212-2.452-19.653-9.192-29.884-1.03-1.565-3.013-2.203-4.762-1.538-1.752.667-2.807 2.46-2.536 4.314.514 3.533.631 7.043.358 10.437-6.483-7.371-16.648-12.595-27.238-18.037-5.007-2.573-10.184-5.233-14.926-8.13-10.134-6.189-19.251-16.008-24.391-26.265-.967-1.929-3.289-2.745-5.251-1.841-1.96.904-2.85 3.2-2.011 5.188 5.237 12.407 6.483 23.636 3.721 33.967-.605-3.753-1.645-7.559-3.379-10.763-3.086-5.703-7.218-9.032-10.863-11.969-2.735-2.204-5.32-4.287-7.427-7.254-3.85-5.424-4.717-17.931-4.726-22.291-.002-2.093-1.617-3.83-3.704-3.984-2.114-.168-3.941 1.327-4.252 3.396-.03.2-3.075 20.102-9.836 30.826-2.666 4.229-6.226 7.869-9.669 11.39-4.59 4.693-9.297 9.506-11.819 15.691-4.36-4.858-7.078-11.554-8.261-20.291-.275-2.027-2.06-3.507-4.08-3.462-2.045.06-3.716 1.652-3.872 3.692-2.51 32.725-8.902 58.042-18.983 75.336-.83.226-1.627.487-2.42.805-6.967 2.793-12.063 8.678-14.694 15.943-1.947 2.065-4.034 3.766-6.308 5.095zm14.118 16.873c-4.435-12.144-.63-25.096 8.448-29.811 1.969 17.629 5.066 33.492 8.988 46.398-7.346-1.456-14.22-7.774-17.436-16.587zm16.014-34.325c8.733-14.835 14.863-35.029 18.275-60.243 2.631 4.54 6.03 8.264 10.183 11.145 1.163.805 2.661.938 3.947.35 1.285-.589 2.163-1.813 2.312-3.218.732-6.98 5.634-11.992 11.31-17.795 3.735-3.819 7.598-7.769 10.717-12.716 2.519-3.995 4.553-8.931 6.154-13.79.802 2.287 1.809 4.426 3.072 6.207 2.748 3.872 5.892 6.404 8.932 8.854 3.355 2.703 6.524 5.257 8.847 9.547 4.432 8.187 2.959 22.996 2.943 23.142-.19 1.816.873 3.53 2.584 4.167s3.637.034 4.679-1.466c7.368-10.598 10.499-22.255 9.383-34.826 4.376 4.505 9.319 8.498 14.587 11.715 4.994 3.05 10.304 5.779 15.439 8.418 13.173 6.77 25.615 13.164 28.974 23.061.551 1.623 2.074 2.714 3.788 2.714h.007c1.716-.003 3.239-1.1 3.785-2.727.435-1.295.813-2.621 1.135-3.97.611 3.186 1.008 6.365 1.399 9.505.653 5.235 1.271 10.18 2.8 14.967 3.179 9.943 9.45 15.61 12.888 18.095-3.09 29.509-9.567 54.777-17.451 67.916-10.685 17.807-40.918 46.058-76.561 46.058s-65.876-28.251-76.561-46.058c-7.985-13.309-14.526-39.058-17.567-69.052zm37.297 118.403c-3.182 3.638-7.363 6.218-12.668 7.795 4.251-8.529 6.74-18.104 7.455-28.609 9.464 8.127 21.073 15.633 34.047 20.37v7.869c-4.557 1.12-12.58 3.896-18.304 10.292-2.383-4.46-3.547-9.429-3.52-15.063.008-1.67-1.022-3.17-2.584-3.761-1.564-.592-3.327-.15-4.426 1.107zm1.799 41.442c-1.41 9.563-1.523 18.29-1.529 18.924-.012 1.228.541 2.393 1.498 3.16.717.574 1.602.879 2.502.879.304 0 .608-.034.909-.104 10.125-2.365 19.957-2.535 29.262-.523 1.774 5.483 4.552 12.029 8.289 19.529-17.897 11.832-26.174 26.779-33.559 40.132-5.124 9.263-9.964 18.013-17.462 24.926-1.576 1.453-3.425 2.829-5.514 4.111l-18.367-14.447 2.448-30.956c.175-2.202-1.47-4.129-3.672-4.303-2.209-.184-4.129 1.471-4.303 3.672l-2.028 25.645-7.751-6.096-15.256-19.709c-1.766-2.28-3.978-4.103-6.448-5.405 21.917-30.208 49.408-48.65 70.981-59.435zm-122.707 118.914c-.728-8.532.129-21.28 8.337-33.561 8.329-12.458 21.659-17.721 31.375-19.942 4.539-1.037 9.301.663 12.137 4.326l11.26 14.544c-7.552 1.541-19.346 5.739-28.352 17.197-9.463 12.039-12.1 25.956-12.813 33.78l-14.789-6.408c-4.041-1.75-6.782-5.557-7.155-9.936zm22.184 25.167 1.601.693 12.968 8.574h-26.344c3.863-3.777 7.801-6.877 11.775-9.267zm329.575 9.267h-21.063c-1.594-10.928-8.619-29.253-14.136-42.487 2.582.204 5.703.364 9.164.364 8.511 0 19.037-.975 28.432-4.627.449 16.314-.349 32.003-2.397 46.75zm45.931-109.517c-.664 7.497-23.924 43.305-41.683 53.112-14.661 8.097-36.327 6.318-43.028 5.518-.818-1.876-1.528-3.479-2.081-4.716l25.396-27.333c.306.684.53 1.405.658 2.146l2.338 13.499c.337 1.946 2.027 3.318 3.937 3.318.227 0 .457-.02.688-.06 2.177-.377 3.636-2.447 3.259-4.624l-2.338-13.499c-.63-3.637-2.462-7.03-5.159-9.555l-24.834-23.231c-1.2-1.123-1.892-2.646-1.947-4.29s.534-3.209 1.657-4.41c2.317-2.478 6.221-2.609 8.699-.29l23.392 21.882c2.441 2.284 4.104 5.218 4.81 8.485l2.257 10.454c.405 1.875 2.063 3.157 3.906 3.157.279 0 .563-.029.848-.091 2.16-.467 3.532-2.595 3.066-4.754l-2.257-10.455c-1.051-4.867-3.528-9.237-7.165-12.639l-23.392-21.882c-1.2-1.123-1.892-2.646-1.946-4.29s.533-3.209 1.656-4.41c2.318-2.477 6.224-2.607 8.7-.29l23.143 21.65c2.583 2.416 4.31 5.528 4.991 9.001l1.797 9.163c.374 1.908 2.047 3.231 3.921 3.231.255 0 .514-.024.773-.076 2.168-.425 3.581-2.526 3.155-4.694l-1.797-9.164c-1.007-5.133-3.558-9.733-7.376-13.304l-23.143-21.649c-1.2-1.123-1.892-2.646-1.946-4.29s.533-3.209 1.656-4.41c2.319-2.478 6.222-2.607 8.7-.29l22.973 21.49c2.636 2.466 4.43 5.781 5.052 9.336l1.319 7.529c.382 2.176 2.456 3.622 4.631 3.25 2.176-.382 3.631-2.455 3.25-4.631l-1.319-7.529c-.921-5.253-3.572-10.153-7.468-13.797l-22.973-21.49c-1.2-1.123-1.892-2.646-1.946-4.29s.533-3.209 1.656-4.41c2.319-2.478 6.223-2.608 8.7-.29l24.874 23.27c1.515 1.417 2.564 3.228 3.035 5.237 3.454 14.723 5.287 26.089 4.905 30.405zm45.795-90.743c-7.801 8.397-17.936 14-22.42 16.235l-39.389-36.597c1.901-4.638 6.746-15.156 14.547-23.551 7.797-8.393 17.933-13.998 22.42-16.236l39.389 36.599c-1.904 4.641-6.75 15.16-14.547 23.55z"/></g></g></svg>