<svg id="icons" height="512" viewBox="0 0 500 500" width="512" xmlns="http://www.w3.org/2000/svg" xmlns:xlink="http://www.w3.org/1999/xlink"><linearGradient id="linear-gradient" gradientUnits="userSpaceOnUse" x1="55.909" x2="189.676" y1="47.272" y2="210.056"><stop offset="0" stop-color="#f0d385"/><stop offset=".996" stop-color="#ff3c61"/></linearGradient><linearGradient id="linear-gradient-2" gradientUnits="userSpaceOnUse" x1="263.069" x2="263.069" y1="190.562" y2="440.168"><stop offset="0" stop-color="#ffd3d1"/><stop offset="1" stop-color="#f59f9b"/></linearGradient><linearGradient id="linear-gradient-3" x1="249.529" x2="249.529" xlink:href="#linear-gradient-2" y1="201.965" y2="389.509"/><linearGradient id="linear-gradient-4" gradientUnits="userSpaceOnUse" x1="212.878" x2="270.107" y1="78.011" y2="169.371"><stop offset="0" stop-color="#ffcd94"/><stop offset="1" stop-color="#ff9668"/></linearGradient><linearGradient id="linear-gradient-5" gradientUnits="userSpaceOnUse" x1="241.146" x2="300.593" y1="78.624" y2="477.311"><stop offset="0" stop-color="#ef7554"/><stop offset="1" stop-color="#dd6049"/></linearGradient><linearGradient id="linear-gradient-6" x1="249.544" x2="249.544" xlink:href="#linear-gradient-2" y1="174.496" y2="109.279"/><linearGradient id="linear-gradient-7" gradientUnits="userSpaceOnUse" x1="208.482" x2="299.718" y1="207.267" y2="289.616"><stop offset="0" stop-color="#fff"/><stop offset="1" stop-color="#ced9ff"/></linearGradient><linearGradient id="linear-gradient-8" x1="125.853" x2="259.196" xlink:href="#linear-gradient" y1="-9.331" y2="152.936"/><linearGradient id="linear-gradient-9" x1="-26.752" x2="106.085" xlink:href="#linear-gradient" y1="116.582" y2="278.233"/><linearGradient id="linear-gradient-10" x1="-51.751" x2="81.949" xlink:href="#linear-gradient" y1="135.742" y2="298.443"/><linearGradient id="linear-gradient-11" x1="46.385" x2="179.59" xlink:href="#linear-gradient" y1="56.094" y2="218.192"/><linearGradient id="linear-gradient-12" x1="233.434" x2="299.921" xlink:href="#linear-gradient-7" y1="418.87" y2="474.223"/><linearGradient id="linear-gradient-13" gradientUnits="userSpaceOnUse" x1="190.241" x2="292.26" y1="402.763" y2="454.275"><stop offset="0" stop-color="#7a89b9"/><stop offset="1" stop-color="#a6b4e7"/></linearGradient><linearGradient id="linear-gradient-14" x1="135.342" x2="142.711" xlink:href="#linear-gradient-7" y1="211.564" y2="373.143"/><linearGradient id="linear-gradient-15" x1="170.401" x2="139.86" xlink:href="#linear-gradient-13" y1="421.614" y2="273.568"/><linearGradient id="linear-gradient-16" x1="151.838" x2="182.883" xlink:href="#linear-gradient-7" y1="260.094" y2="464.78"/><linearGradient id="linear-gradient-17" x1="204.499" x2="173.957" xlink:href="#linear-gradient-13" y1="414.58" y2="266.534"/><linearGradient id="linear-gradient-18" x1="319.734" x2="230.314" xlink:href="#linear-gradient-13" y1="287.591" y2="208.497"/><linearGradient id="linear-gradient-19" x1="312.366" x2="222.906" xlink:href="#linear-gradient-13" y1="295.926" y2="216.797"/><linearGradient id="linear-gradient-20" gradientUnits="userSpaceOnUse" x1="165.693" x2="185.329" y1="214.091" y2="253.019"><stop offset="0" stop-color="#ffca8c"/><stop offset="1" stop-color="#ff9668"/></linearGradient><linearGradient id="linear-gradient-21" x1="155.459" x2="210.114" xlink:href="#linear-gradient-5" y1="99.281" y2="465.828"/><linearGradient id="linear-gradient-22" gradientTransform="matrix(.294 .956 -.956 .294 581.505 -175.389)" x1="373.654" x2="428.741" xlink:href="#linear-gradient-5" y1="65.674" y2="435.115"/><linearGradient id="linear-gradient-23" x1="375.191" x2="438.836" xlink:href="#linear-gradient-20" y1="284.16" y2="475.095"/><linearGradient id="linear-gradient-24" x1="339.516" x2="394.611" xlink:href="#linear-gradient-5" y1="70.713" y2="440.214"/><linearGradient id="linear-gradient-25" x1="427.121" x2="447.979" xlink:href="#linear-gradient-2" y1="425.344" y2="446.402"/><path d="m258.7 188.434c-3.544 114.726-170.058 114.7-173.586 0 3.546-114.725 170.06-114.698 173.586 0z" fill="url(#linear-gradient)"/><path d="m345.768 320.186s15.332 23.254 2.215 54.914c0 0 13.235-2.735 28.107 13.343s50.645 27.468 50.645 27.468l-23.313 21.969-67.122-22.911s-50.02-37.377 9.468-94.783z" fill="#e07a86"/><path d="m321.438 231.81s36.287 14.524 26.02 76.494c-9.83 59.326-37.962 42.934-46.741 56.874a45.223 45.223 0 0 0 -3.282 6.086c-2.24 2.421-3.4 5.965-3.287 10.849-.207.325-2.792 26.014-2.959 27.329 0 0-66.82 37.22-109.465 7.977l-4.874-157.991z" fill="url(#linear-gradient-2)"/><path d="m347.458 308.3a116.251 116.251 0 0 0 1.357-30.582l-15.677-11.143c-2.741 12.1-.95 20.3 1.172 25.191a8.789 8.789 0 0 1 -2.316 10.122 114.406 114.406 0 0 0 -15.983 17.766l2.451 18.4 28.558-27.243c.149-.811.296-1.651.438-2.511z" fill="#e07a86"/><path d="m326.285 234.4-7.73-2.3-141.62 27.051 4.874 157.992c34.371 25.655 98.908 16.351 107.222 13.4l2.213-21.091c-32.438 10.33-61.147 1.591-81.888-9.886a23.941 23.941 0 0 1 -11.906-16.518 344.121 344.121 0 0 1 -5.664-77.263 7.859 7.859 0 0 1 12.545-5.961c22.175 16.4 72.019 42.929 112.3-10.84 7.7-10.534 17.16-27.5 30.725-9.02l1.934-1.9c-2.229-26.837-15.89-38.545-23.005-43.664z" fill="#e07a86"/><path d="m233.382 190.243c-.075 9.7-.677 21.357-2.785 29.2 0 0 .535 9.08 18.932 17.334 18.4-8.254 18.931-17.334 18.931-17.334a94.678 94.678 0 0 1 -2.441-18.026c-8.151-7.387-19.597-10.35-32.637-11.174z" fill="url(#linear-gradient-3)"/><path d="m266.02 201.415a285.046 285.046 0 0 1 .032-28.608h-33.046s.465 8 .37 17.928c8.538 5.557 19.684 10.447 32.644 10.68z" fill="#e07a86"/><path d="m224.675 73.217s-22.114 2.5-18.92 27.942c0 0-20.886 8.981-7.126 29.688 0 0 10.32 11.975 5.9 19.21-3.182 5.205-10.181 3.436-13.857 2.034a1.375 1.375 0 0 0 -1.825 1.636c5.606 21.808 31.154 14.032 35.831 2.317l47.422-8.482s3.686 17.962 21.868 15.966c14.507-1.592 19.317-11.76 20.419-19.227a1.374 1.374 0 0 0 -2.387-1.113c-1.948 2.239-4.954 4.584-8.9 4.38a9.7 9.7 0 0 1 -8.689-7.624 32.3 32.3 0 0 1 -.194-12.34s7.863-25.2-5.406-39.168c0 0 0-23.95-30.468-19.959-.006 0-18.189-12.977-33.668 4.74z" fill="url(#linear-gradient-4)"/><path d="m312 143.188c-1.948 2.239-4.954 4.584-8.9 4.38a9.7 9.7 0 0 1 -8.689-7.624 32.3 32.3 0 0 1 -.194-12.34s.239-.773.561-2.1c-3.026-.252-5.971-2.231-8.168-7.441-7.15-16.959-16.969-27.007-39.913-25.095s-35.371 11.95-36.088 31.548c-.318 8.667-4.515 10.692-9.1 10.26 2.67 4.134 5.841 10.668 3.021 15.281-3.182 5.206-10.181 3.436-13.857 2.034a1.375 1.375 0 0 0 -1.825 1.636c5.606 21.808 31.154 14.032 35.831 2.317l47.422-8.482s3.686 17.962 21.868 15.966c14.507-1.592 19.317-11.76 20.419-19.227a1.374 1.374 0 0 0 -2.388-1.113z" fill="url(#linear-gradient-5)"/><path d="m264.685 107.842c-16.14-3.573-45.753-3.619-45.08 19.174l2.247 32.567a26.005 26.005 0 0 0 12.653 20.309c6.85 3.709 12.721 7.932 20.07 5 11.2-4.184 21.972-12.336 22.63-25.314l2.247-32.567c.61-8.832-5.545-16.898-14.767-19.169z" fill="url(#linear-gradient-6)"/><path d="m177.533 219.046c6.15-12.146 15.247-18.992 26.482-22a7.666 7.666 0 0 1 9.082 4.712l1.65 4.3c5.985-2.227 11.591-4.59 16.475 1.234 9.879 13.49 28.913 19.726 43.575 6.136 0 0 13.809.492 18.953 3.671 30.035 18.563 21.782 68.789-17.52 81.136-12.967 4.073-23.976 5.277-36.5 0-41.09-17.313-62.197-79.189-62.197-79.189z" fill="url(#linear-gradient-7)"/><path d="m176.863 24.408c-5.221 2.686-21.619 12.736-12.4 24.6 3.895 4.96 8.44 13.332 4.07 21.942 0 0 9.721-1.419 14.685-14.02a11.677 11.677 0 0 0 -3.358-13.069c-4.017-3.685-7.899-10.089-2.997-19.453z" fill="url(#linear-gradient-8)"/><path d="m8.865 192.406c2.686-5.221 12.736-21.619 24.6-12.4 4.96 3.9 13.332 8.44 21.942 4.07 0 0-1.419 9.721-14.02 14.685a11.677 11.677 0 0 1 -13.069-3.358c-3.685-4.017-10.089-7.903-19.453-2.997z" fill="url(#linear-gradient-9)"/><path d="m59.715 307.227c-1.791-5.591-6.28-24.293 8.63-26.16 6.261-.753 15.395-3.459 18.393-12.637 0 0 5.87 7.877.47 20.3a11.677 11.677 0 0 1 -11.616 6.867c-5.448-.242-12.721 1.542-15.877 11.63z" fill="url(#linear-gradient-10)"/><path d="m54.1 75.258c5.592-1.791 24.293-6.28 26.16 8.63.753 6.261 3.459 15.395 12.638 18.393 0 0-7.878 5.87-20.3.47a11.678 11.678 0 0 1 -6.867-11.616c.239-5.448-1.545-12.721-11.631-15.877z" fill="url(#linear-gradient-11)"/><path d="m286.524 418.178c-24.544 12.477-51.771 10.136-72.46 4.9q-1.624-.411-3.195-.845s-4.8 1.727-.884 15.648 17.872 21.731 17.872 21.731c24.669 8.328 51.27 11.491 68.731 12.687 9.55-9.941 5.934-48.84-10.064-54.121z" fill="url(#linear-gradient-12)"/><path d="m303.706 442.171a46.334 46.334 0 0 0 -1.588-19.219c-2-6.859-10.029-8.713-15.6-4.781a22.886 22.886 0 0 1 5.987 16.375c-10.273 2.756-47.029 10.969-79.125-2.429a92.148 92.148 0 0 1 -2.515-9.886 153.315 153.315 0 0 1 -30.155-11.676l.771 21.592c11.633 12.679 28.5 21.423 46.373 27.459a79.431 79.431 0 0 1 -12.108-20.834c11.022 4.988 45 18.445 79.438 12.5 4.449 9.154 3.521 16.2 1.4 21.023 11.825.81 19.459.718 19.459.718 3.086-26.601-12.337-30.842-12.337-30.842z" fill="url(#linear-gradient-13)"/><path d="m145.9 246.64c-12.226 19.63-30.511 57.217-40.91 118.387 0 0 8.666 27.605 42.981 43.738l26.129-166.347z" fill="url(#linear-gradient-14)"/><path d="m171.637 258.079-18.217-8.8s-28.957 76.339-22.82 148.943a94 94 0 0 0 17.371 10.543z" fill="url(#linear-gradient-15)"/><path d="m164.376 236.775s-27.963 99.518-16.491 199.036c0 0 15.057 30.832 54.851 39.8 0 0-23.556-115.992-17.87-199.53z" fill="url(#linear-gradient-16)"/><path d="m184.867 276.076c1.042-15.309 3.066-29.53 6.4-41.746l-23.275 2.116-8.992-7.135s-5.422 5.374-13.1 17.329c3.309 9.892 12.655 24.36 38.967 29.436z" fill="url(#linear-gradient-17)"/><path d="m297.435 224.1c-18.569 31.054-53.886 41.4-76.127-2.846a2.649 2.649 0 0 0 -4.945 1.759c3.195 15.9 12.545 37.838 39.68 42.088 34.462 5.4 50.8-30.769 50.8-30.769z" fill="url(#linear-gradient-18)"/><path d="m328.047 232.691c-1.04-10.923-13.337-17.893-22.993-13.149a75.161 75.161 0 0 0 -12.467-11.784 10.268 10.268 0 0 0 -14.188 1.795 35.4 35.4 0 0 1 -3.346 3.629c16.374 3.407 36.81 24.386 21.883 47.345-14.088 21.029-42.187 27.236-64.376 15.057-12.831-7.042-27.363-20.194-41.544-44.061l-13.327-12.772-.127.047c-6.02 49.424 34.727 73.157 60.18 83.044a59.846 59.846 0 0 0 39.572 1.4c50.038-15.701 52.709-53.617 50.733-70.551z" fill="url(#linear-gradient-19)"/><path d="m195.139 233.061c-.812 26.274-38.946 26.268-39.754 0 .815-26.273 38.946-26.267 39.754 0z" fill="url(#linear-gradient-20)"/><path d="m185.745 232.093c-.428 13.857-20.54 13.854-20.966 0 .428-13.856 20.54-13.853 20.966 0z" fill="url(#linear-gradient-21)"/><path d="m402.229 260.84h14.505v90.218h-14.505z" fill="url(#linear-gradient-22)" transform="matrix(.294 -.956 .956 .294 -3.345 607.37)"/><path d="m486.874 301.185c-6.812-8.962-17.567-5.378-17.567-5.378-30.115 7.171-28.12 62.539-28.12 62.539-9.321 85.684-73.7 60.071-73.7 60.071-30.531-12.735-44.619-57.018-19.8-85.265 27.059-30.791 26.646-45.841 25.614-53.635-1.573-11.875-8.343-19.919-17.649-19.919s-16.85 9.711-16.85 21.69c0 7.229 2.3 12.522 7.307 14.738a1.438 1.438 0 0 1 .392 2.415c-37.7 29.645-57.659 68.575-34.462 115.274 46.531 65.507 146.11 45.81 150.932-42.182.179-21.432-3.108-42.763 6.328-51.347 10.69 18.123 30.627-3.433 17.575-19.001z" fill="url(#linear-gradient-23)"/><path d="m422.342 446.381c33.419-17.873 39.934-49.973 40.636-74.848-13.2 84.48-101.624 98.422-150.926 42.179 19.805 40.088 67.148 55.359 110.29 32.669z" fill="url(#linear-gradient-24)"/><path d="m458.661 423.662-11.276-9.968c-5.72-5.028-14.1-.072-13.437 7.254 0 0-9.538-1.009-9.225 10.014 0 0-9.432.536-10.041 7.966a9.515 9.515 0 0 0 2.022 6.481l9.6 12.633c5.715 2.7 11.384 5.594 21.47-10.222 10.388-7.972 13.885-16.027 10.887-24.158z" fill="url(#linear-gradient-25)"/><path d="m464.6 431.731h-.015c.128-3.472-3.655-6.007-5.922-8.065-.52 6.263-5.843 13-11.383 8.3l-7.19-7.191a2.51 2.51 0 0 0 -3.328-.264 2.414 2.414 0 0 0 -.185 3.581l8.047 8.047a5.316 5.316 0 1 1 -7.9 7.088l-6.306-7.9a2.509 2.509 0 0 0 -3.277-.633 2.414 2.414 0 0 0 -.582 3.539l6.766 8.471c4.088 5.115-3.246 10.978-7.015 11.335l2.471 3.253c4.194 5.477 12.682 2.323 12.768-4.4 0 0 11.62 1.325 13.4-12.912 0 0 9.537-1.806 9.649-11.9l.006-.014c-.014-.114-.004-.222-.004-.335z" fill="#e07a86"/><g fill="#2b2a3a"><path d="m165.492 73.138c1.949 3.9 15.185.082 21.219-14.834 2.368-6.01.715-12.6-4.314-17.21-4.565-4.18-5.288-9.07-2.211-14.947 1.736-3.064-1.876-6.774-4.987-5.1a47.122 47.122 0 0 0 -13.313 10.278 15.456 15.456 0 0 0 -.368 20c3.54 4.508 7.051 11.279 3.675 17.929a3.75 3.75 0 0 0 .299 3.884zm2.1-36.949a29.283 29.283 0 0 1 3.213-3.189c.038 5.037 2.232 9.694 6.527 13.627 6.339 5.169.635 13.959-3.272 17.346.1-5.625-2.137-11.542-6.644-17.281a7.932 7.932 0 0 1 .178-10.503z"/><path d="m10.6 195.728c13.961-7.073 14.115 7.866 26.628 7.588a15.034 15.034 0 0 0 5.529-1.062c14.456-5.695 16.285-17.147 16.356-17.632a3.776 3.776 0 0 0 -5.408-3.886c-6.652 3.377-13.42-.135-17.929-3.675a15.455 15.455 0 0 0 -20 .367 47.152 47.152 0 0 0 -10.276 13.313c-1.658 3.109 2.029 6.727 5.1 4.987zm10.042-12.591a7.931 7.931 0 0 1 10.5-.178c5.738 4.506 11.665 6.733 17.279 6.644-3.4 3.913-12.169 9.609-17.344 3.271-3.934-4.294-8.59-6.488-13.627-6.526a29.46 29.46 0 0 1 3.196-3.211z"/><path d="m54.016 291.745a47.116 47.116 0 0 0 2.146 16.681 3.767 3.767 0 0 0 7.132-.079c1.98-6.332 5.945-9.29 12.134-9.006 6.812.288 12.644-3.195 15.219-9.119 6.195-14.249-.609-23.64-.9-24.033a3.776 3.776 0 0 0 -6.572 1.076c-2.316 7.091-9.586 9.394-15.276 10.079a15.459 15.459 0 0 0 -13.883 14.401zm31.692-14.474c.335 5.215-1.756 15.362-9.951 14.577-5.82-.25-10.662 1.486-14.25 5.02-.723-5.492.912-11.429 7.285-12.078 7.244-.871 13.013-3.47 16.916-7.519z"/><path d="m95.136 105.288a3.776 3.776 0 0 0 -1.077-6.572c-7.089-2.316-9.393-9.586-10.078-15.276-2.568-17.871-22.55-14.548-31.081-11.735-3.372 1.023-3.326 6.187.08 7.133 6.331 1.98 9.277 5.949 9.005 12.133-.3 6.812 3.2 12.643 9.119 15.219 8.889 4.31 19.733 2.499 24.032-.902zm-25.658-13.988c.255-5.818-1.487-10.662-5.021-14.25 5.492-.722 11.429.912 12.078 7.285.871 7.244 3.47 13.013 7.52 16.916-5.221.336-15.35-1.751-14.577-9.951z"/><path d="m468.31 292.19c-8.59 2.084-14.8 7.51-19.289 14.412l-71.645-22.04c.7-18.147-13.476-34.714-29.675-26.737a57.4 57.4 0 0 0 -15.784-23.734c-.419-12.805-13.7-22.655-26-18.73a80.875 80.875 0 0 0 -11.47-10.471 14.046 14.046 0 0 0 -19.536 2.464 30.839 30.839 0 0 1 -4.159 4.285c-1.438-10.147-1.424-23.046-1.249-30.623a30 30 0 0 0 10.676-16.337 23.53 23.53 0 0 0 14.2 2.577c20.423-2.242 24.61-19.426 23.97-28.2a3.753 3.753 0 0 0 -7.121-1.349c-.031.064-3.18 6.355-7.936 6.116a5.98 5.98 0 0 1 -5.239-4.762 28.674 28.674 0 0 1 -.167-10.641c.911-3.094 7.3-26.738-5.422-41.531-1.421-15.11-14.674-24.779-33.2-22.3-7.674-4.757-23.414-8.823-36.5 5.157-12.251 2.363-22.482 13.316-20.976 29.288a29.1 29.1 0 0 0 -3.747 2.7c-105.222-29.016-163.728 113.745-68.491 166.738a341.7 341.7 0 0 0 -29.33 97.513c.358 1.1 9.058 26.876 41.756 43.7.654 9.164.865 18.636 2.539 27.771.647 1.325 16.32 32.555 57.4 41.807a3.777 3.777 0 0 0 4.5-4.405c-.069-.339-1.733-8.639-4.041-22.169 43.342 23.486 102.751 24.013 113.72 24.076a3.75 3.75 0 0 0 3.679-3.318c2.585-22.3-6.942-30.712-12.056-33.575.427-9.876-.382-25.781-13.014-27.421.614-4.424 2.676-29.477 3.948-33.238 3.827 60.593 62.45 99.115 118.993 73.625l8.151 10.725c4.843 6.859 16.447 4.993 18.8-3 5.072-.686 11.578-4.067 13.656-13.673 7.33-2.237 14.886-14.9 6.45-22.89l-8.111-7.17c11.767-23.354 10.51-49.792 9.747-65.728-.933-10.836 1.167-21.418 2.984-24.462 8.472 8.45 22.449 2.886 24.938-9.121 1.634-6.47.195-12.554-4.4-18.6-7.897-10.393-19.837-7.247-21.549-6.729zm-30.88 66.01c-2.588 23.453-9.59 40.219-20.827 50-3.83-1.531-8.665-3.594-13.732-6.09l7.086-23.745a3.75 3.75 0 0 0 -7.188-2.144l-6.669 22.339a98.109 98.109 0 0 1 -9.832-6.229l22.232-75.172 10.9 3.351-6.419 21.49a3.75 3.75 0 0 0 7.187 2.144l6.4-21.431 14.139 4.349a128.448 128.448 0 0 0 -3.277 31.138zm-65.818-52.389 12.484 3.84-20.286 64.818a33.586 33.586 0 0 0 -10.431-3.1 66.932 66.932 0 0 0 1.06-40.33c8.261-9.909 13.69-18.202 17.173-25.228zm29.72 9.143-21.324 72.114a66.5 66.5 0 0 0 -9.571-8.662l20.828-66.549zm-52.872 23.188a61.052 61.052 0 0 1 -3.941 35.52 3.8 3.8 0 0 0 4.18 5.117c.316-.058 5.5-.9 12.852 2.908l-7.282 23.269c-17.369-16.691-21.154-47.918-5.809-66.814zm19.6 47.866c3.219 2.486 6.224 6.29 9.579 9.077l-6.127 20.715c-4.775-1.448-7.143-2.967-11.031-5.58zm15.965 13.928a114.22 114.22 0 0 0 9.882 5.993l-3.657 12.254a58.393 58.393 0 0 1 -11.4-.737zm16.67 9.475c2.91 1.4 5.8 2.7 8.576 3.885a40.757 40.757 0 0 1 -10.905 3.919zm44.661-96.09a67.841 67.841 0 0 0 -2.575 6.536l-52.86-16.257-15.321-4.717a49.417 49.417 0 0 0 1.937-6.733zm-103.856-50.478c-7.955 8.758-9.713 28.068 1.977 34.783-8.7 7.11-18.62 14.177-25.35 23.736a74.6 74.6 0 0 0 2.073-15.262 3.75 3.75 0 1 0 -7.494-.291c-.386 9.93-2.436 18.18-6.093 24.519a16.492 16.492 0 0 1 -14.02 8.08c-5.771.095-14.724.227-24.606.326a4.311 4.311 0 0 1 -3.454-1.634 4.525 4.525 0 0 1 -.863-3.889 75.321 75.321 0 0 0 1.359-22.6c46.172-5.546 67.557-42.8 67.05-65.547a53.829 53.829 0 0 1 9.421 17.779zm-37.81 82.548a72.372 72.372 0 0 0 -3.857 13.437c-1.626 3.164-3.979 6.828-5.416 10.035-5.956-10.75-17.36-16.091-23.98-17.557a3.75 3.75 0 0 0 -1.631 7.321c.807.183 19.61 4.66 21.782 22.385-.259.255-3.365 31.2-3.557 32.694-32.134 17.663-70.392 7.721-90.683-.232-3.213-23.46-6.306-51.271-7.746-79.058a32.3 32.3 0 0 0 22.337 11.337c5.954.41 24.748.554 30.383.588 4.9-.079 4.945-7.386.023-7.5-28.633-.652-43.016 3.5-53.35-19.314-.44-15.234-.29-30.216.7-44.222 17.837 20.059 45.757 34.882 68.837 35.578a68.225 68.225 0 0 1 -1.158 20.608 11.976 11.976 0 0 0 2.307 10.291 11.8 11.8 0 0 0 9.384 4.447c9.9-.1 18.873-.232 24.655-.327a24.335 24.335 0 0 0 12.305-3.587c-.498 1.059-.947 2.085-1.34 3.076zm-144.555-112.329a16.145 16.145 0 0 1 16.127-16.127c21.344.757 21.339 31.5 0 32.253a16.145 16.145 0 0 1 -16.127-16.126zm121.629-21.023a6.667 6.667 0 0 1 9.159-1.166 72.276 72.276 0 0 1 11.441 10.688c1.991 8.092.639 14.718-2.539 23.918a3.751 3.751 0 0 0 7.09 2.449c3.256-9.43 4.869-16.923 3.276-25.644 7.066-1.6 14.466 4.072 15.128 11.253 1.759 15.09.537 51.855-48.669 67.314a57 57 0 0 1 -37.583-1.327c-15.22-5.9-35.971-16.853-48.387-35.276.523-4.894 1.2-9.624 1.957-14.179a23.722 23.722 0 0 0 3.773-4.683c15.2 21.352 54.2 58.714 89.334 33.938 4.028-2.826-.056-8.905-4.2-6.215-33.63 24.248-72.729-21.945-81.975-36.2a23.735 23.735 0 0 0 -13.179-25.185 35.921 35.921 0 0 1 18.194-11.046 4.029 4.029 0 0 1 4.715 2.487c2.907 6.153 13.047 41.6 42.237 50.821 21.084 6.03 32.864-7.065 37.067-18.1 1.955-4.525-4.7-7.556-6.826-3.106-3.12 6.818-8.419 19.042-28.355 13.947-18.255-4.744-30.133-29.116-34.02-38.3 3.092-1.378 6.5-1.567 8.786 1.317 13.172 17.903 38.232 21.736 53.576 2.295zm-24.672 5.519c-8.376.44-15.087-4.016-19.868-8.9a214.274 214.274 0 0 0 .906-23.025c9.334 5.244 15.472 5.239 24.8 0-.082 9.644.268 21.22 1.905 30.218a23.912 23.912 0 0 1 -7.743 1.707zm6.506-40.866c-4.639 2.4-10.936 7.177-16.682 4.739-10.24-3.911-19.672-10.7-20.322-22.106l-2.248-32.567c-.307-14.3 13.971-16.975 26.183-16.837 12.2-.135 26.491 2.528 26.182 16.837l-2.247 32.567a22.371 22.371 0 0 1 -10.864 17.367zm28.162-35.864c1.766 7.984 10.648 12.74 17.868 9.478-3.239 8.216-19.349 13.638-27.431 5.914l2-28.946c1.077-12.723-9.973-23.145-22.774-24.056 4.12-10.52 13.448-16.383 26.238-11.549 10.739 12.331 4.039 34.594 3.97 34.817a35.655 35.655 0 0 0 .129 14.342zm-38.26-71.256a25.047 25.047 0 0 0 -4.263 10.8c-.59 4.881 6.663 5.908 7.43 1.022a17.967 17.967 0 0 1 4.405-9.343c11.695-1.244 20.434 1.7 23.888 11.075-15.9-3.788-27.588 7.411-31.29 19.375a73.626 73.626 0 0 0 -10.837.307c.456-15.983-6.928-25.506-11.57-29.885 8.514-7.423 17.398-5.417 22.237-3.351zm-39.52 14.265a19.714 19.714 0 0 1 10.805-6.637c3.094 2.476 11.468 10.732 10.481 26.833a23.487 23.487 0 0 0 -7.356 2.866 31.774 31.774 0 0 0 -17.678-9.248c-.232-5.658 1.011-10.303 3.747-13.814zm-6.357 21.073c1.987.081 8.2.846 14.5 6.832a21.516 21.516 0 0 0 -5.263 15.532l2.174 31.508c-6.494 6.738-20.129 7.12-24.036-1.807 5.023.929 10.555.222 13.724-4.962 5.486-8.975-4.291-21.283-6.093-23.423-7.346-10.622-3.489-19.266 4.993-23.68zm-117.758 83.524c-.744-53.444 52.393-94.412 103.859-80.4-4.316 7.864-3.046 15.963 2.782 24.889 2.841 3.363 8.117 11.3 5.821 15.179-2.451 4.008-11.186-.321-11.265-.362a3.75 3.75 0 0 0 -5.482 3.711c1.7 16.139 17.956 26.065 35.025 15.678a30.179 30.179 0 0 0 9.952 13.888c.137 5.878.151 13.429-.3 20.769-4.064-2.514-9.216-2.263-13.591-.354-6.759-18.319-31.068-1.922-38.179 8.112a23.677 23.677 0 0 0 -25.837 22.791c-5.2 5.9-10.963 14.835-18.749 29.431a82.528 82.528 0 0 1 -44.036-73.332zm18.794 176.041c12.021-67.516 34.038-105.8 45.8-122.32a23.663 23.663 0 0 0 4.077 6.5c-6.129 26.253-18.017 86.631-15.919 152.305-23.807-13.649-32.331-32.396-33.958-36.485zm43.871 70.211c-8.423-74.272 5.153-148.333 12.507-180.839a23.766 23.766 0 0 0 19.2 1.452c-2.793 19.672-3.406 42.6-2.682 65.59 1.945 63.111 13.655 129.768 17.375 149.591-30.687-9.121-44.344-32.046-46.4-35.794zm161.084 34.554c-14.765-.257-74.388-2.772-111.844-26.17-.952-5.874-1.964-12.392-2.988-19.425 16.218 11.532 63.675 29.335 105.468 22.355 2.31 1.022 10.388 5.856 9.364 23.24zm-14.092-45.228a42.912 42.912 0 0 1 1.732 14.817 155.344 155.344 0 0 1 -73.062-9.257c19.467 2.974 42.133 2.206 62.91-9.037a5.882 5.882 0 0 1 8.42 3.477zm162.326 8.014a8.305 8.305 0 0 1 -6.6 8.271 3.749 3.749 0 0 0 -3.026 3.22c-1.233 9.867-7.961 9.771-9.255 9.651-2.974-.3-4.214 2.222-4.421 4.786a3.258 3.258 0 0 1 -5.785 1.071l-12.072-15.887c-2.9-3.759-.546-7.4 3.388-8.117l7.5 10.021a3.75 3.75 0 1 0 6-4.5l-8.1-10.813c.069-2.863 1.455-4.712 3.892-4.989l10.943 11.55a3.75 3.75 0 0 0 5.445-5.158l-10.962-11.57a4.288 4.288 0 0 1 7.1-3.064l14.832 13.112a3.2 3.2 0 0 1 1.121 2.416zm26.14-116.345c-1.978 7.53-8.627 9.86-12.886 5.05 3.92-3.414 7.153-2.341 6.3-7.2-2.2-5.1-7.909-1.923-13.672 3.921-2.185 1-9.759 12.946-7.881 34 .706 14.774 1.858 39.021-8.089 60.214-6.464-6.94-18.568-3.6-20.245 5.792a11.744 11.744 0 0 0 -9.371 10.312c-8.107 1.731-13.457 10.463-8.131 18.885-79.5 33.324-141.382-64.933-85.272-125.31 6.661-8.2 18.787-15.258 25.3-22.6 9.917-11.961 6.15-21.682 2.759-25.122a3.783 3.783 0 0 0 -5.329-.075 3.72 3.72 0 0 0 -.073 5.277c.465.515 4.077 4.974-1.606 13.128-3.988-1.756-6.234-5.528-6.234-10.67.475-22.706 24.264-24.379 27.03-1.278.71 5.358 2.6 19.593-24.712 50.667-11.921 13.565-16.33 31.846-12.094 50.155 4.291 18.549 17.037 34.277 33.32 41.069 37 13.41 74.021-6.387 78.81-63.15.217-1.229-1.875-52.394 25.261-59.3.772-.2 8.338-2.75 13.713 4 3.214 4.234 4.169 8.005 3.102 12.235z"/><path d="m242.818 140.414-7.563-1.952a3.75 3.75 0 0 0 -1.874 7.262c.512.1 8.225 2.231 8.5 2.072 4.319.004 5.17-6.274.937-7.382z"/><path d="m263.8 138.462-7.563 1.952a3.75 3.75 0 1 0 1.875 7.262l7.563-1.952c4.752-1.312 2.925-8.413-1.875-7.262z"/><path d="m219.264 322.857h-3.471c-4.929.083-4.93 7.417 0 7.5h3.471c4.928-.083 4.929-7.417 0-7.5z"/><path d="m291.554 322.857h-3.471a3.75 3.75 0 0 0 0 7.5h3.471c4.929-.083 4.93-7.417 0-7.5z"/><path d="m231.665 352.694a3.751 3.751 0 0 0 -4.316-3.083c-21.1 3.516-28.481 22.123-28.785 22.914-1.681 4.6 5.1 7.264 7 2.7.247-.628 6.24-15.423 23.023-18.22a3.75 3.75 0 0 0 3.078-4.311z"/><path d="m250.726 355.333c-3-3.852-8.81.467-6.023 4.469 2.153 3.148 4.66 10.04.552 23.976a22.187 22.187 0 0 1 -18.813-.827c-4.238-2.484-8.061 3.75-3.914 6.4 3.243 2.338 14.748 5.443 23.407 2.156 1.25 3.967 1.973 10.225-1.654 18.683-1.869 4.535 4.838 7.48 6.889 2.967 4.517-10.488 3.552-18.731 1.947-23.8a10.831 10.831 0 0 1 -.012-6.564c5.338-16.893-2.062-27.037-2.379-27.46z"/><path d="m258.781 384.5c-2.094 4.994 4.448 6.924 12.384 7.3 3.484-.105 14.146-1.058 11.7-7.3a3.749 3.749 0 0 0 -5.021-1.708c-6.8 3.348-13.9.066-14.06-.008a3.748 3.748 0 0 0 -5.003 1.716z"/><path d="m293.91 266.393c5.38-.091 5.379-8.094 0-8.185-5.379.092-5.378 8.092 0 8.185z"/><path d="m411.843 355.611c-5.38.092-5.379 8.094 0 8.185 5.379-.096 5.378-8.096 0-8.185z"/></g></svg>