<svg id="icons" height="512" viewBox="0 0 500 500" width="512" xmlns="http://www.w3.org/2000/svg" xmlns:xlink="http://www.w3.org/1999/xlink"><linearGradient id="linear-gradient" gradientUnits="userSpaceOnUse" x1="172.232" x2="161.675" y1="271.669" y2="413.128"><stop offset="0" stop-color="#bbccf7"/><stop offset="1" stop-color="#a1b0dd"/></linearGradient><linearGradient id="linear-gradient-2" gradientUnits="userSpaceOnUse" x1="415.693" x2="105.52" y1="16.969" y2="150.731"><stop offset="0" stop-color="#b3c5ff"/><stop offset="1" stop-color="#688afc"/></linearGradient><linearGradient id="linear-gradient-3" gradientUnits="userSpaceOnUse" x1="387.27" x2="77.097" y1="-48.94" y2="84.822"><stop offset="0" stop-color="#7d8fe0"/><stop offset="1" stop-color="#3254d3"/></linearGradient><linearGradient id="linear-gradient-4" x1="455.644" x2="145.472" xlink:href="#linear-gradient-3" y1="109.61" y2="243.372"/><linearGradient id="linear-gradient-5" gradientUnits="userSpaceOnUse" x1="323.843" x2="323.843" y1="164.77" y2="291.977"><stop offset="0" stop-color="#fff"/><stop offset="1" stop-color="#f0fcff"/></linearGradient><linearGradient id="linear-gradient-6" x1="318.951" x2="318.951" xlink:href="#linear-gradient" y1="182.952" y2="323.187"/><linearGradient id="linear-gradient-7" gradientUnits="userSpaceOnUse" x1="438.977" x2="416.868" y1="309.32" y2="443.314"><stop offset="0" stop-color="#ffd3d1"/><stop offset="1" stop-color="#f59f9b"/></linearGradient><linearGradient id="linear-gradient-8" x1="111.499" x2="217.819" xlink:href="#linear-gradient-7" y1="207.532" y2="370.301"/><linearGradient id="linear-gradient-9" gradientUnits="userSpaceOnUse" x1="279.7" x2="287.454" y1="465.61" y2="302.767"><stop offset="0" stop-color="#ffd3a8"/><stop offset="1" stop-color="#ffe0ca"/></linearGradient><linearGradient id="linear-gradient-10" gradientUnits="userSpaceOnUse" x1="394.767" x2="320.993" y1="253.745" y2="446.137"><stop offset="0" stop-color="#f99a82"/><stop offset="1" stop-color="#e78774"/></linearGradient><linearGradient id="linear-gradient-11" x1="423.812" x2="351.933" xlink:href="#linear-gradient-10" y1="266.14" y2="453.59"/><linearGradient id="linear-gradient-12" x1="276.083" x2="276.083" xlink:href="#linear-gradient-7" y1="176.982" y2="236.385"/><linearGradient id="linear-gradient-13" x1="366.91" x2="297.773" xlink:href="#linear-gradient-10" y1="247.583" y2="427.881"/><linearGradient id="linear-gradient-14" x1="109.426" x2="109.966" xlink:href="#linear-gradient-7" y1="148.535" y2="101.877"/><linearGradient id="linear-gradient-15" x1="113.856" x2="144.273" xlink:href="#linear-gradient-7" y1="165.89" y2="140.543"/><linearGradient id="linear-gradient-16" x1="273.12" x2="269.187" xlink:href="#linear-gradient-5" y1="227.375" y2="346.263"/><linearGradient id="linear-gradient-17" x1="304.59" x2="232.711" xlink:href="#linear-gradient-10" y1="220.424" y2="407.873"/><linearGradient id="linear-gradient-18" x1="391.534" x2="313.052" xlink:href="#linear-gradient-10" y1="253.514" y2="458.183"/><linearGradient id="linear-gradient-19" x1="383.093" x2="390.845" xlink:href="#linear-gradient-9" y1="470.455" y2="307.67"/><linearGradient id="linear-gradient-20" x1="389.502" x2="317.623" xlink:href="#linear-gradient-10" y1="252.984" y2="440.434"/><linearGradient id="linear-gradient-21" x1="373.754" x2="301.874" xlink:href="#linear-gradient-10" y1="246.945" y2="434.395"/><linearGradient id="linear-gradient-22" gradientUnits="userSpaceOnUse" x1="361.173" x2="387.968" y1="235.257" y2="269.4"><stop offset="0" stop-color="#ffe0a6"/><stop offset="1" stop-color="#ffae85"/></linearGradient><linearGradient id="linear-gradient-23" gradientTransform="matrix(.887 -.016 .119 .775 10.603 62.36)" gradientUnits="userSpaceOnUse" x1="362.072" x2="385.791" y1="245.377" y2="245.377"><stop offset="0" stop-color="#ef7554"/><stop offset="1" stop-color="#dd6049"/></linearGradient><linearGradient id="linear-gradient-24" x1="271.215" x2="271.215" xlink:href="#linear-gradient" y1="252.571" y2="382.22"/><linearGradient id="linear-gradient-25" x1="332.459" x2="268.225" xlink:href="#linear-gradient-10" y1="274.089" y2="441.6"/><path d="m218.1 341.689h-12.586l-60.2-7.789s-38.614 16.015-31.693 47.1c4.584 20.588 22.864 21.964 34.691 20.545 0 .006-1.711 45.4 63.216 39.277z" fill="url(#linear-gradient)"/><path d="m16.329 163.952c8.106-3.647 25.4-13.263 42.125-34.4a.894.894 0 0 1 1.583.717l-1.9 9.93a3.091 3.091 0 0 0 3.689 3.608c17.564-3.817 82.4-18.535 134.619-38.6 21.419-8.312 34.547-23.59 46.295-44.042 11.458-20.743 25.252-33.643 43.636-34.9a1.333 1.333 0 0 1 .545 2.588c-9.838 3.421-23.6 12.472-25.57 36.4a5.145 5.145 0 0 1 -1.651 3.355 110.314 110.314 0 0 0 -10.947 11.7 2.835 2.835 0 0 0 3.565 4.261c12.259-6.655 32.777-15.612 47.989-11.113a41.427 41.427 0 0 0 18.54 1.422c15.966-2.65 42.6-11.9 55.8-43.692a7.263 7.263 0 0 1 4.557-4.158 99.821 99.821 0 0 1 32.387-4.244 4.019 4.019 0 0 1 3.837 4c.075 3.4 2.255 7.517 7.55 11.415a.914.914 0 0 1 -.712 1.633c-8.711-1.611-26.3-3.08-37.55 8a16.838 16.838 0 0 0 -1.636 18.058 1.936 1.936 0 0 1 -2.028 2.768c-8.866-1.293-28.676-.951-34.859 25.977a2.891 2.891 0 0 1 -4.193 1.912c-9.4-5.108-37.543-17.055-76.311-3.283a5.48 5.48 0 0 0 -.857 9.951 21.676 21.676 0 0 0 4.02 1.708.845.845 0 0 1 -.134 1.641 351.047 351.047 0 0 1 -38.462 3.367 39.474 39.474 0 0 0 -18.827 5.345 74.733 74.733 0 0 0 -10.586 7.47 15.2 15.2 0 0 1 -7.031 3.309c-17.614 3.352-86.5 16.853-140.137 32.873a3.465 3.465 0 0 0 -1.663 5.567 11.8 11.8 0 0 0 4 2.935.881.881 0 0 1 -.259 1.67 112.365 112.365 0 0 1 -39.11-1.942 1.7 1.7 0 0 1 -.314-3.206z" fill="url(#linear-gradient-2)"/><path d="m152.372 81.171a69.9 69.9 0 0 0 20.573-18.7 3.983 3.983 0 0 0 -1.037-5.71c-5.053-3.192-12.845-10.232-5.479-20.4 8.22-11.352 18.157-6.321 28.318-5.928a1.621 1.621 0 0 0 .681-3.122c-4.634-1.876-10.386-5.162-13.5-10.584a4.876 4.876 0 0 0 -4.872-2.47c-4.972.68-14.3 3.2-23 12.395a20.04 20.04 0 0 0 -.633 26.9s7.128 10.6-3.189 25.3a1.618 1.618 0 0 0 2.138 2.319z" fill="url(#linear-gradient-3)"/><path d="m402.326 118.938c22.665 4.262 24.406-9.056 40.61-19.989a2.025 2.025 0 0 1 2.862 2.721c-3.791 6.239-7.856 16.04-5.836 27.455a4.1 4.1 0 0 1 -3.867 4.8l-22.15.915s-4.195-5.8-13.135-12.274a2.02 2.02 0 0 1 1.516-3.628z" fill="url(#linear-gradient-4)"/><path d="m280.879 127.77s-32.554-24.439-56.023 35.68c-4.2 10.938-14 19.129-25.681 20.575a12.337 12.337 0 0 0 -10.285 8.437c-1.445 4.768-1.532 14.994 10.475 16.4 0 0-19.14 15.344-13.938 52.042l253.073 32.196 23.615-29.256a32.726 32.726 0 0 0 -2.284-22.6c-9.725-20.439-32.714-20.584-46.12-18.683a34.325 34.325 0 0 1 -27.333-7.869c-4.622-3.574-8.248-9.1-6.916-15.179 1.872-16.276-3.3-26.858-24.039-24.868-16.4-1.818-26.971-15.735-30.748-31.413-3.836-21.742-22.887-32.211-43.796-15.462z" fill="url(#linear-gradient-5)"/><path d="m459.827 241.245c-9.725-20.439-32.714-20.584-46.12-18.683a34.328 34.328 0 0 1 -27.333-7.869c-3.263-2.523-6.02-6.023-6.9-10l-1.608.366c-45.72 20.62-57.57-14.077-57.57-14.077v.018c-6.521-31.889-16.536-38.174-30.916-41.945-4.33-1.135-6.708-6.648-7.936-11.035a1.509 1.509 0 0 0 -2.872-.112c-1.543 4.166-4.119 9.356-7.682 10.616-10.922 3.866-25.537 11.071-25.45 29.648-.444 17.8-4.855 36.028-22.124 40.312-15.064 3.736-23.956-9.622-23.956-9.622-15.143 5.837-27.618 25.394-23.984 48.834l263.124 38.186s18.9-13.288 23.6-32.026l.007-.01a32.726 32.726 0 0 0 -2.28-22.601z" fill="url(#linear-gradient-6)"/><path d="m385.917 262.743 58.317 25.857c18.458 16.207 29.154 43.625 33.812 66.413a34.253 34.253 0 0 0 6.21 13.04c2.485 3.3 4.83 8.857 3.734 17.623-2.093 16.747-15.072 18.841-15.072 18.841s-22.35 14.127-49.691 16.143a17.55 17.55 0 0 0 -14.684 10.683l-27.543 24.57s-19.229-87.73 4.917-193.17z" fill="url(#linear-gradient-7)"/><path d="m430.217 366.256a29.006 29.006 0 0 0 -9.532 3.51 2.687 2.687 0 0 1 -4.017-2.574 188.564 188.564 0 0 0 -3-51.326c-1.58-9.362-1.813-22.245 6.018-28.693 5.868-4.183 17.569-1.045 24.542 1.429-26.187-25.262-60.355-36.556-60.355-36.556-11.82 51.616-4.439 214.105-4.439 214.105l17.928-.573c9.153-.307 24.294-10.087 21.707-21.348a7.859 7.859 0 0 0 -10.882-4.519l-5.192 2.9c1.752-3.665 3.746-7.689 5.545-11.274-6.223.4-14.854-1.792-12.075-10.134a16.259 16.259 0 0 1 5.3-8.082 75.064 75.064 0 0 0 10.135-10.561 19.849 19.849 0 0 0 4.348-12.409 14.882 14.882 0 0 1 4.118-10.548 75.064 75.064 0 0 1 11.325-9.756 1.985 1.985 0 0 0 -1.474-3.591z" fill="#e07a86"/><path d="m246.788 222.787c-36.162 32.06-54.566.233-109.083 39.583l4.27-15.717a71.407 71.407 0 0 0 -4-32.494 87.283 87.283 0 0 1 -4.869-24.095c-.075-8.077-3.877-42.109-4.754-50.744l-41.366 12.74c-.029 11.3 5.035 21.277 15.48 25.175 0 0-30.562 60.187-26.819 128.794 0 0-14.7 12.04-5.738 29.569 3.375 6.6 11.732 8.028 11.732 8.028s10.7 1.22 18.142-1.426c49.139-17.478 145.889 25.311 145.889 25.311z" fill="url(#linear-gradient-8)"/><path d="m259.659 223.288-39.949 26.285s-23.663 25.146-10.172 52.385c0 0-11.323 14.431-2.173 28.762a4.225 4.225 0 0 1 -3.957 6.5c-10.874-1.138-27.958-5.523-37.464-21.237a3.462 3.462 0 0 0 -6.423 1.524 29.468 29.468 0 0 0 1.044 10.567 4.018 4.018 0 0 1 -4.362 5.23c-11.754-1.677-35.026-3.021-59.5 6.669a36.4 36.4 0 0 1 -15.06 3.645c16.336 3.868 29.051-2.769 44.385-2.1a204.7 204.7 0 0 1 35.037 2.816c27.224 5.2 38.2 29.689 41.986 56.446l151.606-61.175 11.283-84.973s-26.862-24.832-56.119-29.392z" fill="#e07a86"/><path d="m343.617 257.459c-20.075 31.3-70.055 97.964-153.015 138.758-12.35 7.823-2.67 20.9 10.357 25.57 4.685 9.339 3.361 19.523 3.361 19.523 2.06 7.477 5.358 15.883 10.618 22.872l18.533 9.383c5.662 1.854 12.666 3.923 20.643 5.828 14.487 2.568 38.377 7.287 53.127 6.468 0 0 90.15-22.323 76.291-235.385z" fill="url(#linear-gradient-9)"/><path d="m347.654 309.075c-6.361 28.929-18.9 56.491-36.989 82.825 0 0 48.156 3.981 68.541-16.4l1.5-78.157s-24.406-.932-33.052 11.732z" fill="url(#linear-gradient-10)"/><path d="m390.092 361.073c-12.544-1.069-27.568.5-30.382 3.4 0 0 .738 79.86-52.469 121.384 24.1-.172 49.707-5.13 72.2-19.7a955.13 955.13 0 0 0 10.651-105.084z" fill="url(#linear-gradient-11)"/><path d="m279.87 156.214c8.892.49 16.886 5.864 19.525 14.391a133.319 133.319 0 0 1 5.974 39.184s1.341 23.7-29.291 30.408c0 0-26.831-2.907-29.29-24.818 0 0 7.476-11.549 9.585-40.776.799-11.072 12.427-19.142 23.497-18.389z" fill="url(#linear-gradient-12)"/><path d="m363.941 265.224s-12.129 54.986-63.622 96.31c-3.27 2.624 1.805 5.617 9.339 2.6 26.951-10.787 84.142-66.811 54.283-98.91z" fill="url(#linear-gradient-13)"/><path d="m109.251 149.049c-10.911-1.478-24.931.805-27.651-4.449q-.024-.3-.024-.6l-.521-16.568c-.121-3.817 3.171-11.629 13.363-10.232a4.255 4.255 0 0 0 3.452-1.048c4.683-4.31 11.014-4.933 16.958-3.53a4.277 4.277 0 0 0 3.79-.94c6.06-5.632 17.954-4.926 19.167 5.906l.5 10.653z" fill="url(#linear-gradient-14)"/><path d="m113.242 171.092s1.931-13.036 10.94-17.581c0 0-11.2-2.227-11.662-13.236a3.3 3.3 0 0 1 2.872-3.438l20-2.455a9.383 9.383 0 0 1 11.009 9.493c-.82 16.353 2.617 24.059-14 34.295z" fill="url(#linear-gradient-15)"/><path d="m327.624 268.827a6.58 6.58 0 0 1 .254-4.552c2.159-5 6.181-18.411-3.123-35.048v.01c-3.627-6.848-9.655-13.655-19.386-19.448-8.723 8.852-16.7 11.148-26.162 6.884a12.512 12.512 0 0 0 -10.263.126 23.522 23.522 0 0 1 -22.156-1.42s-6.9 12.648-16.756 21.9a60.456 60.456 0 0 0 -15.178 21.735c-2.572 6.214-3.61 11.442-3.15 16.085-.058-.224-.118-.448-.168-.673-.215 21.277 17.523 20.88 12.391 30.88-10.185 18.156 1.3 30.527 20.471 44.969a29.924 29.924 0 0 0 26.611 5.7c13.141-3.475 29.514-10.707 31.274-25.32a9.152 9.152 0 0 1 5.87-7.419c10.678-4.066 31.037-16.936 19.471-54.409z" fill="url(#linear-gradient-16)"/><path d="m261.706 400.623c1.343-1.849 1.422-4.3-.353-5.734a3.892 3.892 0 0 0 -4.507-.28 315.372 315.372 0 0 1 -55.887 27.178 164.382 164.382 0 0 0 3.361 19.523c26.88-5.5 44.719-23.252 57.386-40.687z" fill="url(#linear-gradient-17)"/><path d="m379.979 252.046h-17.03a407.725 407.725 0 0 1 -4.419 47.376c-3.572 23.914-10.007 53.065-21.574 78a3.683 3.683 0 0 0 4.127 5.138 73.87 73.87 0 0 0 16.061-5.477v-.006a59.4 59.4 0 0 0 23.861-20.106s4.677-58.871-1.026-104.925z" fill="url(#linear-gradient-18)"/><path d="m374.374 275.374c.241 31.5-.84 92.118-10.937 141.114a3.86 3.86 0 0 0 4.836 4.5c5.145-.681 41.266-16.5 41.008-33.194-.123-17.831-1.481-73.938-13.282-112.31-5.26-5.895-18.839-5.784-21.625-.11z" fill="url(#linear-gradient-19)"/><path d="m384.711 250.42-10.77 3.7s.331 8.084.432 21.252c7.825 2.674 15.813 3.733 21.625.114-3.025-9.833-6.735-18.504-11.287-25.066z" fill="url(#linear-gradient-20)"/><path d="m388.031 277.79a267.522 267.522 0 0 0 -4.5-27.314l-29.689-10.276s-3.367 6.568-10.225 17.262c1.233 2.15 3.546 4.648 7.859 6.927 7.478 3.948 23.916 13.982 36.555 13.401z" fill="url(#linear-gradient-21)"/><path d="m347.334 239.92a12.672 12.672 0 0 0 5.371 13.619 96.715 96.715 0 0 0 24.225 11.086c14.757 4.373 23.012-15.481 11.278-24.244-5.2-3.912-13.49-7.943-26.564-9.948a12.7 12.7 0 0 0 -14.31 9.487z" fill="url(#linear-gradient-22)"/><path d="m382.194 250.187c-2.649 6.552-23.559-.624-21.626-7.418 2.649-6.553 23.559.623 21.626 7.418z" fill="url(#linear-gradient-23)"/><path d="m327.705 264.418c2.155-4.987 6.177-18.384-3.117-35v.01c-3.621-6.838-9.64-13.635-19.357-19.42a40.667 40.667 0 0 1 -6.008 5.107c3.241 6 7.076 16.312 3.344 27.322a55.012 55.012 0 0 0 -2.662 19.7c.437 11.978-2.048 30.47-18.9 42.078-19.065 13.134-36.085-.3-44.182-8.935a23.6 23.6 0 0 0 -11.389-6.612c-4.635-1.2-10.617-4.576-13.748-13.736.008.095.007.194.017.29-.058-.224-.118-.448-.168-.673-.214 21.246 17.5 20.85 12.373 30.835-10.171 18.129 1.3 30.483 20.44 44.9a29.879 29.879 0 0 0 26.572 5.69c13.122-3.469 29.472-10.691 31.228-25.282a9.137 9.137 0 0 1 5.862-7.408c10.662-4.054 30.99-16.908 19.443-54.319a6.566 6.566 0 0 1 .252-4.547z" fill="url(#linear-gradient-24)"/><path d="m218.827 464.52s75.445-40.747 110.833-95.115l-1.027 20.565s-30.125 52.848-90.043 83.635c0 0-11.523-1.905-19.763-9.085z" fill="url(#linear-gradient-25)"/><g fill="#2b2a3a"><path d="m10.551 169.43a111.929 111.929 0 0 0 31.165 4.321 98.616 98.616 0 0 0 18.408-1.551 3.75 3.75 0 0 0 .033-7.338 9.925 9.925 0 0 1 -4.985-2.465c8.58-2.556 18.011-5.183 28.106-7.832.492 11.294 5.425 19.819 14.147 24.5-6.425 13.868-28.353 65.909-25.615 125.335-6.293 5.924-13.9 18.821-5.1 33.16 13.434 18.639 37.583 8.192 55.181 7.785-22.645 20.347-15.24 63.408 22.9 60.28 2.563 25.555 26.81 40.8 56.72 39.494 2.877 8.77 7.274 19.6 15 26.169 17.266 8.265 70.653 22.409 106.769 17.41 21.652-2.192 41-8.509 57.277-18.832 12.821-.893 25.736 2.055 34.746-9.617a17.2 17.2 0 0 1 5.645-4.737 11.559 11.559 0 0 0 5.646-14.062 11.684 11.684 0 0 0 -15.43-6.967c2.077-5.274 6.52-9.789 12.342-10.085 25.838-1.9 47.032-14.057 50.838-16.358 8.416-1.624 20.133-12.885 17.33-31.263-1.535-10.638-8.374-13.292-10.084-23.106-5.534-24.187-13.763-46.494-30.725-63.776 34.536-34.758 8.9-79.533-37.684-71.046-12.427 1.984-24.253-4.414-31.126-14.329 5.414-15.61-1.62-34.928-21.689-33.4a29.119 29.119 0 0 1 -27.216-16.74c-1.97-3.625-4.006-7.372-4.786-11.8-4.016-24.971-27.395-34.849-47.7-19.361-25.085-13.292-47.361 6.651-59.3 38.866a28.24 28.24 0 0 1 -22.687 18.221 16.085 16.085 0 0 0 -13.377 11.069c-1.815 5.471-.866 14.339 5.336 18.3a46.6 46.6 0 0 0 -18.919 30.741 112.4 112.4 0 0 0 -26.961 12.5c1.934-9.043 2.784-23.018-3.252-40.006-3.862-10.147-4.789-21.87-5.227-32.717 7.069-4.735 13.343-11.626 13.455-20.532-.166-3.752 1.266-17.357-.449-20.7 13.8-2.056 23.287-8.8 39.93 1.022a22.381 22.381 0 0 0 10.664 3.7c4.887.466 5.73-6.825.823-7.455-4.508-.022-8.419-3.51-12.355-5.289 6.5-1.265 10.3-1.968 10.4-1.985a3.743 3.743 0 0 0 1.915-.979 68.193 68.193 0 0 1 12.7-9.472 35.7 35.7 0 0 1 16.973-4.812 342.194 342.194 0 0 0 43.685-4.143 3.75 3.75 0 0 0 -.252-7.425 18.694 18.694 0 0 1 -7.08-2.16 1.623 1.623 0 0 1 -.866-1.626 1.739 1.739 0 0 1 1.18-1.559c39.678-14.073 68 .007 74.72 3.928.605 10.395 9.237 15.993 20.04 12.255a20.466 20.466 0 0 1 10.232-.54 3.756 3.756 0 1 0 1.571-7.333 27.958 27.958 0 0 0 -14 .7c-2.557.781-6.025 1.385-8.035-.179-2.046-1.593-2.406-5.155-2.376-6.624 3.169-21.817 17.816-30 34.113-26.09 1.652 2.592 13.137 12.175 22.066 12.085a15.709 15.709 0 0 0 12.567-6.3c5.045-6.747 13.4-14.509 24.569-13.2a3.75 3.75 0 1 0 .876-7.448c-15.49-1.825-26.354 9.34-31.451 16.157a8.167 8.167 0 0 1 -8.984 2.92c-17.256-5.955-21.356-19.55-15.432-26.732 13.551-13.134 38.263-5.936 38.907-5.744 5.068 1.77 16.324 1.447 24.223-1.607a54.756 54.756 0 0 0 12.763-6.594 17.338 17.338 0 0 1 11.173-2.9 3.75 3.75 0 0 0 .636-7.473 24.876 24.876 0 0 0 -16.019 4.163c-10.446 7.88-25.355 9.132-30.488 7.265-11.22-3.54-9.686-11.831-9.25-13.413a3.775 3.775 0 0 0 -3.3-4.767c-23.671-1.53-43.342 4.424-43.822 7.574-13.389 35.909-48.974 49.342-70.94 42.985-14.833-4.389-33.713 2.689-46.666 9.208a106.5 106.5 0 0 1 8.958-8.982 3.752 3.752 0 0 0 1.3-2.644c1.605-41.836 49.605-48.012 49.23-18.206a3.75 3.75 0 0 0 2.619 3.7 27.167 27.167 0 0 0 7.586.959 34.427 34.427 0 0 0 13.381-2.729 3.75 3.75 0 0 0 -2.91-6.912 26.762 26.762 0 0 1 -13.227 1.989c-1.1-17.339-15.953-22.764-24.272-23.2-25.139-5-46.757 13.344-61.137 41.793a40.465 40.465 0 0 0 -.412-13.2 10.209 10.209 0 0 1 1.795-8.163 64.691 64.691 0 0 1 8.432-9.136c3.674-3.272-1.1-8.837-4.9-5.681a71.322 71.322 0 0 0 -9.558 10.345c-9.363 13.522 5.475 19.389-10.656 45.722-15.166 15.8-34.891 20.2-55.638 27.492a44.409 44.409 0 0 0 4.857-10.427c.038-.182 3.806-16.908 13.572-20.052a14.518 14.518 0 0 0 12.743 7.541 3.75 3.75 0 0 0 0-7.5c-5.142 0-6.778-4.79-6.938-5.3a3.742 3.742 0 0 0 -3.869-2.7c-16.653 1.189-22.173 23.462-22.8 26.231-5.981 15.308-11.918 16.762-18.935 18.859l.132-5.2c-.216-12.734-16.132-12.462-23.42-5.267-6.83-1.645-12.659-.247-19.253 4.605-11.523-3.786-24.471 2.8-24.084 14.534l.278 8.853c-6.568 1.538-11.919 2.734-15.58 3.534l2.421-12.643a3.75 3.75 0 0 0 -6.683-2.955c-22.439 29.918-47 37.835-47.241 37.909-3.464.942-3.445 6.292.067 7.187zm151.418 255.787a34.931 34.931 0 0 1 -9.736-20.641c29.909-8.984 20.521-46.361-9.4-40.276-4.8 1.082-3.324 8.235 1.509 7.346.113-.023 11.393-2.209 15.985 4.053 7.162 9.687-1.256 20.777-12.525 22.134-36.644 5-40.34-35.046-14.546-52.448 35.116.906 53.689 6.314 63.7 43.386q-7.095 3.729-14.3 7.094a3.75 3.75 0 0 0 -2.09 2.648c-1.228 6 .855 18.785 16.828 25.862a105.656 105.656 0 0 0 2.128 13.262c-16.745-.077-29.368-4.237-37.553-12.42zm66.861-120.533c6.958 2.167 15.8 1.263 18.9-6.672a12.6 12.6 0 0 0 -2.42-13.423 3.75 3.75 0 1 0 -5.435 5.169 5.122 5.122 0 0 1 .906 5.433c-1.535 4.76-9.2 2.634-11.594 1.758-23.164-12.26-13.678-41.635 3.407-56.941a99.9 99.9 0 0 0 15.607-19.642 27.148 27.148 0 0 0 22.274-.145 8.781 8.781 0 0 1 7.187-.13c9.987 4.5 19.008 2.74 28.191-5.574 29.12 19.166 18.393 48.2 17.543 50.355-.494 1.029-2.962 5.435-8.274 3.7-.707-.231-2.584-.846-2.251-5.561a3.75 3.75 0 0 0 -7.482-.527c-.647 9.178 4.358 12.219 7.4 13.215a13.514 13.514 0 0 0 12.4-1.675c3.468 13.466 2.71 24.478-2.287 32.789-8.024 13.009-25.157 16.935-29.586 14.147-.613-.414-1.455-1.222-1.687-3.458a4.166 4.166 0 0 1 5.073-4.084c4.663 1.613 7.165-5.289 2.564-7.047a11.081 11.081 0 0 0 -10.613 1.93c-6.873 4.919-5.094 15.524.5 18.9a15.067 15.067 0 0 0 9.458 2.124c-1 12.926-15.733 19.628-28.569 23.022a26.255 26.255 0 0 1 -23.279-4.976c-15.163-12.085-31.203-23.522-17.933-42.687zm29.13-112.267 3.791 1.233c4.684 1.452 7-5.518 2.319-7.133l-4.957-1.611c.4-3.1.74-6.434 1-10.033.692-9.426 11.188-15.718 19.99-14.882 7.507.575 13.674 5.179 15.712 11.728a129.173 129.173 0 0 1 5.765 36.529c-15.653 14.446-18.445.843-31.765 4.281-2.6-2.372-.477-5.647 1.134-6.952 3.75-3.171-.855-8.844-4.731-5.82-2.3 1.566-7.671 8.727-3.846 15.155a19.78 19.78 0 0 1 -10.555-1.149 92.791 92.791 0 0 0 6.143-21.346zm147.577 199.7a78.882 78.882 0 0 1 -38.462 25.3c10.914-52.814 11.417-118.768 10.975-148.681a16.557 16.557 0 0 0 10.95-1.931c16.168 40.616 16.568 114.616 16.537 125.31zm-29.531 71.774a117.923 117.923 0 0 1 -41.774 15.709c21-20.745 28.93-46.015 31-53.961a77.913 77.913 0 0 0 16.56-5.758c-2.421 22.398-4.97 38.926-5.786 44.008zm-104.548 15.209a254.755 254.755 0 0 1 -47.565-12.918c59.292-29.948 97.724-78.788 117.036-108.631a191.118 191.118 0 0 1 -10.372 24.427 3.75 3.75 0 0 0 .2 3.772c2.214 2.85 4.7 1.508 10.865.545-4.939 15.752-22.245 59.254-70.164 92.805zm68.97-100.244c18.5-39.963 24.02-90.089 25.648-114.173q2.1.865 4.435 1.719c.353 20.064.353 59.763-3.6 100.244a66.3 66.3 0 0 1 -26.483 12.21zm48.357-122.132a9.077 9.077 0 0 1 -10.729 4.324 93.179 93.179 0 0 1 -23.287-10.64c-7.966-5.313-3.211-17.674 6.306-16.268 12.868 2.203 34.399 8.023 27.71 22.584zm-44.356-7.641c-2.867 4.713-7.208 11.536-12.928 19.651-.229-.769-.453-1.535-.706-2.316 1.33-4.07 4.633-16.537.717-30.258a125.358 125.358 0 0 1 11.72 6.375 16.368 16.368 0 0 0 1.197 6.548zm-81.121 111.636c22.238-1.074 44.3-16.65 42.878-32.873 19.734-5.319 32.738-24.59 27.614-49.485 6.651-9 11.854-17.061 15.421-22.756a60.248 60.248 0 0 0 9.552 5.744c-.157 2.607-.363 5.6-.638 8.939-1.318 4.168-16.193 48.552-63.166 91.068a3.75 3.75 0 0 0 5.034 5.56c28.807-26.074 45.819-52.523 55.245-70.853-2.174 14.558-4.407 30.536-12.084 43.441-14.479 25.311-55.512 87.307-125.855 121.554-9.078-12.689-11.694-30.191-12.379-36.787a318.437 318.437 0 0 0 56.269-27.96 3.75 3.75 0 1 0 -4-6.342 311.511 311.511 0 0 1 -56.209 27.788c-11.61-4.9-13.124-12.609-13.18-16.026a362.054 362.054 0 0 0 67.6-41.953 33.98 33.98 0 0 0 7.898.941zm-59.587 24.4a104.891 104.891 0 0 0 -7.279-18.5 86.049 86.049 0 0 0 27.638 6.281q-10.032 6.485-20.359 12.216zm78.379 95.513c50.745-38.4 65.274-85.856 68.021-96.66a73.161 73.161 0 0 0 15.742-7.412c-5.482 33.069-3.532 68.7-44.985 104.839a187.894 187.894 0 0 1 -38.778-.767zm192.176-125.3a40.713 40.713 0 0 0 1.644 5.445c-6.324-1.339-11.906.878-15.81 6.323-7.487 9.548-2.471 22.63 9.108 22.837 2.994.2 6.769-1.376 5.845-5a3.749 3.749 0 0 0 -4.584-2.666c-6.223 1.078-8.443-5.664-4.273-10.8 2.326-3.244 5.051-4.229 8.836-3.2 7.332 2.068 10.643 9.432 9.229 16.94-1.7 13.586-11.565 15.533-11.949 15.6-1.741.2-21.98 14.068-49.366 16.106a21.139 21.139 0 0 0 -17.187 11.6c-2.415 4.8-4.485 9-6.153 12.483a3.75 3.75 0 0 0 5.028 4.988l9.165-4.471a4.107 4.107 0 0 1 3.674 7.347 24.661 24.661 0 0 0 -8.1 6.779 16 16 0 0 1 -12.14 6.189l-13.39.428c1.2-7.733 3.684-24.824 5.94-46.7a85.958 85.958 0 0 0 22.415-19.76 3.744 3.744 0 0 0 .821-2.3c.009-.719.049-4.657-.042-10.839a24.3 24.3 0 0 1 19.325-10.278 3.75 3.75 0 0 0 -.134-7.5 30.9 30.9 0 0 0 -19.442 7.17c-.922-28.756-4.5-79.635-17.922-110.792.123-.2.236-.4.352-.605 35.939 16.618 69.122 41.587 79.108 94.673zm-274.136-142.703c7.535.229 18.966-4.144 16.781-16.753-.836-4.843-8.13-3.678-7.4 1.2 1.311 7.471-5.876 7.932-9.82 8.045-3.108-.383-5.293-1.5-6.488-3.323-3.187-6.152-.224-13.095 6.463-14.055a35.731 35.731 0 0 0 28.677-22.928c10.44-28.525 30.375-47.146 50.278-34.045a3.751 3.751 0 0 0 4.6-.072c8.44-6.761 16.98-9.017 24.043-6.354 6.99 2.634 11.987 9.757 13.712 19.541.992 5.63 3.43 10.117 5.581 14.076a36.576 36.576 0 0 0 34.066 20.652c5.613-.2 9.553 1.04 11.713 3.667 5.776 7.152 5.511 20.572-2.307 23.413-3.3 1.221-5.609.406-7.722-2.729-.512-.759-2.07-3.069.882-7.2 2.772-4.07-3.148-8.32-6.1-4.358-10.366 14.113 7.282 29.2 19.918 18.874 8.534 11.452 22.688 18.255 37.229 16 39.641-7.149 60.634 28.517 31.318 58.32-16.063-15.1-34.857-25.214-48.122-31.144 1.263-17.741-18.814-23.791-35.218-26.725a16.582 16.582 0 0 0 -16.955 8.269c-6.079-3.493-11.871-6.641-17.863-8.677-3.7-6.567-9.489-13.037-18.338-18.661a136.435 136.435 0 0 0 -6.092-38.174c-8.173-25.356-47.638-21.022-50.344 4.842-2.124 27.941-8.719 38.509-9.136 39.248-3.647 6.331-13.472 21.069-41.393 22.861-1.756-.178-10.156-.8-22.312 1.848a39.366 39.366 0 0 1 20.349-25.658zm-57.9-53.177c-.22 7.1-5.983 11.935-11.706 15.47a3.749 3.749 0 0 0 -1.87 3.468c.527 12.191 1.4 25.618 5.778 37.024 8.488 23.89 1.745 41.225.24 44.591-3.46 2.877-9.164 8.1-12.928 13.993-2.568 4.18 3.572 8.159 6.322 4.035 3.551-5.564 9.493-10.708 11.944-12.708 47.991-32.8 56.581-15.023 82.043-25.143-16.2 18.125-21.229 47.22-.01 61.082-8.868 12.36-7.22 28.876 6.344 40.536 5.909 4.984 12.051 10.809 18.805 14.838q-6.051 4.615-12.244 8.947c-33.4 2.148-61.714-16.389-69.3-41.459-1.335-4.733-8.426-2.873-7.252 1.915a57.132 57.132 0 0 0 7.528 15.586c-13.315-3.324-30.033-3.79-40.012-3.856-14.854-1.352-41.93 10.719-52.813-4.135-8.354-13.6 4.185-24.108 4.864-24.662a10.552 10.552 0 0 1 12.755.057c4.341 3.523 4.828 7.806 2.328 11.589a3.775 3.775 0 0 0 2.927 6.091c4.88-.435 6.471-8.32 5.914-12.545-1.153-10.839-13.987-17.273-22.728-14-1.745-64.418 26.353-120.654 26.646-121.231a3.749 3.749 0 0 0 -2.033-5.209c-9.633-3.6-12.485-11.665-12.966-18.719.178-.03.357-.049.534-.088l20.637-4.209a14.606 14.606 0 0 0 3.479 3.37 20.21 20.21 0 0 0 -5.578 11.844c-.309 4.886 6.939 5.5 7.474.63.029-.315.812-7.757 7.691-9.39a3.751 3.751 0 0 0 2.875-3.9c-1.024-5.585-5.707-1.626-10-7.135a3.584 3.584 0 0 0 -1.136-2.406 9.815 9.815 0 0 1 -.352-2.037l5.961-1.095 13.653-2.508a5.666 5.666 0 0 1 6.61 5.7zm7.047-34.35c46.205-15.158 72.1-17.882 96.737-62.12 7.249-13.122 15.032-22.218 23.68-27.5-6.083 6.29-11.067 15.755-12.129 29.991-3.522 3.206-13.8 13.085-19.123 23.723a3.75 3.75 0 0 0 5.473 4.771c.34-.232 34.187-23.163 55.32-16.91 24.888 7.228 63.88-6.821 79.469-45.919a95.869 95.869 0 0 1 32.907-4.594 17.867 17.867 0 0 0 2.111 8.493c-15.164-1.271-41.991 6.267-35.221 29.572-16.924-1.573-31.5 9.083-35.706 28.087-10.855-5.706-39.336-16.811-78.306-2.987-5.755 1.808-8.059 9.505-4.422 14.2-7.774.925-18.43 1.934-29.96 2.272-12.9.1-24.79 7.277-33.817 15.587-6.885 1.219-38.183 7.5-52.41 10.674-.1-.06-.194-.12-.292-.178l.139-5.512q2.795-.822 5.546-1.652zm-15.027-14.158a2.486 2.486 0 0 1 2.305 2.542l-.43 17.038c-.7-.044-9.806 1.741-10.733 1.881l.048-18.224a11.364 11.364 0 0 1 8.81-3.237zm-16.313 4.562-.048 18.277c-7.933 1.377-9.648.908-8.8 9.858l-3.4.694c-.017-.176.033-25-.018-25.161 4.512-3.388 8.002-4.457 12.266-3.668zm-29.57 5.641c2.912-1.363 6.1-2.4 9.815-1.287v26.005l-8.4 1.714a3.691 3.691 0 0 1 -4.466-3.579c0-.108-.521-16.566-.523-16.685a6.565 6.565 0 0 1 3.574-6.168zm-34.053 19.019-.749 3.916a3.774 3.774 0 0 0 4.441 4.377c.083-.017 7.709-1.6 19.81-4.414a11.171 11.171 0 0 0 .768 4c-10.843 2.875-20.887 5.722-29.915 8.478-3.85 1.66-3.178 4.994-.243 9.494a110.8 110.8 0 0 1 -25.1-1.327 119.806 119.806 0 0 0 30.988-24.524z"/><path d="m145.315 88.475c2.264-.341 19.684-6.81 33.367-27.77a3.781 3.781 0 0 0 -1.715-5.462c-5.337-2.311-13.9-8.8-7.5-16.687 5.051-6.974 10.469-6.2 17.965-5.143 3.784.5 18.964 2.855 18.831-4.184a3.749 3.749 0 0 0 -3.066-3.436c-.153-.028-15.41-3.082-19-13.049a3.749 3.749 0 0 0 -3.334-2.476c-.633-.028-15.846-.649-29.533 13.8a23.709 23.709 0 0 0 -.978 31.652c.757 1.285 6.322 11.944-7.727 26.394a3.778 3.778 0 0 0 2.69 6.361zm11.459-59.252c8.494-8.965 17.454-10.937 21.5-11.358a24.108 24.108 0 0 0 6.478 7.637c-6.96-.746-14.855-.329-21.361 8.655-7.808 10.179-2.2 20.766 6.673 25.9a65.893 65.893 0 0 1 -12.373 12.873c4.757-12.373-.839-21-1.165-21.477a24.453 24.453 0 0 1 -2.429-3.608 16.217 16.217 0 0 1 2.677-18.622z"/><path d="m454.3 92.356a3.75 3.75 0 0 0 -4.559-1.356c-10.041 4.2-18.371 12.01-23.591 17.818a21.579 21.579 0 0 1 -17.779 7.108 74.277 74.277 0 0 1 -17.349-3.67c-4.357-1.575-7.153 4.675-3.021 6.85 12.074 6.54 20 12.286 24.494 24.039 5.7 15.5 15.591 23.955 27.633 23.955 3.288-.028 9.428-.182 8.581-5.031-2.293-8.909-18.023 9.348-30.038-23.67l22.577-.933a3.774 3.774 0 0 0 3.42-4.877c-6.166-19.5 8.567-34.861 9.191-35.5a3.75 3.75 0 0 0 .441-4.733zm-17.962 37.807-20.652.853a66.72 66.72 0 0 0 -7.7-7.6 29.105 29.105 0 0 0 23.749-9.587 80.842 80.842 0 0 1 7.3-7.18 40.914 40.914 0 0 0 -2.7 23.514z"/><path d="m470.863 82.155c4-2.873-.17-8.9-4.269-6.166l-3.126 2.164c-3.033 1.944-1.389 6.969 2.138 6.834 1.582.184 3.994-2.087 5.257-2.832z"/><path d="m79.5 105.9c1.969.206 3.615-2.2 4.826-3.434a3.75 3.75 0 0 0 -5.5-5.105l-2.074 2.239a3.775 3.775 0 0 0 2.748 6.3z"/><path d="m351.706 39.687c2.316.075 3.572-2.229 4.9-3.83a3.75 3.75 0 0 0 -.692-5.258c-3.1-2.22-5.288.549-7.042 2.88a3.774 3.774 0 0 0 2.834 6.208z"/><path d="m213.436 356.3 5.658.768a3.75 3.75 0 1 0 1.009-7.431l-5.658-.768c-4.892-.588-5.884 6.681-1.009 7.431z"/><path d="m277.4 193.563c.709.117 5.984-1.735 6.763-1.917 4.682-1.534 2.518-8.543-2.216-7.165l-5.647 1.749a3.758 3.758 0 0 0 1.1 7.333z"/><path d="m212.561 142.334c.092 5.379 8.095 5.378 8.185 0-.091-5.38-8.094-5.379-8.185 0z"/><path d="m462.065 155.178c-5.38.092-5.379 8.094 0 8.185 5.379-.092 5.378-8.094 0-8.185z"/><path d="m221.482 33.226c5.379-.092 5.378-8.094 0-8.185-5.382.091-5.382 8.094 0 8.185z"/><path d="m278.964 383.7c5.38-.091 5.379-8.094 0-8.185-5.379.085-5.378 8.091 0 8.185z"/></g></svg>