<svg id="icons" height="512" viewBox="0 0 500 500" width="512" xmlns="http://www.w3.org/2000/svg" xmlns:xlink="http://www.w3.org/1999/xlink"><linearGradient id="linear-gradient" gradientUnits="userSpaceOnUse" x1="332.52" x2="474.863" y1="225.048" y2="95.765"><stop offset="0" stop-color="#e5609b"/><stop offset="1" stop-color="#c45196"/></linearGradient><linearGradient id="linear-gradient-2" gradientUnits="userSpaceOnUse" x1="268.213" x2="268.213" y1="307.285" y2="483.849"><stop offset="0" stop-color="#ffd3d1"/><stop offset="1" stop-color="#f59f9b"/></linearGradient><linearGradient id="linear-gradient-3" gradientUnits="userSpaceOnUse" x1="158.209" x2="158.209" y1="392.965" y2="238.585"><stop offset="0" stop-color="#706b89"/><stop offset="1" stop-color="#9c96b7"/></linearGradient><linearGradient id="linear-gradient-4" gradientUnits="userSpaceOnUse" x1="136.992" x2="136.992" y1="233.056" y2="458.013"><stop offset="0" stop-color="#5e5775"/><stop offset="1" stop-color="#413a51"/></linearGradient><linearGradient id="linear-gradient-5" x1="377.553" x2="377.553" xlink:href="#linear-gradient-3" y1="430.825" y2="241.788"/><linearGradient id="linear-gradient-6" x1="391.003" x2="391.003" xlink:href="#linear-gradient-4" y1="233.056" y2="458.013"/><linearGradient id="linear-gradient-7" x1="89.79" x2="89.79" xlink:href="#linear-gradient-3" y1="477.802" y2="309.784"/><linearGradient id="linear-gradient-8" x1="89.065" x2="89.065" xlink:href="#linear-gradient-4" y1="348.529" y2="413.079"/><linearGradient id="linear-gradient-9" x1="82.821" x2="103.758" xlink:href="#linear-gradient-2" y1="308.828" y2="427.732"/><linearGradient id="linear-gradient-10" gradientUnits="userSpaceOnUse" x1="205.608" x2="205.608" y1="232.561" y2="384.014"><stop offset="0" stop-color="#fff"/><stop offset="1" stop-color="#ced9ff"/></linearGradient><linearGradient id="linear-gradient-11" gradientUnits="userSpaceOnUse" x1="190.826" x2="194.967" y1="239.368" y2="474.022"><stop offset="0" stop-color="#8585b7"/><stop offset="1" stop-color="#5d6da5"/></linearGradient><linearGradient id="linear-gradient-12" x1="341.221" x2="341.221" xlink:href="#linear-gradient-10" y1="258.864" y2="396.613"/><linearGradient id="linear-gradient-13" x1="329.017" x2="340.806" xlink:href="#linear-gradient-11" y1="221.949" y2="297.509"/><linearGradient id="linear-gradient-14" gradientUnits="userSpaceOnUse" x1="272.952" x2="272.952" y1="185.762" y2="313.489"><stop offset="0" stop-color="#3f4053"/><stop offset="1" stop-color="#585a6f"/></linearGradient><linearGradient id="linear-gradient-15" x1="332.445" x2="336.586" xlink:href="#linear-gradient-11" y1="236.869" y2="471.523"/><linearGradient id="linear-gradient-16" x1="270.209" x2="270.209" xlink:href="#linear-gradient-2" y1="198.576" y2="139.864"/><linearGradient id="linear-gradient-17" x1="89.488" x2="107.76" xlink:href="#linear-gradient" y1="184.457" y2="10.87"/><linearGradient id="linear-gradient-18" x1="33.474" x2="51.773" xlink:href="#linear-gradient" y1="178.643" y2="4.797"/><linearGradient id="linear-gradient-19" x1="142.84" x2="160.982" xlink:href="#linear-gradient" y1="190.18" y2="17.827"/><linearGradient id="linear-gradient-20" x1="75.535" x2="87.463" xlink:href="#linear-gradient-2" y1="231.942" y2="285.481"/><linearGradient id="linear-gradient-21" x1="78.005" x2="89.933" xlink:href="#linear-gradient-2" y1="231.392" y2="284.93"/><linearGradient id="linear-gradient-22" x1="292.379" x2="434.722" xlink:href="#linear-gradient" y1="180.852" y2="51.569"/><linearGradient id="linear-gradient-23" x1="258.177" x2="258.177" xlink:href="#linear-gradient-14" y1="199.256" y2="297.183"/><path d="m239.781 212.251s.558-17.021-16.28-41.067c-13.312-20.155-10.927-44.621 9.786-67.416 16.862-17.863 27.356-32.878 33.247-42.451a2.937 2.937 0 0 1 5.431 1.74c-.2 2.986-.424 6.252-.67 9.533a7.1 7.1 0 0 0 12.4 5.225c7.355-6.778 25.181-58.458 92.232-42.557 0 0 13.727 4.866 27.263-6.42a1.954 1.954 0 0 1 3.072 2.192 56.382 56.382 0 0 1 -10.234 17c-4.011 5.352-2.506 11.388 5.106 14.4 8.333 2.152 22.46-5.1 30.32-24.843 0 0 5.628-15.121 31.422-14.67a18.734 18.734 0 0 0 12.266-5.217 1.9 1.9 0 0 1 3.093 1.944 24.1 24.1 0 0 1 -12.25 14.711 29.6 29.6 0 0 0 -15.706 25.445c-.711 6.788 4.372 17.855-33.2 37.1-8.315 4.122-14.707 10.338-17.167 19.917-3.1 13.394 10.715 24.391 23.191 18.613a93.879 93.879 0 0 0 11.145-6.21 3.3 3.3 0 0 1 4.816 4.078 40.72 40.72 0 0 0 -3.573 13.436c-.492 10.537 19.6 25.345-5.29 42.887a38.909 38.909 0 0 1 -10.3 5.054c-7.843 2.581-24.408 10.4-21.724 29.936a14.871 14.871 0 0 0 16.036 12.9c4.64-.467 10.387-2.378 17.088-7.156a1.9 1.9 0 0 1 2.992 1.671 44.949 44.949 0 0 1 -8.321 22.373 25.04 25.04 0 0 0 -4.526 11.455c-.732 6.55.914 15.452 12.024 22.349 20 12.416 26.837 42.719-5.906 74.35z" fill="url(#linear-gradient)"/><path d="m338.13 257.5-133.171.955c-36.871 106.71 3.032 206.614 3.032 206.614s58.131 11.144 112.38-.345c0 0 45.521-134.871 17.759-207.224z" fill="url(#linear-gradient-2)"/><path d="m312.515 257.684-3.482 27.735s26.28 108.376.075 181.367q5.639-.882 11.263-2.062s45.52-134.871 17.759-207.224z" fill="#e07a86"/><path d="m199.153 277.493c-26.431 99.255 8.838 187.576 8.838 187.576s3.636.7 9.937 1.563c-11.024-56.456 7.857-155 7.857-155s-16.741-22.609-26.632-34.139z" fill="#e07a86"/><path d="m344.515 281.758a125.493 125.493 0 0 0 -6.385-24.258l-133.171.955c-2.988 8.646-5.464 17.246-7.5 25.753 0 0 2.455 9.115 13.219 19.21a44.7 44.7 0 0 1 11.112 16.765c5.236 13.758 17.6 36.949 42.752 42.816 0 0 30.04-9.05 47.158-38.8a46.386 46.386 0 0 1 8.1-10.5 138.952 138.952 0 0 0 24.715-31.941z" fill="#e07a86"/><path d="m203.514 232.977c-43.935 18.028-72.4 45.012-90.609 72.6 0 47.085 40.835 85.913 78.49 75.144z" fill="url(#linear-gradient-3)"/><path d="m191.4 380.721c-29.016-52.751-78.283-75.049-78.484-75.14-22.516 34.109-29.342 69.139-30.307 89.308-.44 9.192 6.6 26.356 14.8 30.545 31.351 16.03 60.516 27.113 87.509 34.3z" fill="url(#linear-gradient-4)"/><path d="m408.893 306.116a113.273 113.273 0 0 0 -18.86-18.376c-15.907-12.042-32.861-29.582-46.264-44.66l-1.93 172c39.514 16.352 86.022-55.871 67.054-108.964z" fill="url(#linear-gradient-5)"/><path d="m341.839 415.083-.492 43.9c50.628-16.4 81.536-45.534 93.064-58.055 17.88-19.973-6.385-72-25.525-94.808-1.214 17.171-9.586 75.689-67.047 108.963z" fill="url(#linear-gradient-6)"/><path d="m69.4 318.081c-40.628 32.898-58.817 138.906 27.59 168.419a19.324 19.324 0 0 0 23.815-8.358c16.955-29.628 48.142-102.259-12.3-158.945z" fill="url(#linear-gradient-7)"/><path d="m66.79 337.075c-14.964 23.107-35.055 92.625 25.038 120.85a12.752 12.752 0 0 0 16.744-5.2c8.519-15.033 22.5-46.645 17.3-85.526z" fill="url(#linear-gradient-8)"/><path d="m65.63 310.618a158.293 158.293 0 0 1 -2.265 26.275c-4.023 22.794-6.19 68.152 27.131 90.469a11.737 11.737 0 0 0 15.843-2.636c22-30.091 26.26-55 8.154-97.476-15.209-15.779-33.81-21.426-48.863-16.632z" fill="url(#linear-gradient-9)"/><path d="m203.517 232.983c-3.16 14.4-48.2 155.364 1.74 181.168-1.061-93.748 18.956-171.728 24.1-190.161a255.651 255.651 0 0 0 -25.84 8.993z" fill="url(#linear-gradient-10)"/><path d="m184.917 459.725q11.808 3.147 23.074 5.344c-1.7-17.305-2.541-34.356-2.729-50.918a166.417 166.417 0 0 0 -24.169-49.863 521.029 521.029 0 0 0 3.824 95.437z" fill="url(#linear-gradient-11)"/><path d="m351.58 408.888c7.93-64.3-1.192-130.287-7.81-165.808-8.446 7.9-13.542 25.842-15.07 54.481 3.489 37.855 4.447 81.17-.919 124.672 9.774 4.605 17.378-1.461 23.799-13.345z" fill="url(#linear-gradient-12)"/><path d="m316 213.014a760.2 760.2 0 0 1 12.7 84.548c5.032-7.043 16.4-19.917 18.406-37.354a153.374 153.374 0 0 0 -3.333-17.128c-14.76-16.605-25.215-30.226-25.215-30.226z" fill="url(#linear-gradient-13)"/><path d="m328.759 242.35a94.385 94.385 0 0 0 -10.128-29.306c-.026-.064-.049-.127-.074-.191-.194-.376-.532-.981-.98-1.757-.029-.053-.056-.107-.086-.159l.006.021c-3.168-5.483-11.426-18.97-13.074-21.768l-79.514 43.658a130.147 130.147 0 0 0 -8.522 35.294l.007.017c-.519 6.9-1.35 14.9 3.772 20.433a17.377 17.377 0 0 1 3.3 5.855c2.788 8.421 12.227 31.774 34.67 45.556 10.617 7.7 36.822-17.434 48.035-39.746-.005 0 29.862-13.582 22.588-57.907z" fill="url(#linear-gradient-14)"/><path d="m351.575 408.887a143.918 143.918 0 0 1 -23.8 13.345 418.461 418.461 0 0 1 -7.405 42.492c7.337-1.65 14.317-3.6 20.972-5.753a305.1 305.1 0 0 0 10.233-50.084z" fill="url(#linear-gradient-15)"/><path d="m269.613 142.49s12.132-.143 20.476 13.487a115.143 115.143 0 0 1 14.334 33.213c-3.868 13.994-16.491 25.3-32.765 31.629l-35.658-9.655a259.155 259.155 0 0 1 4.05-45.9c2.704-14.359 15.564-24.422 29.563-22.774z" fill="url(#linear-gradient-16)"/><path d="m101.6 12.479s-59.042-3.72-66.281 57.4c-2.689 22.715 3.391 39.987 12.093 52.721a72.6 72.6 0 0 1 12.532 42.656c-.615 6.635.871 9.031 7.6 10.262a6.189 6.189 0 0 0 7.284-3.883c2.3-5.707 10.7-4.706 11.739 1.357l3.65 21.38c1.76 9.684 15.849 9.126 16.792-.719.921-10.807 3.278-30.421 8.827-42.542a6.619 6.619 0 0 1 11.159-1.419 12.611 12.611 0 0 1 2.018 3.636c2.625 7.467 13.754 4.992 12.884-2.9-1-8.539-1.14-23.558 7.542-34.935 42.136-52.993 4.061-104.376-47.839-103.014z" fill="url(#linear-gradient-17)"/><path d="m25.475 158.809c-2.206 5.393-2.065 19.264 7.388 19.116h4.02a8.424 8.424 0 0 0 7.924-10.482 27.554 27.554 0 0 0 -5.439-11.043 7.976 7.976 0 0 0 -13.893 2.409z" fill="url(#linear-gradient-18)"/><path d="m152.436 196.321c-.446 16.466-20.042 16.463-20.485 0 .449-16.465 20.041-16.462 20.485 0z" fill="url(#linear-gradient-19)"/><path d="m105.371 112.673a8.411 8.411 0 0 0 -12.709-1.234c-2.3 2.225-4.561 5.855-5.394 11.739-1.578 10.757 6.69 17.751 13.853 15.541 10.297-3.06 9.81-17.143 4.25-26.046z" fill="#fff"/><path d="m87.592 85.088a57.809 57.809 0 0 1 -17.975 16.4c-10.323 5.362-20.375-11.675-14.117-27.01 9.8-29.137 46.019-13.401 32.092 10.61z" fill="#fff"/><path d="m125.3 50.445a12.2 12.2 0 0 0 -16.515 6.486c-2.891 7.224-4.219 18.286 2.7 33.1 20.042 42.306 58.15-21.27 13.815-39.586z" fill="#fff"/><path d="m114.493 327.25c-6.724-17.112-9.955-21.251-9.689-48.881l-40.349 11.094a157.6 157.6 0 0 1 1.173 21.155c7.372 6.921 22.504 16.732 48.865 16.632z" fill="#e07a86"/><path d="m20.618 255.718c-.064 8.147 1.646 15.084 5.158 20.428 0 0 12.231 13.67 36.694 13.31l-10.793-20.865s-10.9 4.015-25.011-14.841a3.366 3.366 0 0 0 -6.048 1.968z" fill="#e07a86"/><path d="m87.221 294.133s-14.791.7-28.768-3.237a20.772 20.772 0 0 1 -15.173-20.738 82.734 82.734 0 0 1 3.65-20.993 64.78 64.78 0 0 0 2.506-20.856 3.367 3.367 0 0 1 5.867-2.367 23.788 23.788 0 0 1 6.017 18.546c-.678 7.96-1.028 13.526-1.209 17.188a11.151 11.151 0 0 0 5.408 10.182 25.434 25.434 0 0 0 15.145 3.568c12.673-1.079 26.7-2.878 28.142-20.5.418-5.129.746-9.344 1-12.743a3.371 3.371 0 0 1 5.857-2.015c3.386 3.713 6.972 10.1 6.18 20.164-1.443 18.281-8.361 29.484-34.622 33.801z" fill="url(#linear-gradient-20)"/><path d="m89.351 276.013a7.294 7.294 0 0 1 -11.509 5.124c-3.144-2.268-5.728-6.277-5.584-13.339.277-13.523 6.94-36.227 10-45.986a3.373 3.373 0 0 1 5.865-1.076c2.76 3.438 5.639 9.831 4.641 21.209-1.119 12.755-2.517 25.933-3.413 34.068z" fill="url(#linear-gradient-21)"/><path d="m332.287 143.684c.4-2.391 1.841-6.027 6.47-9.451 1.034-.764 2.663.4 2.587 1.867-.174 3.393-1.422 8.283-6.906 9.858-1.123.323-2.364-1.006-2.151-2.274z" fill="url(#linear-gradient-22)"/><path d="m251.818 199.959s-25.709.178-31.2 22.228a4.874 4.874 0 0 0 6.593 5.646l5.285-2.165 7.722 6.448a4.874 4.874 0 0 0 6.158.075l11.911-9.468 9.46 8.176a4.875 4.875 0 0 0 7-.65l5.142-6.454 8.838 4.6a4.869 4.869 0 0 0 6.917-5.74c-3.315-10.355-13.388-24.632-43.826-22.696z" fill="url(#linear-gradient-23)"/><g fill="#2b2a3a"><path d="m22.981 278.646c.14.325 10.862 11.548 29.672 13.938a33.474 33.474 0 0 0 8.664 2.9 175.2 175.2 0 0 1 .21 24.99c-45.779 47.973-44.547 151.482 42.435 171.092a23.184 23.184 0 0 0 20.1-11.56 198.088 198.088 0 0 0 14.6-31.714 402.217 402.217 0 0 0 45.538 15.121c7.865 2.09 15.63 3.886 23.083 5.339a340.687 340.687 0 0 0 58.63 4.96c23.934.154 52.355-2.936 76.588-11.16 51.794-16.782 83.457-46.909 94.666-59.083 11.856-12.85 6.767-32.234 2.365-48.485 21.271-27.372 18.91-54.514-4.084-69.963-7.675-4.765-11.132-11.072-10.276-18.747a21.2 21.2 0 0 1 3.883-9.737c10.465-15.029 9.028-28.338 8.962-28.9a3.75 3.75 0 0 0 -6.082-2.474c-6.276 5.077-12.286 7.968-17.863 8.593a11.238 11.238 0 0 1 -12.2-9.774c-2.864-21.47 21.642-26.507 22.679-26.709 28.41-14.2 22.745-32.043 17.457-42.016-1.477-3.209-2.872-6.24-2.773-8.352.473-10.129 9.328-23.494 9.417-23.627 2.34-3.448-2.12-7.646-5.414-5.05a117.18 117.18 0 0 1 -21.717 13.8 12.69 12.69 0 0 1 -13.595-1.707c-7.481-5.908-4.947-16.115.809-22.551a29.907 29.907 0 0 1 9.957-7.488c34.924-16.683 35.445-33.044 35.3-35.6-.9-10.946 3.883-22.082 13.718-26.989 15.808-8.191 15.424-24.642 15.4-25.339-.039-3.571-5.124-4.995-6.938-1.842-3.041 5-7.045 8.847-13.232 8.656-28.106-.471-34.734 16.392-34.987 17.072-6.668 18.524-25.858 29.688-30.225 18.207a4.8 4.8 0 0 1 1.161-3.992c11.769-13.791 12.89-25.66 12.931-26.159a3.75 3.75 0 0 0 -6.585-2.753c-13.251 15.18-27.257 10.423-28.282 10.116-43.609-13.76-79.321 13.922-91.623 37.173-1.752 2.855-4.65 9.115-8.287 7.358a3.235 3.235 0 0 1 -2.011-3.315c.843-11.262 1.468-22.5 1.474-22.609.334-4.029-5.585-5.508-7.168-1.737-.1.221-10.2 22.4-38.78 52.67-16.621 17.608-19.437 35.242-18.873 46.934.316 11.61 6.2 23.529 14.127 31.9 7.011 7.376 7.355 11.65 6.582 21.425-7.1 3.9-15.1 12.143-15.629 22.573-44.265 14.669-82.865 42.444-106.695 79.039a85.021 85.021 0 0 1 -1.315-11.923c12.071-6.823 15.791-17.381 16.825-30.526 1.624-20.627-13.091-27.834-13.718-28.131a3.751 3.751 0 0 0 -5.345 3.133c-.246 3.578-.7 9.778-1.449 18.993-.782 9.587-5.892 13.45-11.232 14.811.818-7.684 1.819-17.529 2.664-27.154 1.828-23.6-11.106-30.327-14.3-28.555-2.684-.356-13.576 38.145-13.683 55.515a7.583 7.583 0 0 1 -4.658-7.377c.231-4.686.635-10.422 1.2-17.05 1.689-19.343-15.386-30.449-18.367-27.042a3.748 3.748 0 0 0 -1.549 3.5c1.193 9.971.588 18.99-1.8 26.807a90.328 90.328 0 0 0 -3.1 13.985c-4.224-2.806-9.615-8.1-15.562-18.052a3.773 3.773 0 0 0 -6.924 1.344c-2.083 13.688-.477 25.089 5.224 33.298zm34.655 91.408c1.342 21.223 8.45 45.473 30.773 60.424a15.5 15.5 0 0 0 20.91-3.478 111.708 111.708 0 0 0 11.645-18.8 141.081 141.081 0 0 1 -15.654 42.675 9 9 0 0 1 -11.81 3.693c-35.4-17.427-44.117-48.411-35.864-84.514zm59.914 106.226a15.655 15.655 0 0 1 -19.195 6.73c-68.155-22.67-72.95-101.941-38.316-148.973-.6 3.643-1.162 6.7-1.653 11.009-17.686 38.294-19.133 91.811 31.773 116.238a16.263 16.263 0 0 0 7.265 1.709 16.571 16.571 0 0 0 14.411-8.423c12.907-19.977 27.569-71.072 12.571-110.644 32.554 50.841 6.907 108.306-6.856 132.354zm70.75-19.542c-13.095-101.032 7.933-186.888 18.277-220.951 4.605-1.85 9.358-3.583 14.164-5.182a8.77 8.77 0 0 0 .836.464c-4.209 10.8-10.595 31.155-9.008 49.766-8.785 48.736-14.415 121.344-8.786 179.553-5.055-1.069-10.239-2.288-15.483-3.65zm110.917-235.224a35.285 35.285 0 0 0 -4.582-9.323 85.727 85.727 0 0 0 10.165-15.116l8.089 13.411c16.759 26.252 18.112 64.092.13 80.131 2.759-12.859.571-21.606.451-22.064-1.322-4.743-8.42-2.9-7.258 1.894 6.914 30.717-27.8 62.572-42.786 68.274-24.1-12.928-33.946-38.008-36.423-45.51a20.6 20.6 0 0 0 -4.013-7.088c-9.561-11.25 4.362-50.121 6.778-55.284l2.061-.844 5.987 5a8.658 8.658 0 0 0 10.9.131l9.478-7.533 7.107 6.144a8.543 8.543 0 0 0 6.438 2.062c4.185-.094 6.849-4.34 9.166-7.251l6.1 3.176c6.542 3.625 14.67-3.105 12.212-10.21zm-87.754 240.349a633.179 633.179 0 0 1 -1.363-92.763c5.231 2.805 14.1 6.581 26.966 8.9-6.3 4.974-13.3 13.9-15.579 29.627a3.75 3.75 0 0 0 7.423 1.074c3.418-23.612 18.871-28.643 20.983-29.223a16.263 16.263 0 0 0 15.478-16.142v-8.436c-.085-4.925-7.415-4.933-7.5 0v8.431a8.556 8.556 0 0 1 -2.833 6.4 8.664 8.664 0 0 1 -6.731 2.235c-21.361-2.034-33.6-8.651-37.695-11.26 1.8-26.986 4.846-50.594 7.661-68.409 5.777 13.058 14.916 41.28 44.98 54.311 2.859-.513 27.137-9.336 45.691-43.573 2.433-1.153 10.386-6.848 15.129-14.114a612.844 612.844 0 0 1 3.666 69.026 11.6 11.6 0 0 1 -9.493 11.3c-19.58 3.668-40.2 1.055-40.406 1.028-4.87-.562-5.864 6.714-.971 7.437.348.046 3.824.487 9.166.771.612.251 19.205 5.394 20.686 28.043a3.749 3.749 0 1 0 7.487-.419c-.762-13.647-7-22.26-13.175-27.5a128.149 128.149 0 0 0 18.593-1.986 19.1 19.1 0 0 0 8.028-3.566c-.829 31.535-4.305 61.1-10.419 88.481-45.555 9.074-93.862 2.273-105.772.327zm118.837-184.724a3.787 3.787 0 0 0 -.086-.386c3.949-9.615 4.7-28.459.585-42.91 2.872 3.4 6.054 7.088 9.471 10.946 8.751 47.388 19.785 136.52-1.964 211.215-4.3 1.354-8.643 2.585-12.979 3.681 11.426-53.414 13.101-114.785 4.973-182.546zm106.562 108.393c1.2 16.215-46.976 52.321-89.955 67.58 18.707-69.228 10.932-149.047 2.8-197.926q5.661 6.082 11.037 11.474c-.664.483-1.327.97-2 1.444-3.007 1.96-1.352 6.951 2.161 6.817 2.071-.027 3.6-1.887 5.263-2.928a244.721 244.721 0 0 0 21.6 18.737c30.191 22.856 49.76 67.47 49.094 94.802zm-205.395-210.432c-17.521-19.047-17.145-44.808 4.547-68.761a276.158 276.158 0 0 0 31.986-40.278c-.689 6.923-1.471 13.659 6.109 17.026 8.4 3.662 14.395-3.931 17.86-10.774 13.935-25.174 47.134-45.02 82.842-33.47a32.336 32.336 0 0 0 25.261-3.243 56.965 56.965 0 0 1 -6.885 9.983 12.344 12.344 0 0 0 -2.807 10.349c.645 3.178 2.8 7.493 9.432 10 9.72 3.088 26.342-4.882 35.142-27 .206-.518 5.321-12.68 27.858-12.27a20.865 20.865 0 0 0 8.633-1.662 20.639 20.639 0 0 1 -7.184 6.031c-12.452 6.242-18.867 20.234-17.761 34.079-.024.923-.924 14.02-31.038 28.405a37.331 37.331 0 0 0 -12.422 9.385c-8.627 9.547-10.6 24.711.162 33.244a20.3 20.3 0 0 0 21.477 2.692 95.526 95.526 0 0 0 10.4-5.7 42.571 42.571 0 0 0 -3.329 13.426c1.224 17.338 20.44 26.094-9.22 43.475-44.135 9.2-33.119 69.336 7.494 45.661a43.016 43.016 0 0 1 -7.12 16.558 28.558 28.558 0 0 0 -5.182 13.19c-.829 7.423.888 17.951 13.772 25.951 18.2 12.269 20.148 32.883 5.074 55.043-11.085-29.626-30.464-52.307-54.312-69.866l7.335-6.869a3.75 3.75 0 0 0 -5.127-5.475l-7.824 7.327c-1.471-1.352-2.968-2.764-4.48-4.21a171.048 171.048 0 0 0 15.019-13.815 3.75 3.75 0 0 0 -5.39-5.215 163.474 163.474 0 0 1 -15.033 13.748c-10.918-10.051-42.008-46.595-45.035-51.243-1.431-2.773-12.056-20.13-13.857-23.184-1.6-5.111-3.1-9.427-4.537-13.166a56.774 56.774 0 0 1 8.291-3.643c10.709-3.731 13.794-7.226 17.7-11.651 3.656-3.652-1.842-9.027-5.376-5.244-6.318 8.386-13.466 8.482-23.5 13.565-3.524-7.361-5.971-12.386-10.285-17.788 4.081-2.769 10.329-7.672 14.647-14.149 3.132-4.7 6.01-8.64 8.555-11.719 3.072-3.847-2.572-8.527-5.781-4.778a152.162 152.162 0 0 0 -9.014 12.337c-4.53 6.794-11.926 11.746-14.842 13.531a57.586 57.586 0 0 0 -7.993-3.647 50.564 50.564 0 0 1 6.874-5 40 40 0 0 0 13.656-13.609c2.33-4.339-4.069-7.924-6.547-3.658a32.7 32.7 0 0 1 -11.023 10.869 53.84 53.84 0 0 0 -11.2 8.891c-14.822-1.736-28.606 9.566-31.449 25.843-.805 4.612-1.44 9.185-1.943 13.577-.849-1.049-1.733-2.067-2.63-3.099zm8.724 19.959c.336-5.422.739-11.006 1.5-17.291l4.069 1.333c4.681 1.463 7.01-5.5 2.334-7.127l-5.375-1.761c.7-11.674 8.716-22.875 19.411-23.958-3.282 5.25 4.1 9.411 6.481 3.9a14.708 14.708 0 0 1 1.616-2.858c5.295 1.759 13.1 5.064 15.4 8.705a107.792 107.792 0 0 1 8.344 15.391c-7.428 5.168-10.732 10.119-10.936 10.431a3.75 3.75 0 0 0 6.268 4.117 35.613 35.613 0 0 1 7.564-7.356c1.125 3.025 2.3 6.449 3.553 10.4a82.26 82.26 0 0 1 -10.791 17.511c-6.841-6.206-17.9-11.076-35.753-10.383-2.18-3.724.266-6.2 3.185-7.218 4.646-1.588 2.426-8.548-2.287-7.143-3.968 1.041-11.453 6.725-8.7 14.984a44.1 44.1 0 0 0 -6.049 1.451c.054-1.011.105-2.045.166-3.125zm-15.934 28.031c4.918-19 26.5-19.363 27.8-19.391 27.209-1.736 36.777 9.976 40.019 20.1a1.107 1.107 0 0 1 -1.613 1.271l-8.838-4.6a3.749 3.749 0 0 0 -4.665.989l-5.143 6.454a1.123 1.123 0 0 1 -.776.42 1.137 1.137 0 0 1 -.84-.269l-9.459-8.177a3.75 3.75 0 0 0 -4.786-.1l-11.911 9.468a1.129 1.129 0 0 1 -1.421-.017l-7.724-6.448a3.751 3.751 0 0 0 -3.825-.592l-5.285 2.164a1.106 1.106 0 0 1 -1.533-1.269zm-26.619 16.5c-10.789 37.515-28.952 119.36-17.157 215.04a407.54 407.54 0 0 1 -39.46-13.468c10.559-34.136 12.98-80.354-24.7-119.445-1.231-3.044-2.552-6.26-3.531-8.969 19.628-32.026 48.146-56.608 84.848-73.159zm-88.88 83.432c17.93 41.541 19.239 66.149-5.4 99.428a7.992 7.992 0 0 1 -10.776 1.8c-32.953-22.07-28.828-67.985-25.525-86.7a173.418 173.418 0 0 0 1.885-40.681 108.465 108.465 0 0 0 18.458 1.01 75.389 75.389 0 0 0 14.044-3.436c.915 12.757 3.399 18.917 7.314 28.578zm-58.241-72.763a67.246 67.246 0 0 0 2.7-20.989c13.2 15.784-10.151 40.754 17.309 48.832a16.209 16.209 0 0 0 3.739 4.961c3.719 3.234 8.626-2.209 5.019-5.573-9.185-7.754 4.184-45.133 6.341-53.873 2.094 2.9 4.251 8.317 3.4 18-1.026 11.7-2.286 23.736-3.163 31.773a3.775 3.775 0 0 0 3.889 4.153c21.275-1.424 22.98-16.781 23.724-34.2 2.649 3.2 5.269 8.508 4.626 16.687-.394 27.337-27.049 35.493-58.629 27.254-17.028-5.326-12.763-23.484-8.955-37.025zm-10.982 20.041a24.349 24.349 0 0 0 2.734 11.9 40.622 40.622 0 0 1 -13.535-8.386c-2.783-4.374-4.249-10.1-4.357-16.872 4.892 6.339 9.964 10.808 15.158 13.358z"/><path d="m56.2 165.168c-.784 5.8 1.17 11.65 7.382 13.226l3.053.762a9.992 9.992 0 0 0 11.673-6.12 2.392 2.392 0 0 1 4.564.588l3.645 21.376c2.591 14 22.831 13.221 24.224-1.031.315-4.451 4.179-41.41 10.777-42.959 1.743-.437 3.4 1.758 3.964 3.589a10.385 10.385 0 0 0 20.136-4.609c-.886-7.547-1.18-21.768 6.8-32.223 8.4-11 33.747-49.466 7.486-82.555-27.215-32.735-65.897-29.943-90.204-20.402-37.018 13.01-51.844 72.853-25.384 109.908a69.3 69.3 0 0 1 11.884 40.45zm-17.155-94.849c10.965-97.126 178.5-52.726 107.409 42.9-9.579 12.553-9.3 28.975-8.285 37.647a2.887 2.887 0 0 1 -5.632 1.188c-1.683-5.114-6.319-9.3-11.939-8.484a10.321 10.321 0 0 0 -8.176 5.979c-5.8 12.666-8.223 32.87-9.153 43.785-.452 5.444-8.426 5.824-9.36.406l-3.65-21.38c-1.493-9.646-15.333-11.3-18.913-2.128a2.444 2.444 0 0 1 -2.9 1.647l-3.053-.763c-2.608-.687-1.623-3.823-1.7-5.772 1.161-43.482-30.417-48.531-24.648-95.025z"/><path d="m32.862 181.675c5.065.244 9.894-.122 13.249-4.519 5.7-7.154 1.091-16.734-3.821-23.108-5.5-7.309-17.615-5.217-20.353 3.518-3.251 8.911-1.354 24.05 10.925 24.109zm-3.849-21.623a4.26 4.26 0 0 1 4.056-3c4.424.177 7.107 7.672 8.088 11.249.742 2.737-1.4 5.925-4.274 5.875h-4.021c-6.228-.32-5.1-10.376-3.849-14.124z"/><path d="m142.193 180.125c-7.715 0-13.992 7.265-13.992 16.2.686 21.45 27.3 21.446 27.985 0 0-8.935-6.277-16.2-13.993-16.2zm0 24.893c-8.545-.416-8.542-16.979 0-17.393 8.545.416 8.542 16.975 0 17.393z"/><path d="m83.555 122.653c-1.655 10.039 4.767 19.8 14.788 20.282 14.92-.835 18.862-18.089 10.119-32.385-3.943-6.057-13.346-6.957-18.409-1.8-3.483 3.369-5.669 8.05-6.498 13.903zm7.425 1.047c2.37-14.544 12.871-14.641 14.389.483.766 5.853-1.025 9.447-5.475 10.988a4.749 4.749 0 0 1 -3.775-.289c-4.148-2.202-5.877-5.964-5.139-11.182z"/><path d="m58.273 103.605a11.581 11.581 0 0 0 13.239 1.122 61.192 61.192 0 0 0 19.137-17.468c8.1-10.866 2.721-28.094-10.556-31.6-26.336-7.159-40.14 34.641-21.82 47.946zm.773-27.9c3.3-9.492 9.582-13.357 15.36-13.357 10.436-.217 16.173 12.378 10.128 20.566a53.75 53.75 0 0 1 -16.811 15.34 4.056 4.056 0 0 1 -4.641-.405c-4.146-3.463-8.212-10.115-4.036-22.141z"/><path d="m127.2 108.046c25.134-2.026 34.937-45.839-.327-61-23.681-8.258-29.908 22.119-18.782 44.574 6.209 13.28 13.548 16.427 19.109 16.426zm-14.936-49.722a8.486 8.486 0 0 1 11.459-4.475c19.9 9.2 19.657 23.072 17.218 34.127-.741 3.376-6.551 11.824-12.921 12.524-5.888.648-10.4-6.2-13.137-12.06-5.171-11.063-6.077-21.477-2.619-30.116z"/><path d="m264.047 179.244c.222.095 6.515-1.3 6.93-1.37 4.807-1.092 3.3-8.268-1.537-7.341l-6.157 1.29c-4.371.942-3.658 7.408.764 7.421z"/><path d="m334.88 144.912a3.752 3.752 0 0 0 5.25-.756l1.779-2.377a3.75 3.75 0 1 0 -6-4.493l-1.779 2.377a3.75 3.75 0 0 0 .75 5.249z"/><path d="m270.507 387.677a3.749 3.749 0 0 0 -5.26.672 34.837 34.837 0 0 0 -5.023 28.67 71.815 71.815 0 0 1 -20.36-.5c-4.854-.842-6.235 6.359-1.407 7.367.368.4 15.48 1.8 20.62.827a40.43 40.43 0 0 0 1.542 28.3c2.08 4.481 8.77 1.521 6.865-3.019a33.234 33.234 0 0 1 .829-28.21 3.878 3.878 0 0 0 .42-2.556c-5.74-13.978 1.943-26.128 2.456-26.3a3.752 3.752 0 0 0 -.682-5.251z"/><path d="m293.571 418.048a33.459 33.459 0 0 1 -12.942 1.265 3.756 3.756 0 0 0 -4.015 3.465c-.147 4.29 4.232 4.215 7.349 4.161a37.949 37.949 0 0 0 11.973-1.774c4.647-1.633 2.343-8.59-2.365-7.117z"/><path d="m232.647 354-4.757-1.189c-4.8-1.109-6.582 6-1.819 7.276.667.128 5.076 1.378 5.669 1.3 4.334-.003 5.16-6.308.907-7.387z"/><path d="m303.791 361.353c.569.079 5.025-1.18 5.669-1.3 4.758-1.277 2.986-8.39-1.82-7.277l-4.757 1.19c-4.253 1.079-3.428 7.385.908 7.387z"/><path d="m449.588 206.713-1.884 2.3a3.75 3.75 0 1 0 5.8 4.749l1.885-2.3c3.059-3.868-2.613-8.511-5.801-4.749z"/><path d="m460.834 97.817-2.933 2.724c-3.556 3.417 1.439 8.788 5.1 5.5l2.932-2.724c3.559-3.417-1.433-8.796-5.099-5.5z"/><path d="m280.917 32.14c5.379-.092 5.378-8.094 0-8.185-5.38.091-5.379 8.094 0 8.185z"/></g></svg>