<svg id="icons" height="512" viewBox="0 0 500 500" width="512" xmlns="http://www.w3.org/2000/svg" xmlns:xlink="http://www.w3.org/1999/xlink"><linearGradient id="linear-gradient" gradientUnits="userSpaceOnUse" x1="171.721" x2="358.346" y1="114.93" y2="398.444"><stop offset="0" stop-color="#36a0ad"/><stop offset="1" stop-color="#13566b"/></linearGradient><linearGradient id="linear-gradient-2" x1="60.546" x2="247.171" xlink:href="#linear-gradient" y1="188.311" y2="471.825"/><linearGradient id="linear-gradient-3" gradientUnits="userSpaceOnUse" x1="170.666" x2="281.684" y1="82.033" y2="428.708"><stop offset="0" stop-color="#59c8db"/><stop offset=".996" stop-color="#28919f"/></linearGradient><linearGradient id="linear-gradient-4" x1="9.23" x2="110.923" xlink:href="#linear-gradient" y1="139.421" y2="357.616"/><linearGradient id="linear-gradient-5" gradientUnits="userSpaceOnUse" x1="232.338" x2="282.129" y1="55.92" y2="427.692"><stop offset="0" stop-color="#caffff"/><stop offset=".996" stop-color="#2390a8"/></linearGradient><linearGradient id="linear-gradient-6" gradientUnits="userSpaceOnUse" x1="255.871" x2="278.131" y1="118.219" y2="184.143"><stop offset="0" stop-color="#c2deff"/><stop offset="1" stop-color="#89b3ff"/></linearGradient><linearGradient id="linear-gradient-7" gradientUnits="userSpaceOnUse" x1="267.207" x2="298.742" y1="140.617" y2="239.057"><stop offset="0" stop-color="#6c98e7"/><stop offset="1" stop-color="#4e73c4"/></linearGradient><linearGradient id="linear-gradient-8" gradientUnits="userSpaceOnUse" x1="241.142" x2="268.854" y1="219.237" y2="423.615"><stop offset="0" stop-color="#ffd3d1"/><stop offset="1" stop-color="#f59f9b"/></linearGradient><linearGradient id="linear-gradient-9" gradientUnits="userSpaceOnUse" x1="384.556" x2="384.556" y1="162.871" y2="589.88"><stop offset="0" stop-color="#4f4a6b"/><stop offset="1" stop-color="#322d47"/></linearGradient><linearGradient id="linear-gradient-10" x1="400.999" x2="504.267" xlink:href="#linear-gradient-8" y1="374.629" y2="332.975"/><linearGradient id="linear-gradient-11" gradientUnits="userSpaceOnUse" x1="384.556" x2="384.556" y1="41.641" y2="130.193"><stop offset="0" stop-color="#ffd48c"/><stop offset="1" stop-color="#ff7a75"/></linearGradient><linearGradient id="linear-gradient-12" gradientUnits="userSpaceOnUse" x1="135.263" x2="302.966" y1="339.761" y2="339.761"><stop offset="0" stop-color="#fff"/><stop offset="1" stop-color="#ced9ff"/></linearGradient><linearGradient id="linear-gradient-13" gradientUnits="userSpaceOnUse" x1="235.304" x2="235.304" y1="302.674" y2="458.653"><stop offset="0" stop-color="#6170a0"/><stop offset="1" stop-color="#8d9bce"/></linearGradient><linearGradient id="linear-gradient-14" x1="231.272" x2="231.272" xlink:href="#linear-gradient-8" y1="163.881" y2="238.418"/><linearGradient id="linear-gradient-15" x1="245.777" x2="278.336" xlink:href="#linear-gradient-6" y1="231.339" y2="326.446"/><linearGradient id="linear-gradient-16" x1="235.398" x2="235.398" xlink:href="#linear-gradient-13" y1="303.467" y2="462.48"/><linearGradient id="linear-gradient-17" x1="76.189" x2="187.043" xlink:href="#linear-gradient-3" y1="112.415" y2="458.579"/><linearGradient id="linear-gradient-18" x1="306.41" x2="306.41" xlink:href="#linear-gradient-13" y1="303.467" y2="462.48"/><linearGradient id="linear-gradient-19" x1="241.3" x2="294.313" xlink:href="#linear-gradient-7" y1="226.829" y2="349.422"/><path d="m404.263 239.774c-6.141 198.754-294.614 198.707-300.726 0 6.141-198.754 294.615-198.707 300.726 0z" fill="url(#linear-gradient)"/><path d="m141.906 248.416c-1.707 55.246-81.891 55.233-83.589 0 1.707-55.245 81.89-55.232 83.589 0z" fill="url(#linear-gradient-2)"/><path d="m246.349 64.571c-41.142 0-120.849 29.129-120.849 29.129-89.2 58.954-117.87 98.527-115.4 141.078 1.311 22.61 18.36 41.009 41.009 41.009 27.988.56 48.538-29.175 38.513-55.13 52.457-69.992 88.007-108.192 156.726-111.559 185.951 13 178.688 269.915-3 279.356l51 37.268s131.27-29.3 131.27-176.925c-.001-101.745-80.262-184.226-179.269-184.226z" fill="url(#linear-gradient-3)"/><path d="m54.552 257.9a23.173 23.173 0 0 1 -13.4-4.429c-27.772-18.919 4.321-61.091 9.871-66.687 3.208-3.576 8.7 1.247 5.521 4.89-.212.239-21.182 24.2-19.1 42.59.58 10.992 14.773 20.471 23.51 14.421a7.815 7.815 0 0 0 3.283-8.844c-.778-3.262-4.6-6.279-7.279-5.763a3.688 3.688 0 0 1 -1.384-7.245c7.2-1.379 14.295 4.829 15.837 11.3 2.948 10.715-6.381 20.096-16.859 19.767z" fill="url(#linear-gradient-4)"/><path d="m244.769 20.3c-88.59 0-209.169 61.708-209.169 155.088a49.268 49.268 0 0 0 49.267 49.267c47.156 1.7 70.238-60.577 23.63-80.686 141.782-164.334 375.341-1.153 288.673 189.316l-83.712-3.641s-72.116 96.764-72.442 96.757l63.941 46.729s164.594-36.737 164.594-221.839c-.005-127.574-100.641-230.991-224.782-230.991z" fill="url(#linear-gradient-5)"/><path d="m208.207 189.314c-11.561-16.252-17.935-32.581-13.972-49.063a20.772 20.772 0 0 1 5.166-4.865 24.011 24.011 0 0 0 8.12-9.257 34.1 34.1 0 0 1 14.083-14.74l12.295-3.943c9.577-1.488 22.639.8 29.375 5.1l6.468 4.9c4.192 4.664 9.375 10.045 12.952 11.993 1.855 3.494 4.772 4.982 9.478 3.09 25.839-3.869 54.334-2.677 53.211 36.481a48.926 48.926 0 0 0 .673 9.727z" fill="url(#linear-gradient-6)"/><path d="m359.488 200.143c-10.738-6.453-13.432-21.406-13.432-21.406-24.689-24.1-35.227-18.112-54.189-14.826-7.709 1.335-18.826 1.221-23.324-6.152-12.148-19.91-39.124-23.628-58.523-8.451a9.652 9.652 0 0 1 -15.65-9.215c-.7 3.6-4.04 6.837-4.854 12.107-6.867 30.32 19.371 42.029 19.372 42.029 44.291 33.567 107.628 54.389 179 69.831 2.134-34.027-13.829-55.16-28.4-63.917z" fill="url(#linear-gradient-7)"/><path d="m379.772 254.92c-51.184-72.963-145.872-40.22-177.225-34.45 0 0-74.785 11.154-131.094 98.133a28.42 28.42 0 0 1 -7.3 7.706c-7.8 5.571-22.614 19.679-4.89 37.525 0 0-3.1 24.934 45.767 43.172 9.1 3.4 20.708 10.978 25.29 19.378 0 0-12.711-2.078-17.818 11.454-5.09 13.491 9.164 30.036 26.472 24.182 21.433-7.25 19.345-28 19.345-28l144.788-13.557 6.312-36.352c20.768-22.766 34.6-41.757 37.056-47.049 22.3 30.035 70.331 31.027 70.331 31.027l45.072-52.7c-15.886-35.225-40.992-49.929-59.263-56.067z" fill="url(#linear-gradient-8)"/><g fill="#e07a86"><path d="m387.389 255.619v94.964h15.225v-91.264a89.72 89.72 0 0 0 -15.225-3.7z"/><path d="m150.151 397.416 19.5 11.317 18.558-23.341 4.539-38.195-24.648-48.805-15.12-35.885a105.129 105.129 0 0 0 -29.01 69.6 3.527 3.527 0 0 1 -4.966 3.138 48.7 48.7 0 0 0 -20.336-3.549c-2.27.112-2.963 2.814-.971 3.789 6.529 3.193 15.5 9.582 26.434 20.012 7.681 7.328 16.081 28.894 16.081 28.894z"/><path d="m416.806 368.089 32.582-38.1-.215-10.81c-38.682-1.067-59.227 20.773-59.227 20.773h-8.44c5.064-48.173-35.3-63.105-35.3-63.105l-130.295 58.913-11.091 31.6 10.923 61.284 91.663-8.583 6.194-33.552c20.768-22.765 28.553-37.028 31.014-42.321 22.297 30.035 72.192 23.901 72.192 23.901z"/></g><path d="m377.164 137.456h14.783v342.491h-14.783z" fill="url(#linear-gradient-9)"/><path d="m461.878 315.384s41.931 16.659 18.585 43.235c-.322 5.762-14.387 47.209-86.058 35.7h-17.805a13.089 13.089 0 0 1 -13.09-13.089v-7.93l-2.58-1.613c-6.511-3.9-3.932-14.389 3.672-14.79l29.3-2.112a18.411 18.411 0 0 0 11.894-5.57c8.966-9.254 30.177-28.471 56.082-33.831z" fill="url(#linear-gradient-10)"/><path d="m437.874 20.963a203.725 203.725 0 0 0 -12.848 18.594 12.282 12.282 0 0 0 -1.22 9.941c2.628 8.511 7.315 26.916 5.383 44.948-1.936 18.072 1.6 34.836-27.4 34.8a10.611 10.611 0 0 1 -10.629-10.589v-44.678a11.5 11.5 0 0 1 2.54-7.629 15.894 15.894 0 0 0 3.4-13.029c-2.49-13.686-7.885-26.4-10.719-32.455a2.011 2.011 0 0 0 -3.645 0c-2.834 6.059-8.229 18.769-10.719 32.455a15.9 15.9 0 0 0 3.4 13.029 11.5 11.5 0 0 1 2.543 7.629v44.676a10.611 10.611 0 0 1 -10.629 10.589c-29 .038-25.466-16.726-27.4-34.8-1.932-18.032 2.755-36.437 5.384-44.948a12.285 12.285 0 0 0 -1.221-9.941 203.725 203.725 0 0 0 -12.848-18.594 2.015 2.015 0 0 0 -3.6 1.006c-2.847 27.137-.762 75.011 1.624 94.263a28.86 28.86 0 0 0 28.655 25.289h53.275a28.861 28.861 0 0 0 28.655-25.289c2.386-19.252 4.47-67.126 1.623-94.263a2.015 2.015 0 0 0 -3.604-1.004z" fill="url(#linear-gradient-11)"/><path d="m207.862 208.289s-124.362 51.632-47.55 241.378c-1.348 11.962 79.668 36.122 135.947 9.621l6.707-51.264c-30.951-14.413-91.266-51.724-101.048-126.613z" fill="url(#linear-gradient-12)"/><path d="m233.6 461.109c-89.157-86.126-52.677-199.216-52.677-199.216l8.119 17.32s-6.393 150.733 108.032 173.844c-16.454 6.022-38.737 7.908-63.474 8.052z" fill="url(#linear-gradient-13)"/><path d="m204.406 173.775c-3.307 12.792-5.38 32.375-4.681 51.314h63.229s0-24.084-2.63-47.316c-3.768-31.373-47.91-34.596-55.918-3.998z" fill="url(#linear-gradient-14)"/><path d="m231.847 209.03c-17.309 1.693-42.748 17.725-49.2 45.744 34.186 76.951 76.506 109.956 128.715 89.546 25.428-36 34.366-66.225 6.249-83.47-2.126-.829-23.033-8.782-33.709-29.612-14.327-29.691-52.055-22.208-52.055-22.208z" fill="url(#linear-gradient-15)"/><path d="m159.183 446.849s74.752 31.353 152.181 1.33l1.919 11.391a12.085 12.085 0 0 1 -8.331 13.56c-23.166 7.17-82.852 20.679-140.717-7.33a12.135 12.135 0 0 1 -6.406-14.318z" fill="url(#linear-gradient-16)"/><path d="m88.865 193.69c-13.962-.706-26.763-11.632-23.8-32.038 5.321-30.1 39.76-30.68 49.912-24.2l-6.48 6.513c-31.397-11.665-49.228 31.485-24.612 41.455 5.183 1.818 10.259.752 12.071-2.534a3.688 3.688 0 0 1 6.459 3.562c-2.572 4.662-7.676 7.242-13.55 7.242z" fill="url(#linear-gradient-17)"/><path d="m321.253 415.376a157.828 157.828 0 0 1 -18.286-7.354c.093 3.538-.337 9.806-3.876 14.806a18.691 18.691 0 0 0 -3.544 10.779c0 6.926-.883 17.619-5.6 25.132l21.418-10.56 1.659-14.514s14.63-6.859 8.229-18.289z" fill="url(#linear-gradient-18)"/><path d="m324.562 291.447a36.545 36.545 0 0 0 -6.954-30.581c41.526 15.306 57.348 45.182 40.68 80.117-11.732 24.588-35.379 24.44-50.039 21.524a100.185 100.185 0 0 0 -28.529-1.334c-42.777 3.838-61.579-16.756-69.255-30.431a65.723 65.723 0 0 0 -16.775-19.518c-12.945-10.16-19.84-23.543-11.041-56.45 4.247-16.335 13.873-28.881 24.039-35.624-6.511 11.551-14.319 32.627 1.21 50.661a53.242 53.242 0 0 0 8.321 7.427 64.415 64.415 0 0 1 24.525 38.121c.036.046 4.589 12.612 17.58 17.934 0 0 52.676 19.332 66.238-41.846z" fill="url(#linear-gradient-19)"/><path d="m51.108 281.042a44.5 44.5 0 0 0 13.854-2.208 45.226 45.226 0 0 0 22.3 14.786 275.885 275.885 0 0 0 -16.577 22.98 24.611 24.611 0 0 1 -6.348 6.709c-13.617 9.336-21.732 26.141-6.462 41.981.208 6.626 4.347 28.806 48.194 45.171 6.6 2.462 14.515 7.256 19.639 12.719-5.263 1.331-11.181 5.018-14.328 13.358-5.6 14.2 7.552 30.9 22.714 30.389 7.125.044 14.975-3.513 20.084-8.03a15.846 15.846 0 0 0 8.45 10.222c66.308 30.913 144.033 19.139 210.848-23.064v33.893h7.376v-81.942h7.407v81.941h7.376v-50.406a217.22 217.22 0 0 0 29.17-29.766c36.933-1.539 54.594-17.185 61.395-39.464 19.555-22.5-4.307-41.566-19.256-47.767-.086-.185-.174-.366-.26-.55 12.375-53.738 7.637-115.27-17.294-165.2a3.688 3.688 0 0 0 -6.636 3.218c22.946 46 28.139 101.607 18.556 151.709-12.416-21.233-28.24-33.555-42.616-40.709 1.642-33.567-5.041-67.512-19.608-93.213a27.712 27.712 0 0 1 -3.451-13.411c-.006-1.579 0-7.524 0-9.18h15.565a32.589 32.589 0 0 0 32.315-28.522c2.508-20.24 4.8-73.6 1.023-100.06a3.688 3.688 0 0 0 -6.5-1.817c-.5.609-12.307 15.063-19.129 28.115a3.694 3.694 0 0 0 -.178 3.023c.094.244 9.3 24.754 6.8 48.106-.454 4.206-.611 8.385-.962 12.451a233.933 233.933 0 0 0 -29.723-32.154 8.263 8.263 0 0 1 1.682-5.632 19.539 19.539 0 0 0 4.2-16.064c-3.528-19.367-12.528-36.512-12.913-37.232a3.713 3.713 0 0 0 -6.518 0c-.268.044-10.162 20-13.082 38.369-5.821-3.846-11.832-7.426-17.941-10.7-6.679-12.99-18.739-27.708-19.2-28.282a3.713 3.713 0 0 0 -6.5 1.817c-3.78 26.454-1.486 79.818 1.022 100.06a32.59 32.59 0 0 0 32.316 28.522h15.562v44.929a138.787 138.787 0 0 0 -110.515-81.96c-13.5-7.2-36.851-6.257-47.372 2.68-25.3 6.506-51.2 21.558-71.121 41.151-3.389 3.448 1.652 8.6 5.175 5.256a159.293 159.293 0 0 1 56.178-35.648c-2.208 4.11-4.534 8.3-8.454 10.7-8.354 4.746-14.063 18.849-11.466 34.119-22.049 12.654-35.51 34.793-36.08 35.744a3.688 3.688 0 0 0 6.324 3.8c.126-.209 12.238-20.08 31.441-31.958a39.832 39.832 0 0 0 12.09 18.521c-.617 5.325-1.047 10.912-1.269 16.524a126.483 126.483 0 0 0 -21.721 16.336c-9.867 3.6-20.217 9.132-31.865 16.318a45.89 45.89 0 0 0 -19.94-29.863c19.479-20.612 17.006-54.936-10.418-69.146 46.176-52.519 124.275-81.04 194.528-49.724 4.461 1.793 7.311-4.858 2.84-6.809-74.537-33.15-156.992-1.974-204.671 53.7-44.707-9.81-60.042 51.171-19.5 54.858 6.435 0 12.057-2.982 14.813-8.38 2.137-4.388-4.309-7.612-6.569-3.354-2.464 4.827-9.248 5.186-14.379 3.072-6.775-2.789-12.636-10.089-8.767-22.213 7.185-22.506 31.8-17.064 34.553-16.377 42.4 18.652 20.852 75.3-22.446 73.494a45.63 45.63 0 0 1 -45.579-45.578c0-41.048 24.755-79.929 69.7-109.481 53.427-34.247 119.566-50.369 180.12-37.35a3.688 3.688 0 1 0 1.511-7.219c-97.23-23.194-249.601 39.981-258.447 146.65-34.54 36.112-39.924 109.178 18.94 113.042zm89.013 177.484c-12.2 4.725-26.151-7.142-21.84-19.386 3.871-10.258 12.8-9.258 13.772-9.116a3.714 3.714 0 0 0 3.833-5.406c-5.13-9.4-17.716-17.514-27.238-21.068-30.364-11.333-39.517-25.15-42.254-33.007 9.785 3.091 18.481-7.509 14.624-17.021a19.529 19.529 0 0 0 -4.927-7.368c-3.585-3.262-8.529 1.988-5.056 5.37 3.047 2.665 5.178 8.191 1.6 11.116-3.327 2.772-7.891-.96-8.5-1.483-5.167-5.229-7.576-10.4-7.156-15.374.638-7.55 7.571-13.561 11.648-16.473a31.952 31.952 0 0 0 8.251-8.7c28.02-43.281 60.549-67.594 86.7-81.171-25.021 30.838-34.726 70.946-31.449 113.786-12.834-19.365-28.37-23.847-29.051-24.035a3.688 3.688 0 0 0 -1.977 7.106c.147.042 14.84 4.422 26.33 23.274a70.67 70.67 0 0 1 7.836 18.559q5.595 31.913 19.559 67.683c-2.692 6.034-7.626 10.319-14.705 12.714zm25.721 3.953a8.529 8.529 0 0 1 -4.242-10.756c39.716 14.584 99.631 19.307 146.87 1.474l1.177 6.986a8.426 8.426 0 0 1 -5.786 9.424c-22.608 7.001-81.315 20.323-138.019-7.128zm11.684-133.186a218.051 218.051 0 0 1 .633-31.5 37.524 37.524 0 0 0 8.941 12.607c1.832 50.561 29.89 118.143 98.24 141.929a203.958 203.958 0 0 1 -50.275 5.035c-44.181-43.325-55.7-93.486-57.539-128.071zm30.137-141.021c.785.18 5.126 1.662 5.856 1.576a3.7 3.7 0 0 0 1.045-7.225l-5.659-1.675c1.4-11.289 7.991-21.679 19.338-24.25a24.623 24.623 0 0 1 20.228 3.75 25.165 25.165 0 0 1 10.516 17.74c1.181 10.431 1.82 21.046 2.165 29.193-1.114-.354-2.225-.664-3.331-.94a3.647 3.647 0 0 0 -1.62-.379c-16.012-2.88-21.678-1.526-28.072-.153-4.348.934-7.822-.32-8.082-2.8-.078-2.955 3.991-4.894 4.088-4.939a3.688 3.688 0 0 0 -2.963-6.755c-6.144 2.375-12.218 11.427-5.751 18.608a64.8 64.8 0 0 0 -6.66 3.418q-1.536.9-3.142 1.978a210.059 210.059 0 0 1 2.044-27.147zm21.589-69.338c9.623-10.464 26.44-8.974 36.539-.088-18.507.74-27.939 14.781-28 29.927a31.745 31.745 0 0 0 -11.014.691c-2.596-5.726-7.43-19.922 2.475-30.53zm102.573 26.926c12.314 11.328 8.011 23.53 12.2 38.208-28.566-16.482-54.988-14.669-77.592-5.642a33 33 0 0 0 -3.662-12.567c2.217-7.762 18.3-31.648 44.866-29.626 6.968.546 17.474 3.26 24.188 9.627zm34.837 207.355a11.589 11.589 0 0 0 -3.461.8 51.24 51.24 0 0 1 -5.817-4.166c25.657-39.936 4.951-78.354-40.584-93.211-1.6-.718-21.3-9.865-29.574-27a41.1 41.1 0 0 0 -15.593-17.473c28.692-1.281 74.926 2.769 101.843 36.9v103.659zm-55.2 77.11a3.688 3.688 0 0 0 -2.1 2.921l-1.4 12.273q-4.738 1.77-9.46 3.238c-61.975-14.087-100.864-78.625-103.475-131.551a59.674 59.674 0 0 1 12.1 15.118 61.549 61.549 0 0 0 21.604 22.576c32.607 42.535 80.743 60.469 89.895 63.5 2.685 5.276-4.298 10.706-7.169 11.925zm.844-44.486-3.8 20.6c-15.716-6.939-42.05-20.993-64.223-44.621 9.823 3.158 23.879 4.241 35.775 3.026a96.68 96.68 0 0 1 27.479 1.278 71.327 71.327 0 0 0 19.944 1.128c-4.218 5.368-8.988 10.981-14.27 16.771a3.689 3.689 0 0 0 -.911 1.818zm19.036-26.786a35.428 35.428 0 0 1 -21.618-1.551c-25.543-9.793-34.132-30.024-36.84-45.273a61.492 61.492 0 0 0 -24.15-38.921c-30.866-22.742-19.813-46.015-19.311-47.028 2.129-4.292-4.31-7.641-6.577-3.337-7.04 16.241-2.984 38.334 21.512 56.3a54.143 54.143 0 0 1 21.263 34.273c2.473 13.921 9.324 31.546 27.259 43.575a109.448 109.448 0 0 0 -13.056.372c-21.845-2.66-34.769-15.635-38.407-38.578a64.4 64.4 0 0 0 -25.193-41.65c-31.654-22.4-10.488-52.153-3.158-57.851 12.982-7.042 23.589-8.47 37.808-6.867-6.013 18.776-1.923 37.062 22.62 58.185a78.019 78.019 0 0 1 22.092 28.308c4.449 9.938 13.742 21.926 32.742 22.6 15.051.714 27.284-6.354 31.007-19.356 6.672 19.396-5.535 53.163-27.998 56.799zm-50.759-126.212c10.054 20.523 32.3 30.139 33.645 30.713 15.155 5.287 26.966 12.517 34.952 21.275 10.376 14.627-2.3 31.044-20.594 29.417-12.208-.436-21.047-6.575-26.273-18.247a85.332 85.332 0 0 0 -24.136-30.989c-28.276-23.275-23-43.982-20.046-50.891 8.569 2.593 17.269 7.972 22.452 18.722zm-35.413-82.357c-.377-11.926 5.55-23.745 21.318-24.3 6.821-.754 11.173 4.938 16.519 7.68-13.708 6.6-21.437 18.068-25.1 25.1a32.349 32.349 0 0 0 -12.737-8.48zm128.306 87.343c-30.321-31.6-77.017-34.519-105.049-32.886-.258-5.552-.647-12.039-1.234-18.768 26.932-13.147 64.023-7.905 88.705 15.792a78.36 78.36 0 0 1 17.578 18.543zm-68.162-109.05c-14.275 1.131-18.731 1.692-30.266-11.031a133.731 133.731 0 0 1 31.01 11.021c-.253-.004-.495.008-.744.01zm-103.006 145.847a60.522 60.522 0 0 0 9.49 8.519c32.183 23.646 12.99 52.433 44.008 73.734-24.839-4.014-36.861-18.47-42.236-28.137a68.285 68.285 0 0 0 -17.661-20.462c-12.113-9.532-17.961-21.647-9.7-52.551a65.718 65.718 0 0 1 6.665-16.242c-2.507 10.235-1.389 22.569 9.434 35.139zm114.229 191.217c1.652-4.336-.906-13.3-1.45-17.763l1.382-12.092c6.992-3.827 13.582-13.1 8-22.412a3.691 3.691 0 0 0 -2.137-1.724c-.088-.028-1.652-.52-4.347-1.527a193.938 193.938 0 0 0 35.377-20.445 3.688 3.688 0 1 0 -4.37-5.942 185.67 185.67 0 0 1 -32.329 18.894l2.7-14.618a250.854 250.854 0 0 0 19.365-23.724 39.059 39.059 0 0 0 13.923-8.982 57.971 57.971 0 0 0 4.736 3.545c-3.414 5.555-1.053 13.35 4.76 16.289v5.889a16.793 16.793 0 0 0 11.329 15.851v40.086a236.908 236.908 0 0 1 -56.939 28.675zm79.1-46.076v-21.759c6.593-.04 13.363 1.479 19.716 1.607a210.064 210.064 0 0 1 -19.718 20.152zm65.207-102.865a3.791 3.791 0 0 0 2 1.91c7.448 3.015 35.347 17.554 17.349 37.175a7.045 7.045 0 0 1 -4.7 1.6c-1.974.108-6.162-3.91-5.436-6.255.5-2.628 3.821-5.247 4.935-5.951a3.688 3.688 0 1 0 -3.894-6.264c-.72.447-7.07 4.553-8.28 10.8-1.618 7.622 6.741 15.8 13.89 15.047-8.387 19.535-36.44 32.077-73.538 26.1-4.383-.641-19.565-.405-24.239-.428a9.412 9.412 0 0 1 -9.4-9.4v-7.934c.166-2.445-2.611-3.65-4.313-4.74-3.508-2.04-2.091-7.816 1.982-7.984l36.59-2.638a3.691 3.691 0 0 0 2.579-1.329c.155-.188 15.768-18.889 38.161-30.261 4.255-2.232 1.049-8.713-3.34-6.577-20.674 10.5-35.483 26.388-39.463 30.921l-6.084.438v-90.63c18.079 4.192 47.457 17.054 65.201 56.4zm-49.317-65.609c0 2.167-.041 4.323-.1 6.466a97.268 97.268 0 0 0 -15.79-4.808v-75.8c10.536 21.357 15.89 46.256 15.89 74.142zm11.108-135.006c-2.374 5.961-7.891 9.311-20.843 9.271a6.937 6.937 0 0 1 -6.946-6.9v-34.265a227.015 227.015 0 0 1 27.789 31.894zm-73.835-65.585a221.293 221.293 0 0 1 20.713 12.9c1.265 3.821 4.983 5.863 4.753 10.382v44.676a6.937 6.937 0 0 1 -6.946 6.9c-21.56.034-22.141-9.011-23.129-23.988-2.741-18.257.915-40.45 4.609-50.87zm-15.885 65.076c-2.207-17.8-4.255-61.6-2.016-89.137a168.529 168.529 0 0 1 12.01 18.284c-2.111 6.078-9 28.053-6.658 49.912.259 2.419.421 4.858.576 7.216 1 15.182 2.035 30.88 30.4 30.878a14.326 14.326 0 0 0 14.414-14.277v-44.673a15.334 15.334 0 0 0 -3.394-9.986 12.181 12.181 0 0 1 -2.6-10.018 133.216 133.216 0 0 1 8.912-28.168 133.274 133.274 0 0 1 8.912 28.168 12.178 12.178 0 0 1 -2.6 10.018 15.34 15.34 0 0 0 -3.394 9.986v44.676a14.327 14.327 0 0 0 14.414 14.277c28.356 0 29.394-15.7 30.4-30.878 3.5-21.962-2.785-49.339-6.082-57.128a168.53 168.53 0 0 1 12.011-18.284c2.239 27.541.19 71.335-2.016 89.136a25.2 25.2 0 0 1 -25 22.055h-53.29a25.2 25.2 0 0 1 -24.995-22.054zm55.34 29.429v206.45l-7.407.534v-206.981zm-16.447 61.285a110.815 110.815 0 0 0 -11.763-10.7c-9.613-7.931-10.5-18.8-11.565-32.825a134.079 134.079 0 0 1 23.332 43.528zm-161-78.7a30.185 30.185 0 0 1 12.332-13.07c-11.623 13.336-6.5 29.957-3.3 37.271a31.973 31.973 0 0 0 -13.4 12.756c-8.134-4.846-9.989-14.672-6.488-25.181 4.448-3.013 8.399-6.685 10.86-11.773zm-18.055 31.755c2.02 5.625 7.521 10.428 10.778 12.039a103.992 103.992 0 0 0 -2.572 11.81c-4.23-4.989-8.008-12.594-8.202-23.846zm5.507 61.663c-8.926 7.347-18.24 23.935-20.892 39.682-15.305 47.35-10.717 138.55 46.889 195.991a228.644 228.644 0 0 1 -62.226-12.879c-42.544-104.92-23.15-188.367 36.2-226.184q.005 1.705.033 3.393zm-60.246 24.98a235.118 235.118 0 0 0 -45.514 41.143 37.838 37.838 0 0 1 -20.416-11.531 45.026 45.026 0 0 0 16.108-14.529c30.356 11.772 34.938-29.571 22.779-25.981a3.69 3.69 0 0 0 -1.9 4.857c1.293 2.955 1.018 6.077-.84 9.544-3.167 6.812-10.787 7.345-16.409 5.068a44.731 44.731 0 0 0 3.1-27.249 53.563 53.563 0 0 0 24.307-10.478 38.373 38.373 0 0 1 18.789 29.159zm-105.914-66.401a52.764 52.764 0 0 0 13.935 31.564c-7.568 6.988-15.935 19.82-7.4 32.1 6.837 10.4 18.46 7.954 24.415 2.71 3.59-3.221-1.083-8.649-4.812-5.59-2.852 2.409-9.431 5.252-13.548-1.332-6.413-9.22 2.357-18.846 6.751-22.8a52.93 52.93 0 0 0 36.089 11.851c5.348 22.864-12.921 45.668-36.43 45.382-48.231-3.049-44.182-62.615-19-93.885z" fill="#2b2a3a"/><path d="m232.3 189.417c.711.149 6.9-2.178 7.7-2.377a3.688 3.688 0 1 0 -2.341-7l-6.528 2.185c-3.931 1.275-2.899 7.257 1.169 7.192z" fill="#2b2a3a"/><path d="m307.385 34.073c5.291-.09 5.29-7.96 0-8.05-5.285.09-5.285 7.96 0 8.05z" fill="#2b2a3a"/></svg>