<svg id="icons" height="512" viewBox="0 0 500 500" width="512" xmlns="http://www.w3.org/2000/svg" xmlns:xlink="http://www.w3.org/1999/xlink"><linearGradient id="linear-gradient" gradientUnits="userSpaceOnUse" x1="267.823" x2="303.986" y1="32.539" y2="129.776"><stop offset="0" stop-color="#e05a9d"/><stop offset="1" stop-color="#d84385"/></linearGradient><linearGradient id="linear-gradient-2" gradientUnits="userSpaceOnUse" x1="314.95" x2="325.955" y1="82.013" y2="135.469"><stop offset="0" stop-color="#a83d68"/><stop offset="1" stop-color="#752a50"/></linearGradient><linearGradient id="linear-gradient-3" gradientUnits="userSpaceOnUse" x1="94.581" x2="98.972" y1="-7.688" y2="67.44"><stop offset="0" stop-color="#f8ffff"/><stop offset="1" stop-color="#d4e3ff"/></linearGradient><linearGradient id="linear-gradient-4" gradientUnits="userSpaceOnUse" x1="99.547" x2="118.24" y1="59.074" y2="130.73"><stop offset="0" stop-color="#a7b8e3"/><stop offset="1" stop-color="#8d9cc9"/></linearGradient><linearGradient id="linear-gradient-5" x1="166.045" x2="82.215" xlink:href="#linear-gradient-2" y1="455.067" y2="279.629"/><linearGradient id="linear-gradient-6" gradientUnits="userSpaceOnUse" x1="354.636" x2="364.868" y1="166.415" y2="410.079"><stop offset="0" stop-color="#b36d8c"/><stop offset="1" stop-color="#7f4a67"/></linearGradient><linearGradient id="linear-gradient-7" gradientUnits="userSpaceOnUse" x1="220.723" x2="258.963" y1="338.56" y2="338.56"><stop offset="0" stop-color="#ffe0a6"/><stop offset="1" stop-color="#ffae85"/></linearGradient><linearGradient id="linear-gradient-8" gradientUnits="userSpaceOnUse" x1="224.939" x2="307.359" y1="334.804" y2="376.169"><stop offset="0" stop-color="#ef7554"/><stop offset="1" stop-color="#dd6049"/></linearGradient><linearGradient id="linear-gradient-9" gradientUnits="userSpaceOnUse" x1="194.894" x2="223.692" y1="326.283" y2="351.302"><stop offset="0" stop-color="#ffd3d1"/><stop offset="1" stop-color="#f59f9b"/></linearGradient><linearGradient id="linear-gradient-10" x1="381.709" x2="355.724" xlink:href="#linear-gradient-9" y1="373.845" y2="290.876"/><linearGradient id="linear-gradient-11" x1="290.832" x2="287.476" xlink:href="#linear-gradient-9" y1="212.542" y2="320.414"/><linearGradient id="linear-gradient-12" x1="277.573" x2="277.573" xlink:href="#linear-gradient-9" y1="183.07" y2="149.636"/><linearGradient id="linear-gradient-13" x1="367.408" x2="377.64" xlink:href="#linear-gradient-6" y1="165.878" y2="409.543"/><linearGradient id="linear-gradient-14" x1="264.048" x2="294.175" xlink:href="#linear-gradient-7" y1="97.324" y2="119.501"/><linearGradient id="linear-gradient-15" x1="281.869" x2="318.088" xlink:href="#linear-gradient-8" y1="115.769" y2="157.116"/><linearGradient id="linear-gradient-16" x1="252.098" x2="288.72" xlink:href="#linear-gradient-7" y1="120.874" y2="146.386"/><linearGradient id="linear-gradient-17" x1="291.544" x2="310.434" xlink:href="#linear-gradient-7" y1="229.058" y2="245.537"/><linearGradient id="linear-gradient-18" x1="244.795" x2="262.601" xlink:href="#linear-gradient-7" y1="278.103" y2="307.101"/><linearGradient id="linear-gradient-19" x1="237.884" x2="261.833" xlink:href="#linear-gradient-8" y1="276.452" y2="307.554"/><linearGradient id="linear-gradient-20" gradientUnits="userSpaceOnUse" x1="295.445" x2="290.545" y1="275.898" y2="357.972"><stop offset="0" stop-color="#fff"/><stop offset="1" stop-color="#ced9ff"/></linearGradient><linearGradient id="linear-gradient-21" gradientUnits="userSpaceOnUse" x1="339.377" x2="327.847" y1="248.532" y2="349.015"><stop offset="0" stop-color="#8585b7"/><stop offset="1" stop-color="#5d6da5"/></linearGradient><linearGradient id="linear-gradient-22" x1="281.386" x2="297.743" xlink:href="#linear-gradient-20" y1="331.23" y2="444.64"/><linearGradient id="linear-gradient-23" x1="287.825" x2="314.696" xlink:href="#linear-gradient-21" y1="362.159" y2="449.137"/><linearGradient id="linear-gradient-24" x1="377.899" x2="471.826" xlink:href="#linear-gradient-8" y1="362.146" y2="460.739"/><linearGradient id="linear-gradient-25" gradientUnits="userSpaceOnUse" x1="448.762" x2="428.503" y1="438.531" y2="314.64"><stop offset="0" stop-color="#45a8bc"/><stop offset="1" stop-color="#225e7a"/></linearGradient><linearGradient id="linear-gradient-26" gradientUnits="userSpaceOnUse" x1="406.22" x2="470.332" y1="327.825" y2="457.091"><stop offset="0" stop-color="#1a7d8e"/><stop offset="1" stop-color="#00334c"/></linearGradient><linearGradient id="linear-gradient-27" x1="386.255" x2="446.712" xlink:href="#linear-gradient-7" y1="306.825" y2="440.793"/><linearGradient id="linear-gradient-28" x1="419.863" x2="470.268" xlink:href="#linear-gradient-8" y1="428.962" y2="466.765"/><linearGradient id="linear-gradient-29" x1="438.839" x2="468.56" xlink:href="#linear-gradient-7" y1="329.477" y2="401.218"/><linearGradient id="linear-gradient-30" x1="450.209" x2="500.614" xlink:href="#linear-gradient-8" y1="388.5" y2="426.304"/><linearGradient id="linear-gradient-31" gradientUnits="userSpaceOnUse" x1="123.137" x2="227.029" y1="184.387" y2="654.905"><stop offset="0" stop-color="#4f4a6b"/><stop offset="1" stop-color="#322d47"/></linearGradient><linearGradient id="linear-gradient-32" x1="138.261" x2="217.715" xlink:href="#linear-gradient-9" y1="347.466" y2="340.199"/><linearGradient id="linear-gradient-33" x1="98.518" x2="46.265" xlink:href="#linear-gradient" y1="114.452" y2="238.251"/><linearGradient id="linear-gradient-34" x1="281.104" x2="316.25" xlink:href="#linear-gradient-8" y1="118.836" y2="158.958"/><linearGradient id="linear-gradient-35" x1="334.873" x2="357.648" xlink:href="#linear-gradient-7" y1="238.8" y2="255.144"/><linearGradient id="linear-gradient-36" x1="258.315" x2="304.436" xlink:href="#linear-gradient-7" y1="354.08" y2="374.302"/><linearGradient id="linear-gradient-37" x1="230.225" x2="312.645" xlink:href="#linear-gradient-8" y1="324.27" y2="365.636"/><linearGradient id="linear-gradient-38" x1="322.837" x2="361.889" xlink:href="#linear-gradient-8" y1="215.256" y2="269.009"/><path d="m261.575 91.525c-11.5-18.41-32.865-23.593-44.483-25.049a3.433 3.433 0 0 1 -1.717-6.076 143.063 143.063 0 0 1 33.925-20.647c48.223-19.1 104.393 7.079 107.821 69.957.41 10.189 2.591 17.613 5.9 22.935 1.139 26.841-28.034 8.545-53.288-17.811z" fill="url(#linear-gradient)"/><path d="m331.724 119.128a22.379 22.379 0 0 0 11.454 14.8 12.3 12.3 0 0 0 2.384.975c5.659 1.495 10.651 1.121 17.458-2.263 4.649 7.474 11.52 10.807 18.841 11.813a2.106 2.106 0 0 1 .959 3.768c-14.946 10.07-49.163 7.967-73.095-33.388l-48.155-23.31-.513-1.8s19.424-7.455 47.559 3a36.805 36.805 0 0 1 22.972 25.849q.071.278.136.556z" fill="url(#linear-gradient-2)"/><path d="m84.822 71.549s3.864-37.863 10.3-57.525c0 0 10.87 38.311 19.336 72.949 1.2 10.463-3.892 17.86-8.49 14.578-3.825-12.851-10.286-25.619-21.146-30.002z" fill="url(#linear-gradient-3)"/><path d="m105.968 101.552a149.986 149.986 0 0 1 5.459 32.325l11.6-7.378c-1.686-10.213-4.9-24.525-8.569-39.526a77.073 77.073 0 0 1 -8.49 14.579z" fill="url(#linear-gradient-4)"/><path d="m254.8 133.877s-20.96 16.854-16.341 56.939c4.247 36.862 3.287 39.638-9.766 52.861-13.924 12.164-45.59 32.3-23.873 71.925 0 0 20.393 20.483-5.967 58.13 0 0-17.4 25.439 23.542 52.139l119.76-9.3c80.706-52.293 179.43-205.66-15.157-222.921l-33.894-55.83z" fill="#5e3853"/><path d="m74.519 265.59s51.086-5.151 70.833 16.313c17.773 19.319 10.509 92.882-18.661 124.615a33.6 33.6 0 0 1 -21.6 10.562c-12.322 1.17-33.6 2.419-49.035-9.1-7.088-5.291-7.422 1.664-5.438 5.169 8.96 15.826 24.62 37.6 57.4 43.37 11.992 2.112 26.512-2.878 32.777-13.32 13.262-22.107 35.439-67.513 41-138.3 1.7-21.611-10.254-43.06-30-52.008-14.862-6.736-36.344-10.85-66.98-6.613 0 0-41.642 8.157-43.788-25.328.007-.006-18.453 36.05 33.492 44.64z" fill="url(#linear-gradient-5)"/><path d="m377.964 369.873s-13.114 19.181-39.686 30.227l22.9 41.1a61.975 61.975 0 0 1 29.211-46.625z" fill="url(#linear-gradient-6)"/><path d="m258.963 315.6-27.292 15.357a16.841 16.841 0 0 1 -9.281 1.993c-2.663 8.821-1.979 18.023.94 27.48l17.816 1.056a16.344 16.344 0 0 0 17.309-16.038z" fill="url(#linear-gradient-7)"/><path d="m232.85 342.817-9.3.784s-1.121 1.331-2.75 3.361a56.264 56.264 0 0 0 2.531 13.47l17.816 1.056a16.344 16.344 0 0 0 17.309-16.038l.342-20.088-12.248 11.392a22.945 22.945 0 0 1 -13.7 6.063z" fill="url(#linear-gradient-8)"/><path d="m223.438 360.217a35.937 35.937 0 0 0 2.588-16.825l-33.217-10.44h-30.226l6.94 24.291 53.807 3.189z" fill="#e07a86"/><path d="m222.39 332.952h-29.581a5.255 5.255 0 0 0 -1.437 4.307c.74 6.181 4.624 6.181 4.624 6.181l30.047-.049a21.13 21.13 0 0 0 -3.653-10.439z" fill="url(#linear-gradient-9)"/><path d="m347.7 309.32c19.219 21.224 6.932 37.054 26.122 62.2l15.5-17.416a145.251 145.251 0 0 1 -14.651-37.785 173.858 173.858 0 0 0 -13.245-33.328c-8.257 3.093-14.2 16.224-13.726 26.329z" fill="url(#linear-gradient-10)"/><path d="m361.422 282.994a86.089 86.089 0 0 0 -13.056-18.726l-15.336 30.46a119.16 119.16 0 0 1 14.67 14.593 145.192 145.192 0 0 1 13.722-26.327z" fill="#e07a86"/><path d="m309.838 224.558a108.278 108.278 0 0 1 -1.308-14.958c-6.786-1-16.582 3.109-20.26 9.97-.152 1.6-.344 3.2-.583 4.79 2.715 8.432 2.155 12.811-8.594 11.762-8.832-3.094-28.206-2.291-25.154 28.572a53.5 53.5 0 0 0 -12.455 10.689l31.766 31.988a96.191 96.191 0 0 0 19.692-13.17l44.627-60.564-15.769 2.588c-9.878 1.546-15.683-1.225-11.962-11.667z" fill="url(#linear-gradient-11)"/><path d="m321.8 236.225c-6.346.962-12.283.234-12.913-4.44l-19.787-1.585c.171 4.158-2.044 6.394-8.688 6.026v2.974s15.335 30.3 46.574 21.208l10.579-26.771z" fill="#e07a86"/><path d="m289.526 290.14c-9.806 1.9-10.761-7.149-10.761-7.149a25.414 25.414 0 0 0 -7.026-11.4 1.667 1.667 0 0 0 -2.8 1.477c.987 5.63 1.532 15.255-4.622 20.681l-.158 4.47 9.094 9.158a96.191 96.191 0 0 0 19.692-13.17l1.858-2.521c-.788-1.347-2.364-2.109-5.277-1.546z" fill="#e07a86"/><path d="m308.531 209.6a156.677 156.677 0 0 1 .691-18.843l-21.367.679a137.5 137.5 0 0 1 .436 28.136 74.009 74.009 0 0 0 20.24-9.972z" fill="#e07a86"/><path d="m254.338 151.833c-2 6.977-3.4 19.146-3.013 28.578a33.319 33.319 0 0 0 17.975 29.753c2.874 1.589 6.286 2.758 9.553 1.658 6.971-2.114 21.954-8.639 25.033-26.165l-20.567-35.805z" fill="url(#linear-gradient-12)"/><path d="m257.234 142.426a84.261 84.261 0 0 0 -2.895 9.407c3.259.405 6.7.786 10.053 1.079a5.1 5.1 0 0 1 4.542 4.038c1.858 8.784 8.874 30.322 33.383 34.482 2.809-2.546 1.169-42.893 1.568-46.829 0-.003-37.943-5.909-46.651-2.177z" fill="#e07a86"/><path d="m397.949 342.369c48.1-45.981 31.179-116.976-54.452-131.893-57.339-9.989-67.112-39.431-67.531-57.137 0 0 32.926-14.646 52.8 14.59 0 0 2.637 24.611 44.988 32.174 0 0 141.818 21.148 68.058 144.081z" fill="url(#linear-gradient-13)"/><path d="m326.624 164.961c-19.9-26.211-49.019-25.574-49.019-25.574a46.461 46.461 0 0 0 -1.636 13.951 154.78 154.78 0 0 1 50.512 12.462z" fill="#542e48"/><path d="m261.575 91.525s6.263 11.606.016 22.985c13.968 7.475 29.925 13.046 47.631 16.943 3.691-2.9 6.586-6.222 5.068-11.929-8.897-13.164-24.69-25.265-52.715-27.999z" fill="url(#linear-gradient-14)"/><path d="m314.286 119.527c-4.742 4.511-11.111 2.686-17.509-.13-12.665-5.574-25.724-8.98-33.248-9.643a24.651 24.651 0 0 1 -6.609 10.782l68.768 37.742s.996-20.407-11.402-38.751z" fill="url(#linear-gradient-15)"/><path d="m252.2 142.581a147.635 147.635 0 0 1 41.965 5.906c12.648 2.829 18.445-5.041 12.687-12.6-11.129-8.129-27.848-15.3-52.927-17.864-7.991-.4-8.968 10.923-8.516 18.512a6.775 6.775 0 0 0 6.791 6.046z" fill="url(#linear-gradient-16)"/><path d="m279.093 236.124s1.836 6.28 11.194 11.083a11.054 11.054 0 0 0 6.433 1.134c5.522-.7 16.6-3.183 23.45-11.99-6.019-2.194-8.3-5.122-10.332-11.793 0 0-11.127 6.257-22.151-.2-.677 5.981-4.762 8.923-8.594 11.766z" fill="url(#linear-gradient-17)"/><path d="m263.32 284.722a39.243 39.243 0 0 0 -21.835-9.336 28.17 28.17 0 0 0 -6.072 11.488s7.182 25.229 37.836 20.5c-.675-6.93-2.949-16.414-9.929-22.652z" fill="url(#linear-gradient-18)"/><path d="m241.484 292.584a22.149 22.149 0 0 1 -6.066-5.709c-1.166 5.107-.416 10.817 3.937 16.825 8.666 11.959 22.468 9.213 33.894 3.671-.527-5.4-2.038-12.36-5.988-18.122-.076.081-11.687 12.395-25.777 3.335z" fill="url(#linear-gradient-19)"/><path d="m251.325 355.21s-17.95-6.285-9.841-22 13.985-25.34 46.056-51.853a328.832 328.832 0 0 0 30.517-28.734c12.771 1.759 25.97 13.911 29.164 30.423-4.107 6.5-26.206 42.34-21.442 53.275 1.978 4.441 3.935 12.738-4.849 18.887-23.791 7.072-47.002 7.179-69.605.002z" fill="url(#linear-gradient-20)"/><path d="m333.42 234.319a193.093 193.093 0 0 1 -15.364 18.305c2.541 6.8 11.736 27.795 29.168 30.426 6.058-9.357 10.789-15.2 10.789-15.2z" fill="url(#linear-gradient-21)"/><path d="m250.221 368.723s-18.9 3.641-27.774 57.148c0 0 54.045 49.205 151.379 44.634 0 0-.786-37.843-40.339-88.829 0 0-61.18-16.276-83.266-12.953z" fill="url(#linear-gradient-22)"/><path d="m322.816 368.723c-25.942-2.743-50.509-3.323-72.595 0 0 0 38.054 22.806 83.265 12.954q-4.925-6.348-10.67-12.954z" fill="url(#linear-gradient-23)"/><path d="m369.241 369.548a57.178 57.178 0 0 1 18.154-27.4l32 76.472-11.952 4.5s-4.524-16.168-21.382-28.917a99.48 99.48 0 0 1 -14.343-13.189 11.982 11.982 0 0 1 -2.477-11.466z" fill="url(#linear-gradient-24)"/><path d="m407.444 423.12c-1.112 1.886-11.529 22.082-1.885 29.255l9.6 8.53a7.319 7.319 0 0 0 10.922.8l9.127-8.893-15.808-34.188z" fill="#e07a86"/><path d="m413.63 294.273a161.28 161.28 0 0 1 24.51 22.869l46.96 108.166-1.586 34.732c-66.945 1.598-114.197-120.525-69.884-165.767z" fill="url(#linear-gradient-25)"/><path d="m420.57 420.947c28.146 41.669 62.944 39.093 62.944 39.093a151.873 151.873 0 0 0 1.586-34.732l-9.154-21.084c-20.346 18.426-40.273 19.989-55.376 16.723z" fill="url(#linear-gradient-26)"/><path d="m483.511 460.04c-102.259-51.291-79.675-139.093-69.882-165.767-10.341-7.732-17.366-10.727-17.366-10.727-7.195 12.786-28.609 73.146 6.656 130.861 29.775 33.655 56.941 50.78 80.592 45.633z" fill="url(#linear-gradient-27)"/><path d="m483.511 460.04c-22.288-11.18-38.642-24.094-50.494-37.731a64.646 64.646 0 0 1 -30.092-7.906c31.264 56.2 74.691 68.094 74.691 68.094s3.573-8.307 5.895-22.457z" fill="url(#linear-gradient-28)"/><path d="m468.363 363.365a204.444 204.444 0 0 0 -30.223-46.223c-2.895 22.7-3.624 66.892 27.522 95.057 7.827 2.921 15.48-3.51 15.48-13.03a174.259 174.259 0 0 0 -12.779-35.804z" fill="url(#linear-gradient-29)"/><path d="m485.1 425.309a161.153 161.153 0 0 0 -3.961-26.138 86.929 86.929 0 0 1 -15.466 13.022 85.082 85.082 0 0 0 19.427 13.116z" fill="url(#linear-gradient-30)"/><path d="m110.569 129.169 12.46-9.968 69.975 370.477h-16.743z" fill="url(#linear-gradient-31)"/><path d="m159.4 322.057 14.342-3.287a7.939 7.939 0 0 1 9.48 5.916l1.415 9.884a6.76 6.76 0 0 1 -5.688 8.537l-8.8 1.077z" fill="#e07a86"/><path d="m135.049 336.005a11.511 11.511 0 0 0 5.77 8.179s-5.473 10.441 3.128 15.132c-1.962 3.624-.1 10.9 7.775 10.537l15.378-2.363c5.587-.792 7.758-6.289 7.058-11.408a12.525 12.525 0 0 1 -.4-7.533c-.272-3.222-.7-6.708-1.353-10.307a9.818 9.818 0 0 1 -1.633-7.326c-.879-5.742-5.194-10.5-11.379-8.859l-19.359 5.3a7.673 7.673 0 0 0 -4.985 8.648z" fill="url(#linear-gradient-32)"/><path d="m128.2 108.982a4.845 4.845 0 0 0 -7.964-.892c-8.452 9.883-27.879 34.74-72.763 68.862-61.818 46.997-27.473 91.648 27.046 88.638 0 0-56.667-13.737-5.152-77.273 41.164-50.768 51.9-47.827 58.96-61.243a19.408 19.408 0 0 0 -.127-18.092z" fill="url(#linear-gradient-33)"/><path d="m152.265 343.479 20.138-5.237c-.436-2.406-.976-4.861-1.636-7.324l-20.39 5.3c-4.767 1.334-2.877 8.43 1.888 7.261z" fill="#e07a86"/><path d="m173.758 348.549-20.385 3.332a3.75 3.75 0 0 0 1.21 7.4l19.578-3.2c-.05-2.258-.173-4.802-.403-7.532z" fill="#e07a86"/><path d="m328.766 167.929s-2.073-17.549-21.913-32.041c-.48 15.5-12.688 12.6-12.688 12.6 12.221 3.735 24.702 9.751 34.601 19.441z" fill="url(#linear-gradient-34)"/><path d="m365.892 244.26c-4.213-6.527-11.085-13.089-22.273-17.674a14.284 14.284 0 0 0 -12.122-.048c-19.518 10.785 4.031 48.893 32.837 37.728 3.966-6.313 4.745-12.955 1.558-20.006z" fill="url(#linear-gradient-35)"/><path d="m251.325 355.21a244.913 244.913 0 0 0 54.645 1.572c3.252 5.34-1.206 13.091-11.166 14.486a200.934 200.934 0 0 1 -44.583-2.545 41.763 41.763 0 0 1 1.104-13.513z" fill="url(#linear-gradient-36)"/><path d="m305.969 356.774c-2.21 9.847-9.044 13.559-11.166 14.491 9.115-.4 18.465-1.278 28.013-2.542.618-4.237-.214-8.785-1.886-13.513q-7.52.984-14.961 1.564z" fill="url(#linear-gradient-37)"/><path d="m370.237 253.228v-.02a41.267 41.267 0 0 0 -4.348-8.945 12.027 12.027 0 0 1 .079 1.771c-.3 11.811-14.6 17.487-23.5 9.718a39.109 39.109 0 0 1 -8.174-10.008c-7.187-12.489.735-20.348.735-20.348-6.705 2.785-9.316 7.114-9.316 7.114s-2.29 16 6.581 25.793c11.461 12.814 24.451 16.777 34.822 12.048 7.192-3.119 5.269-10.646 3.121-17.123z" fill="url(#linear-gradient-38)"/><g fill="#2b2a3a"><path d="m69.431 269.482c7.4.574 36.894-5.121 64.406 8.3l8.225 45.135c-12.156 1.99-14.157 14.895-5.822 22.59-1.447 4.59-1.706 11.039 3.385 15.381a10.626 10.626 0 0 0 3.014 9.393c-7.492 19.773-17.164 41.054-37.9 43.068-15.121 1.431-42.839.851-58.614-19.149a3.75 3.75 0 0 0 -6.545 3.371 98.516 98.516 0 0 0 14.586 27.942c12.051 19.929 66.7 56.684 89.846 19.609a248.3 248.3 0 0 0 14.955-29.438l13.482 73.991h7.624l-21.339-117.105 8.1-1.244 22.355 118.352h7.632l-22.93-121.4a12.043 12.043 0 0 0 3.84-6.787l23.924 1.418a91.364 91.364 0 0 1 -5.805 9.08c-12.632 18.255.3 42.009 24.285 56.849 1.863 1.652 15.416 13.276 39.944 24.48 28.233 13.263 66.992 21.586 101.23 21.237q6.216 0 12.694-.3a3.751 3.751 0 0 0 3.574-3.824c-.023-1.073-.528-16.218-10.492-39.853a57.863 57.863 0 0 1 20.944-29.863 71.789 71.789 0 0 1 7.6 7.9c2.515 5 5.129 9.68 7.8 14.064-3.413 7.028-10.75 23.925-.365 32.5l9.355 8.317a11.074 11.074 0 0 0 7.742 4c5.8.689 9.662-4.244 13.368-7.826 3.884 3.561 7.6 6.6 11.025 9.163 17.706 13.251 31.49 17.12 32.068 17.278a3.757 3.757 0 0 0 4.435-2.135c18.63-48.817 3.882-110.375-27.575-153.38 33.835-65.624-.9-111.938-57.761-128.962 38.043-10.768 40.858 9.286 46.98 2.26a3.751 3.751 0 0 0 -.9-5.226c-11.2-7.89-25.685-9.834-41.9-5.623-27.6 6.965-47.422-3.606-48.393-3.969-17.129-8.873-18.922-20.861-19.013-21.579a38.685 38.685 0 0 0 -3.035-9.975 71.669 71.669 0 0 0 -1.6-14.866c19.113 13.894 27.561 13.89 36.576 14.3 19.971-.238 27.346-10.559 24.858-14.069a3.751 3.751 0 0 0 -3.135-1.849c-9.354-.238-16.066-3.8-20.215-10.739-3.042-5.08-4.728-11.974-5.081-20.741-.543-31.691-18.546-58.114-42.2-70.183-21.62-11.763-47.431-12.886-70.814-3.084a145.49 145.49 0 0 0 -41.406 26.937 3.751 3.751 0 0 0 -.839 4.121 3.686 3.686 0 0 0 3.515 2.308c.335 0 34.156-.2 49.214 23.759.652 1.3 5.5 11.683-1.227 21.189-5.458-1.287-11.343.814-13.406 6.593-2.2 5.6-5.258 21.3 4.781 24.47-29.933 28.5.283 73.708-17.506 91.99-11.092 12.207-22.074 6.759-28.087-.707-3-3.892-8.888.49-6.01 4.487.294.4 6.978 9.21 17.285 10.758-16.217 12.206-32.111 40.719-11.35 66.982a29.494 29.494 0 0 1 4.9 10.021h-20.06l-.722-5.048a12.281 12.281 0 0 0 -2.931-5.629c5.458-29.756-3.607-57.6-32.714-69.941-.2-.74-21.677-115.4-21.971-115.988a23.535 23.535 0 0 0 2.2-25.365 8.6 8.6 0 0 0 -9.449-4.366c-8.452-37.321-23.18-89.32-23.334-89.862-.874-3.473-6.146-3.62-7.171-.144-6.49 19.818-10.311 56.749-10.47 58.312a3.751 3.751 0 0 0 2.327 3.858c14.371 5.8 20.3 29.578 22.6 43.867-11.385 12.728-30.082 31.707-60.818 55.074-27.925 21.233-39.7 44.94-32.3 65.043 6.835 18.59 29.2 30.473 56.531 30.472zm5.421-7.688c-2.633-.768-14.134-4.61-19.948-14.436 8.555 4.154 23.948 4.054 30.526 2.615 15.987-2.2 30.539-2.2 43.334-.034l3.41 18.714c-22.195-9.412-52.199-7.306-57.322-6.859zm35.631-112.176 16.853 92.482c-12.9-1.86-27.349-1.711-43.028.457-.568.076-21.382 4.09-32.762-6.083-4.934-23.802 46.405-76.48 58.937-86.856zm28.248 185.682a3.941 3.941 0 0 1 2.454-4.366l19.12-5.235c4.426-1.077 6.154 2.559 6.848 6.217l-15.536 3.623a3.749 3.749 0 1 0 1.7 7.3l15.461-3.6c.458 2.567.795 5.078 1.044 7.487l-14.943 3.674a3.75 3.75 0 0 0 1.79 7.283l13.689-3.364c.149 3.717.848 8.7-3.824 9.468l-15.2 2.335c-3.7.174-5.134-2.932-4.012-5.171a3.75 3.75 0 0 0 -1.581-4.922c-5.143-2.806-1.973-9.376-1.6-10.1a3.751 3.751 0 0 0 -1.478-5.007 7.745 7.745 0 0 1 -3.932-5.622zm81.555 1.4c1.533 2.982 3.739 9.643.48 19.821l-42.916-2.544c-.082-2.154-.227-4.473-.455-6.9 5.914-.085 11.1-4.255 11.224-10.373zm35.549-68.77a2.4 2.4 0 0 1 .22-.139l8.8-6.012c4.021-2.848-.114-8.906-4.232-6.192l-3.29 2.248c-.275-14.7 6.6-22.842 19.181-18.294 1.319 2.8 7.576 10.516 16.893 12.822.729-.007 16.81-.3 27.427-11.1.081.731.208 1.5.366 2.28a315.884 315.884 0 0 1 -36.046 34.919c-4.982 4.119-9.341 7.843-13.192 11.261-4.411-8.664-14.891-14.76-22.911-16.721a50.284 50.284 0 0 1 6.784-5.07zm2.684-86.867c4.771 1.141 6.621-5.966 1.846-7.27l-5.253-1.333a94.066 94.066 0 0 1 4.637-25.963c3.721.176 8 .517 12.637 1.128a53.948 53.948 0 0 0 3.768 24.711l-3.394 1.024a3.758 3.758 0 0 0 1.082 7.341c.752.09 4.957-1.384 5.746-1.568a57.369 57.369 0 0 0 15.939 17.1c-6.358 8.817-16.867 11.864-19.974 12.591a29.83 29.83 0 0 1 -20.478-28.635zm179.181 191.752c7.038 24.877 21.775 43.3 43.773 54.822a148.669 148.669 0 0 1 -.921 26.648c-88.852-47.385-74.636-124.356-65.089-153.825a160.261 160.261 0 0 1 18.752 17.925c-1.639 13.989-2.23 34.248 3.485 54.43zm-17.632-78.279c-1.39-1.119-2.785-2.219-4.195-3.271-10.578-7.907-17.833-11.039-18.136-11.168a3.749 3.749 0 0 0 -4.793 1.711c-.636 1.214-9.065 17.7-12.421 42.044-3.922-12.832-4.136-21.638-18.944-48.176 8.465-.968 15.237-5.729 14.356-14.435-1.248-10-6.908-28.239-30.765-38.073-3.568-2.356-18.977-4.146-23.491 9.276-.251.042-.642.111-.892.126-4.093-1.616-5.623-3.524-7.279-8.859a113.339 113.339 0 0 1 -1.263-18.188 140.1 140.1 0 0 0 30.613 8.647c46.472 8.151 82.214 35.337 77.206 80.366zm-45.539 83.99a8.191 8.191 0 0 1 -1.7-7.884 54.81 54.81 0 0 1 6.9-14.514 131.925 131.925 0 0 0 7.956 34.589 95.93 95.93 0 0 1 -13.16-12.191zm-47.816-11.026a31.408 31.408 0 0 0 -1.427-10.986c6.191-5.571 7.649-13.338 3.92-21.716a7.065 7.065 0 0 1 -.363-4.847 149.236 149.236 0 0 1 9.988-24.79c25.839 25.076 11.612 34.741 27.375 61.587a16.561 16.561 0 0 0 -.487 11.17 97.437 97.437 0 0 1 -19.825 14.373 281.684 281.684 0 0 0 -19.181-24.791zm-23.591 92.706c-19.4-42.352-11.97-78.149-10.221-85.105q4.442-.163 9.052-.486c4.788 7.546 23.532 39.247 36.358 91.394a241.915 241.915 0 0 1 -35.189-5.803zm-49.305-94.672a37.7 37.7 0 0 1 .5-6.127 259.226 259.226 0 0 0 63.979-.087 25.379 25.379 0 0 1 .969 6.078c-25.165 3.124-46.64 3.169-65.448.136zm36.113-81.285a327.74 327.74 0 0 0 34.081-32.573c.172.358.341.714.529 1.079-2.49 4.639-11.6 19.637-35.82 42.827-19.62 19.648-36.453 37.057-26.92 57.118q-4.811-.477-9.53-1.149c-5.479-2.153-12.382-7.983-7.45-16.622 7.914-15.34 13.517-24.562 45.11-50.68zm.146-52.8c.142-.559.27-1.14.4-1.719a27.01 27.01 0 0 0 16.57-.013 13.511 13.511 0 0 0 6.088 8.362c-7.181 5.587-16.487 6.583-19.1 6.751a24.614 24.614 0 0 1 -9.261-6.451 11.183 11.183 0 0 0 5.303-6.929zm89.087 113.344a60.363 60.363 0 0 0 -9.228 13.187c-3.375-6.823-4.212-11.949-5.292-18.568-1.7-17.384-9.561-29.067-22.15-41.19a227.264 227.264 0 0 1 12.147-19.494c18.941 33.457 13.582 38.208 24.527 63.139q-.016 1.453-.004 2.927zm-56.809-6.946c2.525 5.672 1.553 10.3-2.872 13.762q-11.478 1.464-22.651 1.966c-1.343-6.929-3-26.294 14.176-46.236 15.41-17.894 22.153-31.872 25-39.543a32.6 32.6 0 0 0 12.248 6.98c-3.765 5.367-32.596 49.294-25.901 63.072zm-51.165 15.593c-8.756-11.095-7.324-23.683 22.718-52.44 20.569-19.692 30.628-33.693 35.125-41.014.357.527.76 1.029 1.149 1.524-1.349 4.718-6.765 19.927-24.857 40.936-18.4 21.366-17.641 42.195-16.083 51.368q-9.159.146-18.052-.374zm84.35-84.909c-17.366-.218-33.537-28.77-24.97-36.871a10.158 10.158 0 0 1 11.29-1.762c20.394 8.15 25.7 23.859 26.63 32.272.511 5.63-7.35 6.409-12.95 6.361zm-49.828-46.259a19.6 19.6 0 0 1 -13.946-.068 113.024 113.024 0 0 0 .8-12.8 36.51 36.51 0 0 0 9.266-9.065q1.446.843 2.956 1.648a134.228 134.228 0 0 0 .924 20.285zm-37.5-8.479c6.82 3.3 7.15 3.581 16.744-.212a91.263 91.263 0 0 1 -1.07 10.763c-.525 3.421-2.565 5.393-5.8 7.849a25.533 25.533 0 0 0 -8.7-1.366 35.753 35.753 0 0 0 -1.173-17.034zm-25.106 65.6c7.531.921 19.379 6.4 23.111 15.561a169.831 169.831 0 0 0 -12.9 13.23 15.378 15.378 0 0 1 -10.927-6.681c-5.197-7.179-4.969-14.428.717-22.113zm-6.36 67.42c2.043 5.132 6.454 8.4 9.65 10.2-3.34 1.585-14.3-.058-17.948-.036 2.527-9.2 1.355-16.226-.252-20.735 3.233-.556 7.029-3.007 9.878-4.584-2.733 5.385-3.186 10.482-1.327 15.152zm-57.2-21.316 1.376 9.607c.576 2.189-.141 3.8-2.431 4.284l-2.04.25c-1.137-5.485-1.75-11.674-4.777-16.545 3.576-.939 6.298-1.676 7.873 2.401zm-23.565 77.713a251.167 251.167 0 0 1 -18.4 38.057 25.8 25.8 0 0 1 -26.468 12.022c-31.33-5.521-48.75-27.133-57.331-42.306 17.327 10.875 38.722 11.059 51.666 9.831 24.6-2.732 35.11-24.388 44.015-47.31a11.5 11.5 0 0 0 1.839.113l5.223 28.666a3.73 3.73 0 0 0 -.544.927zm42.84-11.3c-1.537-9.417 2.759-15.028 3.081-15.494a94.381 94.381 0 0 0 7.975-13.022l13.233.784c4.076.033 19.462 1.763 23.221.639q-.011.715 0 1.421c-6.12 3.163-19.092 14.334-26.55 53.225-12.148-8.903-19.371-18.357-20.96-27.556zm51.707-19.33q5.805 1.014 11.933 1.648c-6.081 9.5-15.353 30.986-8.7 67.654a162.611 162.611 0 0 1 -27.26-17.488c7.448-42.52 21.206-50.594 24.027-51.817zm11.711 73.464c-9.6-44.057 4.884-66.018 8.961-71.121 4.494.252 9.234.394 13.932.341-2.419 10.6-7.526 43.141 8.744 82.5a215.458 215.458 0 0 1 -31.637-11.723zm83.928 20.556c-11.831-49.391-28.66-80.808-35.809-92.683q5.35-.513 10.923-1.22c39.212 45.551 46.952 82.739 48.446 94.219-8.191.262-16.044.127-23.56-.316zm16.515-45.693a221.582 221.582 0 0 0 -12.635-22.351 103.274 103.274 0 0 0 19.693-14.139 103.883 103.883 0 0 0 12.329 11.428 64.669 64.669 0 0 0 -19.387 25.06zm60.779 38.111c-1.764 1.777-4.521 1.018-5.813-.914l-9.6-8.53c-5.688-4.743-1.533-14.383.216-19.37a169.9 169.9 0 0 0 19.86 24.267zm51.908 18.742c-60.647-23.289-112.105-115.791-77.326-189.13a106.168 106.168 0 0 1 11.118 7.022c-10.1 29.348-28.976 115.18 70.181 166.474a114.844 114.844 0 0 1 -3.973 15.632zm5.366-59.088c-37.55-22.388-41.847-64.082-39.759-92.28 20.295 25.532 36.425 59.684 39.759 92.278zm-107.634-214.878c39.958 6.5 114.469 39.069 75.33 119.985a176.171 176.171 0 0 0 -21.734-23.59 68.072 68.072 0 0 0 -10.374-52.629c-9.906-14.593-30.469-33.513-72.176-40.779-59.491-10.364-65.47-41.729-64.33-57.973 15.191 2.836 32.532 8.79 45.491 21.015 1.307 5.877 8.702 26.992 47.793 33.971zm-19.73-93.932c.353 8.761 1.956 15.612 4.387 20.954-15.931 5.7-31.639-2.467-35.391-4.647-.85-1.823-1.8-3.6-2.9-5.453 11.42.289 25.35-2.462 33.774-13.12.048.751.099 1.504.13 2.266zm23.619 37.448c-11.375 3.847-23.038 3.853-41.006-7.993a43.882 43.882 0 0 0 25.68-1.973 27.957 27.957 0 0 0 15.326 9.966zm-25.555-53.045c-5.864 23.261-36.2 18.626-37.609 18.426q-1.521-1.842-3.262-3.646c14.042-11.279 22.1-24.783 21.8-50.293a69.846 69.846 0 0 1 19.071 35.513zm-27.216-42.488c4.435 33.428-13.16 48.078-19.312 52.1q-2.289-1.846-4.89-3.568c6.21-26.9-.354-50.576-4.431-61.542a73.739 73.739 0 0 1 28.633 13.01zm-37.24-14.3c2.835 6.62 11.894 30.9 6.218 58.875a75.74 75.74 0 0 0 -10.84-4.433c-6.967-27.8-21.407-42.955-29.5-49.558a75.828 75.828 0 0 1 34.122-4.882zm-68.634 25.35a143.32 143.32 0 0 1 26.631-17c5.032 3.517 20.969 16.47 29 43.84a102.481 102.481 0 0 0 -10.229-1.667c-12.286-18.156-33.28-23.568-45.402-25.171zm48.836 33.183c26.937 3.672 47.564 20.77 53.088 47.1-8.6-9.935-24.971-22.178-55.108-27.334a27.71 27.71 0 0 0 2.02-19.766zm-16.45 27.8a2.9 2.9 0 0 1 2.814-2.056c31.963 3.829 54.054 13.2 67.059 34.8-24.044-15.886-54.242-17.725-68.414-17.724-5.995-.03-2.058-13.579-1.459-15.019zm-41.965 190.808c-20.372-25.744.9-51.832 15.264-60.473a50.966 50.966 0 0 0 7.262-6.018 55 55 0 0 1 -7.978 12.873c-18.67 22.343-12.557 40.343-4.116 55a3.749 3.749 0 0 0 3.253 1.879c14.155-2.739-20.052-20.8 6.619-52.074 34.207-45.255-1.847-74.89 20.427-109.814-1.483 6.568-2.141 16.457-1.921 24.418a37.381 37.381 0 0 0 7.223 22.206c1.894 2.868 11.308 18.121 6.1 30.4-9.037 5.273-11.717 14.749-10.887 29.751-14.272 9.254-25.834 27.242-13.692 43.134a23.108 23.108 0 0 0 11.81 8.81c-1.074 1.477-2.062 2.925-2.988 4.366l-15.309 8.614a11.785 11.785 0 0 1 -5.769 1.511h-8.634a37.4 37.4 0 0 0 -6.664-14.583zm-30.865-10.952c-.3 3.749-.659 7.491-1.056 11.2-2.7-.51-9.9 1.76-12.62 2.236l-11.224-59.438a47.948 47.948 0 0 1 24.9 46.002zm-20.98 15.181-7.6 2.08-32.227-176.875c1.977-1.608 4.133-3.32 5.9-4.836zm-68.08-249.547c.765-6.766 3.026-25.328 6.4-40.9 5.161 18.738 14.5 53.444 20.266 79.48-1.04 1.234-2 2.379-3.176 3.763-3.362-16.708-10.075-35.124-23.49-42.343zm-39.1 110.639c44.212-33.934 60.508-54.386 73.344-69.411a1.069 1.069 0 0 1 1.8.209c5.364 10.954-1.446 19.119-10.82 26.115-8.46 6.838-22.621 18.281-47.612 49.1-23.559 29.721-32.077 55.82-9.144 75.158-49.998-8.322-50.765-49.994-7.565-81.172z"/><path d="m449.916 214.94c.092 5.38 8.094 5.379 8.185 0-.092-5.379-8.094-5.378-8.185 0z"/><path d="m425.883 328.5c-.092-5.379-8.094-5.379-8.185 0 .092 5.375 8.094 5.374 8.185 0z"/><path d="m428.117 379.291c-5.379.092-5.378 8.094 0 8.185 5.383-.091 5.383-8.094 0-8.185z"/><path d="m462.193 433.494c5.38-.092 5.379-8.094 0-8.185-5.379.091-5.378 8.091 0 8.185z"/></g></svg>