<svg width="100%" height="100%" viewBox="0 0 128 72" fill="none" xmlns="http://www.w3.org/2000/svg">
<g clip-path="url(#clip0_2345_1038)">
<mask id="mask0_2345_1038" style="mask-type:luminance" maskUnits="userSpaceOnUse" x="6" y="29" width="27" height="14">
<path d="M6.70127 29.6104H32.2597V42.7013H6.70127V29.6104Z" fill="white"/>
</mask>
<g mask="url(#mask0_2345_1038)">
<mask id="mask1_2345_1038" style="mask-type:luminance" maskUnits="userSpaceOnUse" x="0" y="0" width="39" height="66">
<path d="M0.27512 7.57791V58.181C0.27512 62.3109 3.62333 65.6615 7.75564 65.6615H31.2711C35.4034 65.6615 38.7516 62.3109 38.7516 58.181V7.57791C38.7516 3.44561 35.4034 0.097393 31.2711 0.097393H7.75564C3.62333 0.097393 0.27512 3.44561 0.27512 7.57791Z" fill="white"/>
</mask>
<g mask="url(#mask1_2345_1038)">
<path fill-rule="evenodd" clip-rule="evenodd" d="M7.22722 30.0268H31.8603V42.1534H7.22722V30.0268Z" fill="#28820A"/>
</g>
</g>
<mask id="mask2_2345_1038" style="mask-type:luminance" maskUnits="userSpaceOnUse" x="0" y="0" width="39" height="28">
<path d="M0.275158 0.0974083H38.6128V27.7403H0.275158V0.0974083Z" fill="white"/>
</mask>
<g mask="url(#mask2_2345_1038)">
<mask id="mask3_2345_1038" style="mask-type:luminance" maskUnits="userSpaceOnUse" x="0" y="0" width="39" height="66">
<path d="M0.275158 7.57793V58.181C0.275158 62.3109 3.62337 65.6615 7.75568 65.6615H31.2711C35.4034 65.6615 38.7516 62.3109 38.7516 58.181V7.57793C38.7516 3.44562 35.4034 0.0974083 31.2711 0.0974083H7.75568C3.62337 0.0974083 0.275158 3.44562 0.275158 7.57793Z" fill="white"/>
</mask>
<g mask="url(#mask3_2345_1038)">
<path fill-rule="evenodd" clip-rule="evenodd" d="M7.2273 27.3848V21.112H0.28006L19.5439 0.0974178L38.8077 21.112H31.8604V27.3848H7.2273Z" fill="#194D07"/>
</g>
</g>
<mask id="mask4_2345_1038" style="mask-type:luminance" maskUnits="userSpaceOnUse" x="6" y="44" width="27" height="12">
<path d="M6.70127 44.5714H32.2597V55.1688H6.70127V44.5714Z" fill="white"/>
</mask>
<g mask="url(#mask4_2345_1038)">
<mask id="mask5_2345_1038" style="mask-type:luminance" maskUnits="userSpaceOnUse" x="0" y="0" width="39" height="66">
<path d="M0.27512 7.57793V58.181C0.27512 62.3109 3.62333 65.6615 7.75564 65.6615H31.2711C35.4034 65.6615 38.7516 62.3109 38.7516 58.181V7.57793C38.7516 3.44563 35.4034 0.0974121 31.2711 0.0974121H7.75564C3.62333 0.0974121 0.27512 3.44563 0.27512 7.57793Z" fill="white"/>
</mask>
<g mask="url(#mask5_2345_1038)">
<path fill-rule="evenodd" clip-rule="evenodd" d="M7.22722 44.7954H31.8603V54.7549H7.22722V44.7954Z" fill="#3AA615"/>
</g>
</g>
<mask id="mask6_2345_1038" style="mask-type:luminance" maskUnits="userSpaceOnUse" x="6" y="57" width="27" height="9">
<path d="M6.70127 57.039H32.2597V65.1429H6.70127V57.039Z" fill="white"/>
</mask>
<g mask="url(#mask6_2345_1038)">
<mask id="mask7_2345_1038" style="mask-type:luminance" maskUnits="userSpaceOnUse" x="0" y="0" width="39" height="66">
<path d="M0.27512 7.57793V58.181C0.27512 62.3109 3.62333 65.6615 7.75564 65.6615H31.2711C35.4034 65.6615 38.7516 62.3109 38.7516 58.181V7.57793C38.7516 3.44562 35.4034 0.0974083 31.2711 0.0974083H7.75564C3.62333 0.0974083 0.27512 3.44562 0.27512 7.57793Z" fill="white"/>
</mask>
<g mask="url(#mask7_2345_1038)">
<path fill-rule="evenodd" clip-rule="evenodd" d="M7.22722 57.3969H31.8603V64.7508H7.22722V57.3969Z" fill="#4FC825"/>
</g>
</g>
<path d="M33.9061 22.4724H37.8314V38.1542H44.0554V42.0795H33.9061V22.4724Z" fill="#194D07"/>
<path d="M52.6678 42.0795H48.7425V22.4724H52.6678V42.0795Z" fill="#194D07"/>
<path d="M68.1946 26.388H62.3212V30.3133H67.3082V34.2386H62.3212V42.0795H58.3959V22.4724H68.1946V26.388Z" fill="#194D07"/>
<path d="M82.8881 42.0795H72.7387V22.4724H82.5569V26.388H76.664V30.3133H81.8166V34.2386H76.664V38.1542H82.8881V42.0795Z" fill="#194D07"/>
<mask id="mask8_2345_1038" style="mask-type:luminance" maskUnits="userSpaceOnUse" x="31" y="43" width="97" height="29">
<path d="M127.013 43.9481H31.6364V72H127.013V43.9481Z" fill="white"/>
</mask>
<g mask="url(#mask8_2345_1038)">
<path d="M33.9064 45.1113H37.8318V60.8029H44.0655V64.7282H33.9064V45.1113Z" fill="#194D07"/>
<path d="M58.9107 64.7282H48.7516V45.1113H58.5795V49.0366H52.6769V52.962H57.8393V56.8775H52.6769V60.8029H58.9107V64.7282Z" fill="#194D07"/>
<path d="M69.9961 65.1373L61.8727 45.1113H66.4019L69.0026 51.6373L70.4344 55.699L71.8272 51.7737L74.4668 45.1113H78.9961L70.8727 65.1373H69.9961Z" fill="#194D07"/>
<path d="M92.8543 64.7282H82.6952V45.1113H92.5232V49.0366H86.6206V52.962H91.7829V56.8775H86.6206V60.8029H92.8543V64.7282Z" fill="#194D07"/>
<path d="M97.8423 45.1113H101.768V60.8029H108.001V64.7282H97.8423V45.1113Z" fill="#194D07"/>
<path d="M111.782 63.462L112.278 59.3516C113.031 59.8849 113.778 60.2647 114.519 60.4912C115.259 60.7201 115.931 60.8516 116.535 60.8905C117.139 60.9246 117.587 60.9295 117.879 60.91C118.463 60.8784 118.96 60.6738 119.369 60.2964C119.783 59.9214 119.963 59.4685 119.905 58.9425C119.871 58.3727 119.661 57.9392 119.272 57.647C118.887 57.3548 118.424 57.1186 117.879 56.936C116.851 56.5537 115.894 56.1129 115.006 55.6113C114.122 55.1048 113.411 54.479 112.873 53.7314C112.332 52.979 112.064 52.0537 112.064 50.9555C112.064 49.8597 112.293 48.8686 112.756 47.9847C113.223 47.0959 113.876 46.3849 114.713 45.8516C115.556 45.3207 116.52 45.0285 117.606 44.975C118.113 44.936 118.736 44.9555 119.476 45.0334C120.222 45.1064 121.225 45.3597 122.486 45.7931L121.989 49.5821C120.911 49.1414 120.051 48.8905 119.408 48.8321C118.77 48.7688 118.298 48.7444 117.986 48.7639C117.29 48.798 116.781 49.0342 116.457 49.475C116.138 49.9108 115.999 50.4052 116.038 50.9555C116.089 51.5009 116.325 51.9173 116.749 52.2022C117.17 52.4896 117.665 52.7331 118.23 52.9327C119.255 53.298 120.197 53.7485 121.054 54.2866C121.916 54.8272 122.608 55.475 123.129 56.2347C123.655 56.9944 123.918 57.8978 123.918 58.9425C123.918 60.0212 123.677 60.9977 123.197 61.8743C122.722 62.7509 122.041 63.4571 121.152 63.9879C120.268 64.5212 119.213 64.8207 117.986 64.8938C117.621 64.9133 117.122 64.8987 116.486 64.8548C115.855 64.8086 115.137 64.6844 114.334 64.475C113.528 64.2607 112.678 63.9246 111.782 63.462Z" fill="#194D07"/>
</g>
</g>
<defs>
<clipPath id="clip0_2345_1038">
<rect width="127.013" height="72" fill="white"/>
</clipPath>
</defs>
</svg>
